G04 #@! TF.GenerationSoftware,KiCad,Pcbnew,10.0.6*
G04 #@! TF.CreationDate,2026-09-05T21:53:38-04:00*
G04 #@! TF.ProjectId,KiCAD_ESP32_Sensor,4b694341-445f-4455-9350-33325f53656e,rev?*
G04 #@! TF.SameCoordinates,Original*
G04 #@! TF.FileFunction,Copper,L1,Top*
G04 #@! TF.FilePolarity,Positive*
%FSLAX46Y46*%
G04 Gerber Fmt 4.6, Leading zero omitted, Abs format (unit mm)*
G04 Created by KiCad (PCBNEW 10.0.6) date 2026-09-05 21:53:38*
%MOMM*%
%LPD*%
G01*
G04 APERTURE LIST*
G04 Aperture macros list*
%AMRoundRect*
0 Rectangle with rounded corners*
0 $1 Rounding radius*
0 $2 $3 $4 $5 $6 $7 $8 $9 X,Y pos of 4 corners*
0 Add a 4 corners polygon primitive as box body*
4,1,4,$2,$3,$4,$5,$6,$7,$8,$9,$2,$3,0*
0 Add four circle primitives for the rounded corners*
1,1,$1+$1,$2,$3*
1,1,$1+$1,$4,$5*
1,1,$1+$1,$6,$7*
1,1,$1+$1,$8,$9*
0 Add four rect primitives between the rounded corners*
20,1,$1+$1,$2,$3,$4,$5,0*
20,1,$1+$1,$4,$5,$6,$7,0*
20,1,$1+$1,$6,$7,$8,$9,0*
20,1,$1+$1,$8,$9,$2,$3,0*%
G04 Aperture macros list end*
G04 #@! TA.AperFunction,SMDPad,CuDef*
%ADD10RoundRect,0.250000X0.350000X0.450000X-0.350000X0.450000X-0.350000X-0.450000X0.350000X-0.450000X0*%
G04 #@! TD*
G04 #@! TA.AperFunction,SMDPad,CuDef*
%ADD11R,0.600000X1.150000*%
G04 #@! TD*
G04 #@! TA.AperFunction,SMDPad,CuDef*
%ADD12R,0.300000X1.150000*%
G04 #@! TD*
G04 #@! TA.AperFunction,ComponentPad*
%ADD13O,1.000000X2.100000*%
G04 #@! TD*
G04 #@! TA.AperFunction,ComponentPad*
%ADD14O,1.000000X1.800000*%
G04 #@! TD*
G04 #@! TA.AperFunction,ComponentPad*
%ADD15R,1.700000X1.700000*%
G04 #@! TD*
G04 #@! TA.AperFunction,ComponentPad*
%ADD16C,1.700000*%
G04 #@! TD*
G04 #@! TA.AperFunction,SMDPad,CuDef*
%ADD17C,1.000000*%
G04 #@! TD*
G04 #@! TA.AperFunction,SMDPad,CuDef*
%ADD18RoundRect,0.250000X0.475000X-0.337500X0.475000X0.337500X-0.475000X0.337500X-0.475000X-0.337500X0*%
G04 #@! TD*
G04 #@! TA.AperFunction,SMDPad,CuDef*
%ADD19RoundRect,0.250000X0.337500X0.475000X-0.337500X0.475000X-0.337500X-0.475000X0.337500X-0.475000X0*%
G04 #@! TD*
G04 #@! TA.AperFunction,SMDPad,CuDef*
%ADD20R,1.500000X0.900000*%
G04 #@! TD*
G04 #@! TA.AperFunction,HeatsinkPad*
%ADD21C,0.600000*%
G04 #@! TD*
G04 #@! TA.AperFunction,HeatsinkPad*
%ADD22R,2.900000X2.900000*%
G04 #@! TD*
G04 #@! TA.AperFunction,SMDPad,CuDef*
%ADD23RoundRect,0.250000X-0.350000X-0.450000X0.350000X-0.450000X0.350000X0.450000X-0.350000X0.450000X0*%
G04 #@! TD*
G04 #@! TA.AperFunction,SMDPad,CuDef*
%ADD24RoundRect,0.250000X-0.450000X0.350000X-0.450000X-0.350000X0.450000X-0.350000X0.450000X0.350000X0*%
G04 #@! TD*
G04 #@! TA.AperFunction,SMDPad,CuDef*
%ADD25RoundRect,0.250000X0.450000X-0.350000X0.450000X0.350000X-0.450000X0.350000X-0.450000X-0.350000X0*%
G04 #@! TD*
G04 #@! TA.AperFunction,ComponentPad*
%ADD26C,2.000000*%
G04 #@! TD*
G04 #@! TA.AperFunction,SMDPad,CuDef*
%ADD27RoundRect,0.250000X-0.337500X-0.475000X0.337500X-0.475000X0.337500X0.475000X-0.337500X0.475000X0*%
G04 #@! TD*
G04 #@! TA.AperFunction,SMDPad,CuDef*
%ADD28RoundRect,0.162500X0.617500X0.162500X-0.617500X0.162500X-0.617500X-0.162500X0.617500X-0.162500X0*%
G04 #@! TD*
G04 #@! TA.AperFunction,ViaPad*
%ADD29C,0.600000*%
G04 #@! TD*
G04 #@! TA.AperFunction,Conductor*
%ADD30C,0.500000*%
G04 #@! TD*
G04 #@! TA.AperFunction,Conductor*
%ADD31C,0.200000*%
G04 #@! TD*
G04 APERTURE END LIST*
D10*
X81680000Y-73080000D03*
X79680000Y-73080000D03*
D11*
X74770000Y-76110000D03*
X75570000Y-76110000D03*
D12*
X76720000Y-76110000D03*
X77720000Y-76110000D03*
X78220000Y-76110000D03*
X79220000Y-76110000D03*
D11*
X81170000Y-76110000D03*
X80370000Y-76110000D03*
D12*
X79720000Y-76110000D03*
X78720000Y-76110000D03*
X77220000Y-76110000D03*
X76220000Y-76110000D03*
D13*
X73650000Y-76685000D03*
X82290000Y-76685000D03*
D14*
X73650000Y-80865000D03*
X82290000Y-80865000D03*
D15*
X81320000Y-64900000D03*
D16*
X81320000Y-62360000D03*
X81320000Y-59820000D03*
X81320000Y-57280000D03*
X81320000Y-54740000D03*
X81320000Y-52200000D03*
D17*
X59250000Y-77850000D03*
D18*
X64040000Y-81567500D03*
X64040000Y-79492500D03*
D19*
X56767500Y-53680000D03*
X54692500Y-53680000D03*
D17*
X55720000Y-77840000D03*
D20*
X58790000Y-51100000D03*
X58790000Y-52600000D03*
X58790000Y-54100000D03*
X58790000Y-55600000D03*
X58790000Y-57100000D03*
X58790000Y-58600000D03*
X58790000Y-60100000D03*
X58790000Y-61600000D03*
X58790000Y-63100000D03*
X76290000Y-63100000D03*
X76290000Y-61600000D03*
X76290000Y-60100000D03*
X76290000Y-58600000D03*
X76290000Y-57100000D03*
X76290000Y-55600000D03*
X76290000Y-54100000D03*
X76290000Y-52600000D03*
X76290000Y-51100000D03*
D21*
X67400000Y-56750000D03*
X67400000Y-57850000D03*
X67950000Y-56200000D03*
X67950000Y-57300000D03*
X67950000Y-58400000D03*
X68500000Y-56750000D03*
D22*
X68500000Y-57300000D03*
D21*
X68500000Y-57850000D03*
X69050000Y-56200000D03*
X69050000Y-57300000D03*
X69050000Y-58400000D03*
X69600000Y-56750000D03*
X69600000Y-57850000D03*
D23*
X60470000Y-65470000D03*
X62470000Y-65470000D03*
D10*
X82070000Y-68310000D03*
X80070000Y-68310000D03*
D24*
X75930000Y-70820000D03*
X75930000Y-72820000D03*
X56140000Y-57630000D03*
X56140000Y-59630000D03*
D25*
X56150000Y-63590000D03*
X56150000Y-61590000D03*
D17*
X59000000Y-80340000D03*
D19*
X56757500Y-51520000D03*
X54682500Y-51520000D03*
D26*
X60310000Y-68350000D03*
X60310000Y-74850000D03*
X55810000Y-68350000D03*
X55810000Y-74850000D03*
X64180000Y-74860000D03*
X64180000Y-68360000D03*
X68680000Y-74860000D03*
X68680000Y-68360000D03*
D19*
X69330000Y-77590000D03*
X67255000Y-77590000D03*
D10*
X82070000Y-70620000D03*
X80070000Y-70620000D03*
D17*
X72940000Y-73040000D03*
X55990000Y-80420000D03*
D27*
X65852500Y-65560000D03*
X67927500Y-65560000D03*
D28*
X69110000Y-81530000D03*
X69110000Y-80580000D03*
X69110000Y-79630000D03*
X66410000Y-79630000D03*
X66410000Y-81530000D03*
D29*
X65760000Y-77560000D03*
X61380000Y-63090000D03*
X75910000Y-67990000D03*
X71000000Y-79770000D03*
X75920000Y-69200000D03*
X60340000Y-63100000D03*
X71680000Y-76400000D03*
X82140000Y-74640000D03*
X53870000Y-68250000D03*
X61050000Y-51530000D03*
X54320000Y-60390000D03*
X78230000Y-56260000D03*
X53820000Y-55290000D03*
X54770000Y-55260000D03*
X72640000Y-65330000D03*
X62100000Y-79110000D03*
X53840000Y-74910000D03*
X64470000Y-65530000D03*
X71070000Y-82070000D03*
X73780000Y-62990000D03*
X74040000Y-51490000D03*
X80380000Y-74610000D03*
X73947684Y-74880000D03*
X64370000Y-62950000D03*
X62470000Y-62960000D03*
D30*
X81170000Y-76110000D02*
X81715000Y-76110000D01*
X81170000Y-76110000D02*
X81170000Y-75610000D01*
X67255000Y-77590000D02*
X65790000Y-77590000D01*
X75930000Y-69210000D02*
X75920000Y-69200000D01*
X53690000Y-51520000D02*
X54682500Y-51520000D01*
X62100000Y-79150000D02*
X62442500Y-79492500D01*
X53400000Y-51810000D02*
X53690000Y-51520000D01*
X65822500Y-65530000D02*
X65852500Y-65560000D01*
X55810000Y-68350000D02*
X55810000Y-74850000D01*
X69110000Y-80580000D02*
X70190000Y-80580000D01*
X62100000Y-79110000D02*
X62100000Y-79150000D01*
X65790000Y-77590000D02*
X65760000Y-77560000D01*
X62442500Y-79492500D02*
X64040000Y-79492500D01*
X60340000Y-63100000D02*
X58790000Y-63100000D01*
X53820000Y-55290000D02*
X53400000Y-54870000D01*
X70190000Y-80580000D02*
X71000000Y-79770000D01*
X53400000Y-54870000D02*
X53400000Y-51810000D01*
X64470000Y-65530000D02*
X65822500Y-65530000D01*
X81715000Y-76110000D02*
X82290000Y-76685000D01*
X54770000Y-55260000D02*
X54770000Y-53757500D01*
X54770000Y-53757500D02*
X54692500Y-53680000D01*
X81170000Y-75610000D02*
X82140000Y-74640000D01*
X75930000Y-70820000D02*
X75930000Y-69210000D01*
X68680000Y-74860000D02*
X68680000Y-68360000D01*
X72960000Y-72980000D02*
X72980000Y-72960000D01*
X68409292Y-81530000D02*
X69110000Y-81530000D01*
X69110000Y-77810000D02*
X69330000Y-77590000D01*
X68330001Y-79630000D02*
X67880000Y-80080001D01*
X67880000Y-80080001D02*
X67880000Y-81000708D01*
X74770000Y-76110000D02*
X75570000Y-76110000D01*
X80370000Y-74620000D02*
X80380000Y-74610000D01*
X72980000Y-72960000D02*
X72980000Y-74820000D01*
X69330000Y-77590000D02*
X69330000Y-76850000D01*
X69110000Y-79630000D02*
X69110000Y-77810000D01*
X74770000Y-75702316D02*
X74770000Y-76110000D01*
X73947684Y-74880000D02*
X74770000Y-75702316D01*
X73040000Y-74880000D02*
X73947684Y-74880000D01*
X80370000Y-76110000D02*
X80370000Y-74620000D01*
X67880000Y-81000708D02*
X68409292Y-81530000D01*
X69110000Y-79630000D02*
X68330001Y-79630000D01*
X72980000Y-74820000D02*
X73040000Y-74880000D01*
X71300000Y-74880000D02*
X73040000Y-74880000D01*
X69330000Y-76850000D02*
X71300000Y-74880000D01*
X56140000Y-57630000D02*
X56140000Y-57580000D01*
X66410000Y-81530000D02*
X64077500Y-81530000D01*
X52750000Y-63120000D02*
X53190000Y-62680000D01*
X52750000Y-80815000D02*
X52750000Y-63120000D01*
X62327500Y-81567500D02*
X64040000Y-81567500D01*
X54175000Y-82240000D02*
X52750000Y-80815000D01*
X58950000Y-82240000D02*
X54175000Y-82240000D01*
X53740000Y-58020000D02*
X55160000Y-56600000D01*
X61655000Y-82240000D02*
X62327500Y-81567500D01*
X56630000Y-53680000D02*
X56767500Y-53680000D01*
X57050000Y-63600000D02*
X58950000Y-65500000D01*
X80070000Y-66620000D02*
X81690000Y-65000000D01*
X65472500Y-83000000D02*
X82810000Y-83000000D01*
X54110000Y-63600000D02*
X57050000Y-63600000D01*
X53190000Y-62680000D02*
X54110000Y-63600000D01*
X58950000Y-65500000D02*
X60440000Y-65500000D01*
X55160000Y-56600000D02*
X56620000Y-55140000D01*
X56620000Y-55140000D02*
X56620000Y-53690000D01*
X59000000Y-80340000D02*
X59000000Y-82190000D01*
X80070000Y-68310000D02*
X80070000Y-66620000D01*
X56767500Y-53680000D02*
X56610000Y-53680000D01*
X61655000Y-82240000D02*
X59200000Y-82240000D01*
X59200000Y-82240000D02*
X58950000Y-82240000D01*
X81423122Y-71770000D02*
X80273122Y-70620000D01*
X56610000Y-53680000D02*
X56570000Y-53640000D01*
X84010000Y-81800000D02*
X84010000Y-72610000D01*
X83170000Y-71770000D02*
X81423122Y-71770000D01*
X64077500Y-81530000D02*
X64040000Y-81567500D01*
X56570000Y-53640000D02*
X56570000Y-51300000D01*
X56710000Y-51160000D02*
X58730000Y-51160000D01*
X53190000Y-58020000D02*
X53740000Y-58020000D01*
X64040000Y-81567500D02*
X65472500Y-83000000D01*
X58730000Y-51160000D02*
X58790000Y-51100000D01*
X56570000Y-51300000D02*
X56710000Y-51160000D01*
X59000000Y-82190000D02*
X58950000Y-82240000D01*
X56140000Y-57630000D02*
X55715000Y-57630000D01*
X56140000Y-57580000D02*
X55160000Y-56600000D01*
X80273122Y-70620000D02*
X80070000Y-70620000D01*
X82810000Y-83000000D02*
X84010000Y-81800000D01*
X60440000Y-65500000D02*
X60470000Y-65470000D01*
X80070000Y-70620000D02*
X80070000Y-68310000D01*
X53190000Y-62680000D02*
X53190000Y-58020000D01*
X56620000Y-53690000D02*
X56630000Y-53680000D01*
X84010000Y-72610000D02*
X83170000Y-71770000D01*
D31*
X59090000Y-52600000D02*
X58790000Y-52600000D01*
X61260000Y-77780000D02*
X59430000Y-77780000D01*
X66170000Y-68360000D02*
X67927500Y-66602500D01*
X64180000Y-68360000D02*
X66170000Y-68360000D01*
X64180000Y-74860000D02*
X64180000Y-68360000D01*
X67927500Y-66602500D02*
X67927500Y-65560000D01*
X59840000Y-53350000D02*
X59090000Y-52600000D01*
X64180000Y-74860000D02*
X61260000Y-77780000D01*
X66660000Y-62950000D02*
X67927500Y-64217500D01*
X64370000Y-62950000D02*
X66660000Y-62950000D01*
X67927500Y-64217500D02*
X67927500Y-65560000D01*
X64370000Y-62950000D02*
X64370000Y-62860000D01*
X59840000Y-58330000D02*
X59840000Y-53350000D01*
X64370000Y-62860000D02*
X59840000Y-58330000D01*
X62470000Y-62960000D02*
X62470000Y-65470000D01*
X76720000Y-76110000D02*
X76720000Y-75265000D01*
X75930000Y-74475000D02*
X75930000Y-72820000D01*
X76720000Y-75265000D02*
X75930000Y-74475000D01*
X79720000Y-76110000D02*
X79720000Y-73120000D01*
X79720000Y-73120000D02*
X79680000Y-73080000D01*
X82070000Y-70620000D02*
X83900000Y-68790000D01*
X81320000Y-57280000D02*
X79110000Y-55070000D01*
X78160000Y-51100000D02*
X76290000Y-51100000D01*
X83900000Y-59590000D02*
X81690000Y-57380000D01*
X79110000Y-52050000D02*
X78160000Y-51100000D01*
X79110000Y-55070000D02*
X79110000Y-52050000D01*
X83900000Y-68790000D02*
X83900000Y-59590000D01*
X77660000Y-52600000D02*
X76290000Y-52600000D01*
X78710000Y-53650000D02*
X77660000Y-52600000D01*
X78710000Y-55235685D02*
X78710000Y-53650000D01*
X79750000Y-58250000D02*
X79750000Y-56275685D01*
X82070000Y-68310000D02*
X83500000Y-66880000D01*
X83500000Y-61730000D02*
X81690000Y-59920000D01*
X83500000Y-66880000D02*
X83500000Y-61730000D01*
X79750000Y-56275685D02*
X78710000Y-55235685D01*
X81320000Y-59820000D02*
X79750000Y-58250000D01*
X60310000Y-68350000D02*
X61820000Y-68350000D01*
X62140000Y-61600000D02*
X58790000Y-61600000D01*
X55870000Y-77600000D02*
X58620000Y-74850000D01*
X63820000Y-63280000D02*
X62140000Y-61600000D01*
X63820000Y-66350000D02*
X63820000Y-63280000D01*
X61820000Y-68350000D02*
X63820000Y-66350000D01*
X58820000Y-61570000D02*
X58790000Y-61600000D01*
X55870000Y-77730000D02*
X55870000Y-77600000D01*
X60310000Y-74850000D02*
X60310000Y-68350000D01*
X56000000Y-61600000D02*
X58790000Y-61600000D01*
X59970000Y-74850000D02*
X60310000Y-74850000D01*
X58620000Y-74850000D02*
X60310000Y-74850000D01*
X55990000Y-59640000D02*
X56350000Y-60000000D01*
X58690000Y-60000000D02*
X58790000Y-60100000D01*
X56350000Y-60000000D02*
X58690000Y-60000000D01*
X77630000Y-74260000D02*
X77220000Y-74670000D01*
X78170000Y-76985000D02*
X77270000Y-76985000D01*
X76290000Y-58600000D02*
X77290000Y-58600000D01*
X78220000Y-76110000D02*
X78220000Y-76935000D01*
X77220000Y-76935000D02*
X77220000Y-76110000D01*
X77290000Y-58600000D02*
X77858557Y-58031443D01*
X78710000Y-64877156D02*
X77630000Y-65957156D01*
X78220000Y-76935000D02*
X78170000Y-76985000D01*
X78278599Y-58031443D02*
X78710000Y-58462844D01*
X77630000Y-65957156D02*
X77630000Y-74260000D01*
X77270000Y-76985000D02*
X77220000Y-76935000D01*
X77858557Y-58031443D02*
X78278599Y-58031443D01*
X78710000Y-58462844D02*
X78710000Y-64877156D01*
X77220000Y-74670000D02*
X77220000Y-76110000D01*
X79110000Y-58297156D02*
X79110000Y-65042844D01*
X77720000Y-76110000D02*
X77720000Y-75285000D01*
X78030000Y-74270000D02*
X78420000Y-74660000D01*
X78720000Y-75285000D02*
X78720000Y-76110000D01*
X76290000Y-57100000D02*
X77370000Y-57100000D01*
X78670000Y-75235000D02*
X78720000Y-75285000D01*
X77770000Y-75235000D02*
X78670000Y-75235000D01*
X78030000Y-66122844D02*
X78030000Y-74270000D01*
X78420000Y-74660000D02*
X78420000Y-75235000D01*
X78444287Y-57631443D02*
X79110000Y-58297156D01*
X77370000Y-57100000D02*
X77901443Y-57631443D01*
X79110000Y-65042844D02*
X78030000Y-66122844D01*
X77901443Y-57631443D02*
X78444287Y-57631443D01*
X77720000Y-75285000D02*
X77770000Y-75235000D01*
G04 #@! TA.AperFunction,Conductor*
G36*
X72658038Y-75650185D02*
G01*
X72703793Y-75702989D01*
X72713737Y-75772147D01*
X72705560Y-75801952D01*
X72688430Y-75843306D01*
X72688427Y-75843318D01*
X72650000Y-76036504D01*
X72650000Y-76435000D01*
X73350000Y-76435000D01*
X73350000Y-76935000D01*
X72650000Y-76935000D01*
X72650000Y-77333495D01*
X72688427Y-77526681D01*
X72688430Y-77526693D01*
X72763807Y-77708671D01*
X72763814Y-77708684D01*
X72873248Y-77872462D01*
X72873251Y-77872466D01*
X73012533Y-78011748D01*
X73012537Y-78011751D01*
X73176315Y-78121185D01*
X73176328Y-78121192D01*
X73358308Y-78196569D01*
X73400000Y-78204862D01*
X73400000Y-77401988D01*
X73409940Y-77419205D01*
X73465795Y-77475060D01*
X73534204Y-77514556D01*
X73610504Y-77535000D01*
X73689496Y-77535000D01*
X73765796Y-77514556D01*
X73834205Y-77475060D01*
X73890060Y-77419205D01*
X73900000Y-77401988D01*
X73900000Y-78204862D01*
X73941690Y-78196569D01*
X73941692Y-78196569D01*
X74123671Y-78121192D01*
X74123684Y-78121185D01*
X74287462Y-78011751D01*
X74287466Y-78011748D01*
X74426748Y-77872466D01*
X74426751Y-77872462D01*
X74536185Y-77708684D01*
X74536187Y-77708680D01*
X74580871Y-77600802D01*
X74624712Y-77546399D01*
X74691006Y-77524333D01*
X74758705Y-77541612D01*
X74783114Y-77560573D01*
X74788036Y-77565495D01*
X74896464Y-77628095D01*
X75017399Y-77660500D01*
X75017401Y-77660500D01*
X75142599Y-77660500D01*
X75142601Y-77660500D01*
X75263536Y-77628095D01*
X75371964Y-77565495D01*
X75460495Y-77476964D01*
X75523095Y-77368536D01*
X75547514Y-77277402D01*
X75583878Y-77217745D01*
X75646725Y-77187216D01*
X75667288Y-77185499D01*
X75917872Y-77185499D01*
X75917885Y-77185498D01*
X75956744Y-77181320D01*
X75983252Y-77181320D01*
X76022127Y-77185500D01*
X76417872Y-77185499D01*
X76417873Y-77185498D01*
X76417885Y-77185498D01*
X76456744Y-77181320D01*
X76483252Y-77181320D01*
X76522127Y-77185500D01*
X76599635Y-77185499D01*
X76666674Y-77205183D01*
X76707023Y-77247499D01*
X76739477Y-77303712D01*
X76739479Y-77303715D01*
X76739480Y-77303716D01*
X76789480Y-77353716D01*
X76847048Y-77411284D01*
X76901284Y-77465520D01*
X76901286Y-77465521D01*
X76901290Y-77465524D01*
X77038209Y-77544573D01*
X77038212Y-77544575D01*
X77038216Y-77544577D01*
X77190943Y-77585501D01*
X77190945Y-77585501D01*
X77356654Y-77585501D01*
X77356670Y-77585500D01*
X78083331Y-77585500D01*
X78083347Y-77585501D01*
X78090943Y-77585501D01*
X78249054Y-77585501D01*
X78249057Y-77585501D01*
X78401785Y-77544577D01*
X78488387Y-77494577D01*
X78538716Y-77465520D01*
X78650520Y-77353716D01*
X78700520Y-77303716D01*
X78732975Y-77247501D01*
X78783541Y-77199284D01*
X78840363Y-77185499D01*
X78917872Y-77185499D01*
X78917885Y-77185498D01*
X78956744Y-77181320D01*
X78983252Y-77181320D01*
X79022127Y-77185500D01*
X79417872Y-77185499D01*
X79417873Y-77185498D01*
X79417885Y-77185498D01*
X79456744Y-77181320D01*
X79483252Y-77181320D01*
X79522127Y-77185500D01*
X79917872Y-77185499D01*
X79917873Y-77185498D01*
X79917885Y-77185498D01*
X79956744Y-77181320D01*
X79983252Y-77181320D01*
X80022127Y-77185500D01*
X80272712Y-77185499D01*
X80339750Y-77205183D01*
X80385505Y-77257987D01*
X80392485Y-77277404D01*
X80416903Y-77368531D01*
X80416905Y-77368536D01*
X80479505Y-77476964D01*
X80568036Y-77565495D01*
X80676464Y-77628095D01*
X80797399Y-77660500D01*
X80797401Y-77660500D01*
X80922599Y-77660500D01*
X80922601Y-77660500D01*
X81043536Y-77628095D01*
X81151964Y-77565495D01*
X81156883Y-77560575D01*
X81218202Y-77527089D01*
X81287894Y-77532070D01*
X81343830Y-77573939D01*
X81359127Y-77600802D01*
X81403807Y-77708671D01*
X81403814Y-77708684D01*
X81513248Y-77872462D01*
X81513251Y-77872466D01*
X81652533Y-78011748D01*
X81652537Y-78011751D01*
X81816315Y-78121185D01*
X81816328Y-78121192D01*
X81998308Y-78196569D01*
X82040000Y-78204862D01*
X82040000Y-77401988D01*
X82049940Y-77419205D01*
X82105795Y-77475060D01*
X82174204Y-77514556D01*
X82250504Y-77535000D01*
X82329496Y-77535000D01*
X82405796Y-77514556D01*
X82474205Y-77475060D01*
X82530060Y-77419205D01*
X82540000Y-77401988D01*
X82540000Y-78204862D01*
X82581690Y-78196569D01*
X82581692Y-78196569D01*
X82763671Y-78121192D01*
X82763684Y-78121185D01*
X82927462Y-78011751D01*
X82927466Y-78011748D01*
X83047819Y-77891396D01*
X83109142Y-77857911D01*
X83178834Y-77862895D01*
X83234767Y-77904767D01*
X83259184Y-77970231D01*
X83259500Y-77979077D01*
X83259500Y-79720923D01*
X83239815Y-79787962D01*
X83187011Y-79833717D01*
X83117853Y-79843661D01*
X83054297Y-79814636D01*
X83047819Y-79808604D01*
X82927466Y-79688251D01*
X82927462Y-79688248D01*
X82763684Y-79578814D01*
X82763671Y-79578807D01*
X82581691Y-79503429D01*
X82581683Y-79503427D01*
X82540000Y-79495135D01*
X82540000Y-80298011D01*
X82530060Y-80280795D01*
X82474205Y-80224940D01*
X82405796Y-80185444D01*
X82329496Y-80165000D01*
X82250504Y-80165000D01*
X82174204Y-80185444D01*
X82105795Y-80224940D01*
X82049940Y-80280795D01*
X82040000Y-80298011D01*
X82040000Y-79495136D01*
X82039999Y-79495135D01*
X81998316Y-79503427D01*
X81998308Y-79503429D01*
X81816328Y-79578807D01*
X81816315Y-79578814D01*
X81652537Y-79688248D01*
X81652533Y-79688251D01*
X81513251Y-79827533D01*
X81513248Y-79827537D01*
X81403814Y-79991315D01*
X81403807Y-79991328D01*
X81328430Y-80173306D01*
X81328427Y-80173318D01*
X81290000Y-80366504D01*
X81290000Y-80615000D01*
X81990000Y-80615000D01*
X81990000Y-81115000D01*
X81290000Y-81115000D01*
X81290000Y-81363495D01*
X81328427Y-81556681D01*
X81328430Y-81556693D01*
X81403807Y-81738671D01*
X81403814Y-81738684D01*
X81513248Y-81902462D01*
X81513251Y-81902466D01*
X81648604Y-82037819D01*
X81682089Y-82099142D01*
X81677105Y-82168834D01*
X81635233Y-82224767D01*
X81569769Y-82249184D01*
X81560923Y-82249500D01*
X74379077Y-82249500D01*
X74312038Y-82229815D01*
X74266283Y-82177011D01*
X74256339Y-82107853D01*
X74285364Y-82044297D01*
X74291396Y-82037819D01*
X74426748Y-81902466D01*
X74426751Y-81902462D01*
X74536185Y-81738684D01*
X74536192Y-81738671D01*
X74611569Y-81556693D01*
X74611572Y-81556681D01*
X74649999Y-81363495D01*
X74650000Y-81363492D01*
X74650000Y-81115000D01*
X73950000Y-81115000D01*
X73950000Y-80615000D01*
X74650000Y-80615000D01*
X74650000Y-80366508D01*
X74649999Y-80366504D01*
X74611572Y-80173318D01*
X74611569Y-80173306D01*
X74536192Y-79991328D01*
X74536185Y-79991315D01*
X74426751Y-79827537D01*
X74426748Y-79827533D01*
X74287466Y-79688251D01*
X74287462Y-79688248D01*
X74123684Y-79578814D01*
X74123671Y-79578807D01*
X73941691Y-79503429D01*
X73941683Y-79503427D01*
X73900000Y-79495135D01*
X73900000Y-80298011D01*
X73890060Y-80280795D01*
X73834205Y-80224940D01*
X73765796Y-80185444D01*
X73689496Y-80165000D01*
X73610504Y-80165000D01*
X73534204Y-80185444D01*
X73465795Y-80224940D01*
X73409940Y-80280795D01*
X73400000Y-80298011D01*
X73400000Y-79495136D01*
X73399999Y-79495135D01*
X73358316Y-79503427D01*
X73358308Y-79503429D01*
X73176328Y-79578807D01*
X73176315Y-79578814D01*
X73012537Y-79688248D01*
X73012533Y-79688251D01*
X72873251Y-79827533D01*
X72873248Y-79827537D01*
X72763814Y-79991315D01*
X72763807Y-79991328D01*
X72688430Y-80173306D01*
X72688427Y-80173318D01*
X72650000Y-80366504D01*
X72650000Y-80615000D01*
X73350000Y-80615000D01*
X73350000Y-81115000D01*
X72650000Y-81115000D01*
X72650000Y-81363495D01*
X72688427Y-81556681D01*
X72688430Y-81556693D01*
X72763807Y-81738671D01*
X72763814Y-81738684D01*
X72873248Y-81902462D01*
X72873251Y-81902466D01*
X73008604Y-82037819D01*
X73042089Y-82099142D01*
X73037105Y-82168834D01*
X72995233Y-82224767D01*
X72929769Y-82249184D01*
X72920923Y-82249500D01*
X70385370Y-82249500D01*
X70318331Y-82229815D01*
X70272576Y-82177011D01*
X70262632Y-82107853D01*
X70279252Y-82061352D01*
X70336531Y-81966602D01*
X70384430Y-81812887D01*
X70390500Y-81746091D01*
X70390499Y-81313910D01*
X70390499Y-81313901D01*
X70384431Y-81247117D01*
X70384429Y-81247109D01*
X70335799Y-81091049D01*
X70334647Y-81021188D01*
X70335799Y-81017267D01*
X70383933Y-80862799D01*
X70383935Y-80862792D01*
X70386914Y-80830000D01*
X70154496Y-80830000D01*
X70090346Y-80812117D01*
X70001602Y-80758469D01*
X70001596Y-80758467D01*
X69847887Y-80710570D01*
X69847885Y-80710569D01*
X69847883Y-80710569D01*
X69801117Y-80706319D01*
X69781091Y-80704500D01*
X69781088Y-80704500D01*
X69234000Y-80704500D01*
X69166961Y-80684815D01*
X69121206Y-80632011D01*
X69110000Y-80580500D01*
X69110000Y-80579499D01*
X69129685Y-80512460D01*
X69182489Y-80466705D01*
X69234000Y-80455499D01*
X69781097Y-80455499D01*
X69847882Y-80449431D01*
X69847885Y-80449430D01*
X69847887Y-80449430D01*
X70001602Y-80401531D01*
X70090346Y-80347882D01*
X70154496Y-80330000D01*
X70386915Y-80330000D01*
X70386914Y-80329999D01*
X70383935Y-80297207D01*
X70383933Y-80297200D01*
X70335799Y-80142732D01*
X70334647Y-80072871D01*
X70335799Y-80068951D01*
X70336580Y-80066446D01*
X70384430Y-79912887D01*
X70390500Y-79846091D01*
X70390499Y-79413910D01*
X70390499Y-79413909D01*
X70390499Y-79413901D01*
X70384431Y-79347117D01*
X70384428Y-79347106D01*
X70336532Y-79193401D01*
X70336531Y-79193400D01*
X70336531Y-79193398D01*
X70253236Y-79055612D01*
X70253234Y-79055610D01*
X70253233Y-79055608D01*
X70139391Y-78941766D01*
X70128182Y-78934990D01*
X70078954Y-78905230D01*
X70031768Y-78853704D01*
X70019930Y-78784845D01*
X70047199Y-78720516D01*
X70078007Y-78693577D01*
X70136156Y-78657712D01*
X70260212Y-78533656D01*
X70352314Y-78384334D01*
X70407499Y-78217797D01*
X70418000Y-78115009D01*
X70417999Y-77064992D01*
X70417781Y-77062861D01*
X70413543Y-77021378D01*
X70407499Y-76962203D01*
X70399614Y-76938410D01*
X70399079Y-76922845D01*
X70393637Y-76908254D01*
X70397903Y-76888643D01*
X70397213Y-76868584D01*
X70405383Y-76854258D01*
X70408489Y-76839981D01*
X70429640Y-76811727D01*
X70445410Y-76795957D01*
X71000800Y-76240568D01*
X71574549Y-75666819D01*
X71635872Y-75633334D01*
X71662230Y-75630500D01*
X72590999Y-75630500D01*
X72658038Y-75650185D01*
G37*
G04 #@! TD.AperFunction*
G04 #@! TA.AperFunction,Conductor*
G36*
X74982539Y-50650185D02*
G01*
X75028294Y-50702989D01*
X75039500Y-50754500D01*
X75039500Y-51597870D01*
X75039501Y-51597876D01*
X75045908Y-51657483D01*
X75099303Y-51800641D01*
X75097575Y-51801285D01*
X75110095Y-51858853D01*
X75098310Y-51898988D01*
X75099303Y-51899359D01*
X75045908Y-52042517D01*
X75039501Y-52102116D01*
X75039501Y-52102123D01*
X75039500Y-52102135D01*
X75039500Y-53097870D01*
X75039501Y-53097876D01*
X75045908Y-53157483D01*
X75099303Y-53300641D01*
X75097575Y-53301285D01*
X75110095Y-53358853D01*
X75098310Y-53398988D01*
X75099303Y-53399359D01*
X75045908Y-53542517D01*
X75039501Y-53602116D01*
X75039500Y-53602135D01*
X75039500Y-54597870D01*
X75039501Y-54597876D01*
X75045908Y-54657483D01*
X75099303Y-54800641D01*
X75097575Y-54801285D01*
X75110095Y-54858853D01*
X75098310Y-54898988D01*
X75099303Y-54899359D01*
X75045908Y-55042517D01*
X75039501Y-55102116D01*
X75039501Y-55102123D01*
X75039500Y-55102135D01*
X75039500Y-56097870D01*
X75039501Y-56097876D01*
X75045908Y-56157483D01*
X75099303Y-56300641D01*
X75097575Y-56301285D01*
X75110095Y-56358853D01*
X75098310Y-56398988D01*
X75099303Y-56399359D01*
X75045908Y-56542517D01*
X75039501Y-56602116D01*
X75039500Y-56602135D01*
X75039500Y-57597870D01*
X75039501Y-57597876D01*
X75045908Y-57657483D01*
X75099303Y-57800641D01*
X75097575Y-57801285D01*
X75110095Y-57858853D01*
X75098310Y-57898988D01*
X75099303Y-57899359D01*
X75045908Y-58042517D01*
X75039501Y-58102116D01*
X75039500Y-58102135D01*
X75039500Y-59097870D01*
X75039501Y-59097876D01*
X75045908Y-59157483D01*
X75099303Y-59300641D01*
X75097575Y-59301285D01*
X75110095Y-59358853D01*
X75098310Y-59398988D01*
X75099303Y-59399359D01*
X75045908Y-59542517D01*
X75039501Y-59602116D01*
X75039501Y-59602123D01*
X75039500Y-59602135D01*
X75039500Y-60597870D01*
X75039501Y-60597876D01*
X75045908Y-60657483D01*
X75099303Y-60800641D01*
X75097575Y-60801285D01*
X75110095Y-60858853D01*
X75098310Y-60898988D01*
X75099303Y-60899359D01*
X75045908Y-61042517D01*
X75041104Y-61087204D01*
X75039501Y-61102123D01*
X75039500Y-61102135D01*
X75039500Y-62097870D01*
X75039501Y-62097876D01*
X75045908Y-62157483D01*
X75099303Y-62300641D01*
X75097575Y-62301285D01*
X75110095Y-62358853D01*
X75098310Y-62398988D01*
X75099303Y-62399359D01*
X75045908Y-62542517D01*
X75040502Y-62592806D01*
X75039501Y-62602123D01*
X75039500Y-62602135D01*
X75039500Y-63597870D01*
X75039501Y-63597876D01*
X75045908Y-63657483D01*
X75096202Y-63792328D01*
X75096206Y-63792335D01*
X75182452Y-63907544D01*
X75182455Y-63907547D01*
X75297664Y-63993793D01*
X75297671Y-63993797D01*
X75432517Y-64044091D01*
X75432516Y-64044091D01*
X75439444Y-64044835D01*
X75492127Y-64050500D01*
X77087872Y-64050499D01*
X77147483Y-64044091D01*
X77282331Y-63993796D01*
X77397546Y-63907546D01*
X77483796Y-63792331D01*
X77534091Y-63657483D01*
X77540500Y-63597873D01*
X77540499Y-62602128D01*
X77534091Y-62542517D01*
X77483796Y-62407669D01*
X77483794Y-62407666D01*
X77480696Y-62399360D01*
X77482426Y-62398714D01*
X77469902Y-62341163D01*
X77481691Y-62301011D01*
X77480696Y-62300640D01*
X77483794Y-62292333D01*
X77483796Y-62292331D01*
X77534091Y-62157483D01*
X77540500Y-62097873D01*
X77540499Y-61102128D01*
X77534091Y-61042517D01*
X77483796Y-60907669D01*
X77483794Y-60907666D01*
X77480696Y-60899360D01*
X77482426Y-60898714D01*
X77469902Y-60841163D01*
X77481691Y-60801011D01*
X77480696Y-60800640D01*
X77483794Y-60792333D01*
X77483796Y-60792331D01*
X77534091Y-60657483D01*
X77540500Y-60597873D01*
X77540499Y-59602128D01*
X77534091Y-59542517D01*
X77483796Y-59407669D01*
X77483794Y-59407666D01*
X77480696Y-59399360D01*
X77482426Y-59398714D01*
X77469902Y-59341163D01*
X77481691Y-59301012D01*
X77480696Y-59300641D01*
X77483794Y-59292332D01*
X77483796Y-59292331D01*
X77520895Y-59192860D01*
X77562766Y-59136928D01*
X77575107Y-59128791D01*
X77577857Y-59127204D01*
X77651429Y-59084727D01*
X77658716Y-59080520D01*
X77770520Y-58968716D01*
X77770520Y-58968714D01*
X77780721Y-58958514D01*
X77780724Y-58958509D01*
X77897822Y-58841412D01*
X77959142Y-58807930D01*
X78028834Y-58812914D01*
X78084767Y-58854786D01*
X78109184Y-58920250D01*
X78109500Y-58929096D01*
X78109500Y-64577058D01*
X78089815Y-64644097D01*
X78073181Y-64664739D01*
X77149481Y-65588438D01*
X77149479Y-65588441D01*
X77099361Y-65675250D01*
X77099359Y-65675252D01*
X77070425Y-65725365D01*
X77070424Y-65725366D01*
X77070423Y-65725371D01*
X77029499Y-65878099D01*
X77029499Y-65878101D01*
X77029499Y-66046202D01*
X77029500Y-66046215D01*
X77029500Y-69767246D01*
X77009815Y-69834285D01*
X76957011Y-69880040D01*
X76887853Y-69889984D01*
X76840403Y-69872785D01*
X76699124Y-69785643D01*
X76699119Y-69785641D01*
X76532697Y-69730494D01*
X76532690Y-69730493D01*
X76429986Y-69720000D01*
X76180000Y-69720000D01*
X76180000Y-70696000D01*
X76160315Y-70763039D01*
X76107511Y-70808794D01*
X76056000Y-70820000D01*
X75930000Y-70820000D01*
X75930000Y-70946000D01*
X75910315Y-71013039D01*
X75857511Y-71058794D01*
X75806000Y-71070000D01*
X74730001Y-71070000D01*
X74730001Y-71219986D01*
X74740494Y-71322697D01*
X74795641Y-71489119D01*
X74795643Y-71489124D01*
X74887684Y-71638345D01*
X74981304Y-71731965D01*
X75014789Y-71793288D01*
X75009805Y-71862980D01*
X74981305Y-71907327D01*
X74887287Y-72001345D01*
X74795187Y-72150663D01*
X74795185Y-72150668D01*
X74767349Y-72234670D01*
X74740001Y-72317203D01*
X74740001Y-72317204D01*
X74740000Y-72317204D01*
X74729500Y-72419983D01*
X74729500Y-73220001D01*
X74729501Y-73220019D01*
X74740000Y-73322796D01*
X74740001Y-73322799D01*
X74795185Y-73489331D01*
X74795187Y-73489336D01*
X74830069Y-73545888D01*
X74887288Y-73638656D01*
X75011344Y-73762712D01*
X75160666Y-73854814D01*
X75244505Y-73882595D01*
X75301948Y-73922366D01*
X75328772Y-73986882D01*
X75329500Y-74000300D01*
X75329500Y-74388330D01*
X75329499Y-74388348D01*
X75329499Y-74554054D01*
X75329498Y-74554054D01*
X75370423Y-74706785D01*
X75393112Y-74746083D01*
X75452242Y-74848500D01*
X75468715Y-74916401D01*
X75445862Y-74982427D01*
X75390941Y-75025618D01*
X75344856Y-75034500D01*
X75222103Y-75034500D01*
X75221709Y-75034522D01*
X75221620Y-75034500D01*
X75218809Y-75034501D01*
X75218808Y-75033835D01*
X75153717Y-75018433D01*
X75127430Y-74998379D01*
X74693756Y-74564705D01*
X74666875Y-74524473D01*
X74657081Y-74500828D01*
X74657080Y-74500826D01*
X74657078Y-74500821D01*
X74608564Y-74428215D01*
X74569473Y-74369710D01*
X74457976Y-74258213D01*
X74457972Y-74258210D01*
X74326869Y-74170609D01*
X74326856Y-74170602D01*
X74181185Y-74110264D01*
X74181173Y-74110261D01*
X74026529Y-74079500D01*
X74026526Y-74079500D01*
X73868842Y-74079500D01*
X73868841Y-74079500D01*
X73866646Y-74079716D01*
X73865508Y-74079500D01*
X73862750Y-74079500D01*
X73862750Y-74078976D01*
X73798001Y-74066692D01*
X73747294Y-74018624D01*
X73730500Y-73956312D01*
X73730500Y-73695400D01*
X73750185Y-73628361D01*
X73751398Y-73626509D01*
X73826632Y-73513914D01*
X73836813Y-73489336D01*
X73879228Y-73386934D01*
X73902051Y-73331835D01*
X73924295Y-73220008D01*
X73940500Y-73138543D01*
X73940500Y-72941456D01*
X73902052Y-72748170D01*
X73902051Y-72748169D01*
X73902051Y-72748165D01*
X73898971Y-72740728D01*
X73826635Y-72566092D01*
X73826628Y-72566079D01*
X73717139Y-72402218D01*
X73717136Y-72402214D01*
X73577785Y-72262863D01*
X73577781Y-72262860D01*
X73413920Y-72153371D01*
X73413907Y-72153364D01*
X73231839Y-72077950D01*
X73231829Y-72077947D01*
X73038543Y-72039500D01*
X73038541Y-72039500D01*
X72841459Y-72039500D01*
X72841457Y-72039500D01*
X72648170Y-72077947D01*
X72648160Y-72077950D01*
X72466092Y-72153364D01*
X72466079Y-72153371D01*
X72302218Y-72262860D01*
X72302214Y-72262863D01*
X72162863Y-72402214D01*
X72162860Y-72402218D01*
X72053371Y-72566079D01*
X72053364Y-72566092D01*
X71977950Y-72748160D01*
X71977947Y-72748170D01*
X71939500Y-72941456D01*
X71939500Y-72941459D01*
X71939500Y-73138541D01*
X71939500Y-73138543D01*
X71939499Y-73138543D01*
X71977947Y-73331829D01*
X71977950Y-73331839D01*
X72053364Y-73513907D01*
X72053371Y-73513920D01*
X72162859Y-73677780D01*
X72162860Y-73677781D01*
X72162861Y-73677782D01*
X72193181Y-73708102D01*
X72226666Y-73769423D01*
X72229500Y-73795783D01*
X72229500Y-74005500D01*
X72209815Y-74072539D01*
X72157011Y-74118294D01*
X72105500Y-74129500D01*
X71226076Y-74129500D01*
X71197242Y-74135234D01*
X71197243Y-74135235D01*
X71081093Y-74158339D01*
X71081089Y-74158340D01*
X71005913Y-74189480D01*
X70944509Y-74214914D01*
X70944496Y-74214921D01*
X70895269Y-74247813D01*
X70821588Y-74297044D01*
X70821580Y-74297050D01*
X70378976Y-74739655D01*
X70317653Y-74773140D01*
X70247961Y-74768156D01*
X70192028Y-74726284D01*
X70168822Y-74671372D01*
X70143065Y-74508752D01*
X70070102Y-74284197D01*
X69962914Y-74073828D01*
X69902658Y-73990894D01*
X69902658Y-73990893D01*
X69203787Y-74689765D01*
X69192518Y-74647708D01*
X69120110Y-74522292D01*
X69017708Y-74419890D01*
X68892292Y-74347482D01*
X68850234Y-74336212D01*
X69549105Y-73637340D01*
X69549104Y-73637338D01*
X69466174Y-73577087D01*
X69255802Y-73469897D01*
X69031247Y-73396934D01*
X69031248Y-73396934D01*
X68798052Y-73360000D01*
X68561948Y-73360000D01*
X68328752Y-73396934D01*
X68104197Y-73469897D01*
X67893830Y-73577084D01*
X67810894Y-73637340D01*
X68509766Y-74336212D01*
X68467708Y-74347482D01*
X68342292Y-74419890D01*
X68239890Y-74522292D01*
X68167482Y-74647708D01*
X68156212Y-74689766D01*
X67457340Y-73990894D01*
X67397084Y-74073830D01*
X67289897Y-74284197D01*
X67216934Y-74508752D01*
X67180000Y-74741947D01*
X67180000Y-74978052D01*
X67216934Y-75211247D01*
X67289897Y-75435802D01*
X67397087Y-75646174D01*
X67457338Y-75729104D01*
X67457340Y-75729105D01*
X68156212Y-75030233D01*
X68167482Y-75072292D01*
X68239890Y-75197708D01*
X68342292Y-75300110D01*
X68467708Y-75372518D01*
X68509765Y-75383787D01*
X67810893Y-76082658D01*
X67893828Y-76142914D01*
X68104197Y-76250102D01*
X68328752Y-76323065D01*
X68328751Y-76323065D01*
X68428785Y-76338909D01*
X68491919Y-76368838D01*
X68528851Y-76428149D01*
X68527853Y-76498012D01*
X68497069Y-76549063D01*
X68399783Y-76646349D01*
X68397741Y-76649661D01*
X68395747Y-76651453D01*
X68395307Y-76652011D01*
X68395211Y-76651935D01*
X68345791Y-76696383D01*
X68276828Y-76707602D01*
X68212747Y-76679755D01*
X68186668Y-76649656D01*
X68184819Y-76646659D01*
X68184816Y-76646655D01*
X68060845Y-76522684D01*
X67911624Y-76430643D01*
X67911619Y-76430641D01*
X67745197Y-76375494D01*
X67745190Y-76375493D01*
X67642486Y-76365000D01*
X67505000Y-76365000D01*
X67505000Y-77466000D01*
X67485315Y-77533039D01*
X67432511Y-77578794D01*
X67381000Y-77590000D01*
X67255000Y-77590000D01*
X67255000Y-77716000D01*
X67235315Y-77783039D01*
X67182511Y-77828794D01*
X67131000Y-77840000D01*
X66167501Y-77840000D01*
X66167501Y-78114986D01*
X66177994Y-78217697D01*
X66233141Y-78384119D01*
X66233143Y-78384124D01*
X66325184Y-78533345D01*
X66384658Y-78592819D01*
X66418143Y-78654142D01*
X66413159Y-78723834D01*
X66371287Y-78779767D01*
X66305823Y-78804184D01*
X66296977Y-78804500D01*
X65738901Y-78804500D01*
X65672117Y-78810568D01*
X65672106Y-78810571D01*
X65518400Y-78858467D01*
X65391817Y-78934990D01*
X65324262Y-78952826D01*
X65257788Y-78931308D01*
X65213501Y-78877268D01*
X65209961Y-78867877D01*
X65199358Y-78835880D01*
X65199356Y-78835875D01*
X65107315Y-78686654D01*
X64983345Y-78562684D01*
X64834124Y-78470643D01*
X64834119Y-78470641D01*
X64667697Y-78415494D01*
X64667690Y-78415493D01*
X64564986Y-78405000D01*
X64290000Y-78405000D01*
X64290000Y-79368500D01*
X64270315Y-79435539D01*
X64217511Y-79481294D01*
X64166000Y-79492500D01*
X64040000Y-79492500D01*
X64040000Y-79618500D01*
X64020315Y-79685539D01*
X63967511Y-79731294D01*
X63916000Y-79742500D01*
X62815001Y-79742500D01*
X62815001Y-79879986D01*
X62825494Y-79982697D01*
X62880641Y-80149119D01*
X62880643Y-80149124D01*
X62972684Y-80298345D01*
X63096655Y-80422316D01*
X63096659Y-80422319D01*
X63099656Y-80424168D01*
X63101279Y-80425972D01*
X63102323Y-80426798D01*
X63102181Y-80426976D01*
X63146381Y-80476116D01*
X63157602Y-80545079D01*
X63129759Y-80609161D01*
X63099661Y-80635241D01*
X63096349Y-80637283D01*
X63096343Y-80637288D01*
X62972288Y-80761343D01*
X62967807Y-80767011D01*
X62965984Y-80765569D01*
X62922335Y-80804825D01*
X62868752Y-80817000D01*
X62253576Y-80817000D01*
X62224742Y-80822734D01*
X62224743Y-80822735D01*
X62108592Y-80845839D01*
X62108586Y-80845841D01*
X62062537Y-80864916D01*
X61972008Y-80902414D01*
X61971998Y-80902419D01*
X61905208Y-80947048D01*
X61849082Y-80984549D01*
X61849079Y-80984552D01*
X61380451Y-81453181D01*
X61319128Y-81486666D01*
X61292770Y-81489500D01*
X59874500Y-81489500D01*
X59807461Y-81469815D01*
X59761706Y-81417011D01*
X59750500Y-81365500D01*
X59750500Y-81054610D01*
X59770185Y-80987571D01*
X59775228Y-80980641D01*
X59777136Y-80977784D01*
X59777139Y-80977782D01*
X59886632Y-80813914D01*
X59889066Y-80808039D01*
X59929438Y-80710570D01*
X59962051Y-80631835D01*
X59985585Y-80513523D01*
X60000500Y-80438543D01*
X60000500Y-80241456D01*
X59962052Y-80048170D01*
X59962051Y-80048169D01*
X59962051Y-80048165D01*
X59938503Y-79991315D01*
X59886635Y-79866092D01*
X59886628Y-79866079D01*
X59777139Y-79702218D01*
X59777136Y-79702214D01*
X59637785Y-79562863D01*
X59637781Y-79562860D01*
X59473920Y-79453371D01*
X59473907Y-79453364D01*
X59291839Y-79377950D01*
X59291829Y-79377947D01*
X59098543Y-79339500D01*
X59098541Y-79339500D01*
X58901459Y-79339500D01*
X58901457Y-79339500D01*
X58708170Y-79377947D01*
X58708160Y-79377950D01*
X58526092Y-79453364D01*
X58526079Y-79453371D01*
X58362218Y-79562860D01*
X58362214Y-79562863D01*
X58222863Y-79702214D01*
X58222860Y-79702218D01*
X58113371Y-79866079D01*
X58113364Y-79866092D01*
X58037950Y-80048160D01*
X58037947Y-80048170D01*
X57999500Y-80241456D01*
X57999500Y-80241459D01*
X57999500Y-80438541D01*
X57999500Y-80438543D01*
X57999499Y-80438543D01*
X58037947Y-80631829D01*
X58037950Y-80631839D01*
X58113364Y-80813907D01*
X58113371Y-80813920D01*
X58226245Y-80982847D01*
X58224717Y-80983867D01*
X58248666Y-81040255D01*
X58249500Y-81054610D01*
X58249500Y-81365500D01*
X58229815Y-81432539D01*
X58177011Y-81478294D01*
X58125500Y-81489500D01*
X56598103Y-81489500D01*
X56531064Y-81469815D01*
X56485309Y-81417011D01*
X56475365Y-81347853D01*
X56497327Y-81299762D01*
X56499020Y-81282572D01*
X55990001Y-80773553D01*
X55990000Y-80773553D01*
X55480978Y-81282573D01*
X55482759Y-81300657D01*
X55495591Y-81316011D01*
X55504298Y-81385336D01*
X55474143Y-81448363D01*
X55414700Y-81485082D01*
X55381895Y-81489500D01*
X54537229Y-81489500D01*
X54470190Y-81469815D01*
X54449548Y-81453181D01*
X53536819Y-80540451D01*
X53522115Y-80513523D01*
X53505523Y-80487705D01*
X53504631Y-80481504D01*
X53503334Y-80479128D01*
X53500500Y-80452770D01*
X53500500Y-80321504D01*
X54990000Y-80321504D01*
X54990000Y-80518495D01*
X55028427Y-80711681D01*
X55028430Y-80711693D01*
X55103808Y-80893673D01*
X55103809Y-80893675D01*
X55127425Y-80929019D01*
X55636446Y-80420000D01*
X55636446Y-80419999D01*
X56343553Y-80419999D01*
X56343553Y-80420001D01*
X56852572Y-80929020D01*
X56852573Y-80929019D01*
X56876187Y-80893680D01*
X56876190Y-80893676D01*
X56951569Y-80711693D01*
X56951572Y-80711681D01*
X56989999Y-80518495D01*
X56990000Y-80518492D01*
X56990000Y-80321508D01*
X56989999Y-80321504D01*
X56951572Y-80128318D01*
X56951569Y-80128306D01*
X56876192Y-79946328D01*
X56852572Y-79910979D01*
X56343553Y-80419999D01*
X55636446Y-80419999D01*
X55127426Y-79910978D01*
X55127426Y-79910979D01*
X55103813Y-79946318D01*
X55103809Y-79946325D01*
X55028429Y-80128310D01*
X55028427Y-80128318D01*
X54990000Y-80321504D01*
X53500500Y-80321504D01*
X53500500Y-79557426D01*
X55480978Y-79557426D01*
X55990000Y-80066446D01*
X55990001Y-80066446D01*
X56499020Y-79557426D01*
X56463675Y-79533809D01*
X56463673Y-79533808D01*
X56281693Y-79458430D01*
X56281681Y-79458427D01*
X56088495Y-79420000D01*
X55891504Y-79420000D01*
X55698318Y-79458427D01*
X55698310Y-79458429D01*
X55516325Y-79533809D01*
X55516318Y-79533813D01*
X55480979Y-79557426D01*
X55480978Y-79557426D01*
X53500500Y-79557426D01*
X53500500Y-79105013D01*
X62815000Y-79105013D01*
X62815000Y-79242500D01*
X63790000Y-79242500D01*
X63790000Y-78405000D01*
X63515029Y-78405000D01*
X63515012Y-78405001D01*
X63412302Y-78415494D01*
X63245880Y-78470641D01*
X63245875Y-78470643D01*
X63096654Y-78562684D01*
X62972684Y-78686654D01*
X62880643Y-78835875D01*
X62880641Y-78835880D01*
X62825494Y-79002302D01*
X62825493Y-79002309D01*
X62815000Y-79105013D01*
X53500500Y-79105013D01*
X53500500Y-68231947D01*
X54310000Y-68231947D01*
X54310000Y-68468052D01*
X54346934Y-68701247D01*
X54419897Y-68925802D01*
X54527087Y-69136174D01*
X54587338Y-69219104D01*
X54587340Y-69219105D01*
X55286212Y-68520233D01*
X55297482Y-68562292D01*
X55369890Y-68687708D01*
X55472292Y-68790110D01*
X55597708Y-68862518D01*
X55639765Y-68873787D01*
X54940893Y-69572658D01*
X55023828Y-69632914D01*
X55234197Y-69740102D01*
X55458752Y-69813065D01*
X55458751Y-69813065D01*
X55691948Y-69850000D01*
X55928052Y-69850000D01*
X56161247Y-69813065D01*
X56385802Y-69740102D01*
X56596163Y-69632918D01*
X56596169Y-69632914D01*
X56679104Y-69572658D01*
X56679105Y-69572658D01*
X55980233Y-68873787D01*
X56022292Y-68862518D01*
X56147708Y-68790110D01*
X56250110Y-68687708D01*
X56322518Y-68562292D01*
X56333787Y-68520234D01*
X57032658Y-69219105D01*
X57032658Y-69219104D01*
X57092914Y-69136169D01*
X57092918Y-69136163D01*
X57200102Y-68925802D01*
X57273065Y-68701247D01*
X57310000Y-68468052D01*
X57310000Y-68231947D01*
X57273065Y-67998752D01*
X57200102Y-67774197D01*
X57092914Y-67563828D01*
X57032658Y-67480894D01*
X57032658Y-67480893D01*
X56333787Y-68179765D01*
X56322518Y-68137708D01*
X56250110Y-68012292D01*
X56147708Y-67909890D01*
X56022292Y-67837482D01*
X55980234Y-67826212D01*
X56679105Y-67127340D01*
X56679104Y-67127338D01*
X56596174Y-67067087D01*
X56385802Y-66959897D01*
X56161247Y-66886934D01*
X56161248Y-66886934D01*
X55928052Y-66850000D01*
X55691948Y-66850000D01*
X55458752Y-66886934D01*
X55234197Y-66959897D01*
X55023830Y-67067084D01*
X54940894Y-67127340D01*
X55639766Y-67826212D01*
X55597708Y-67837482D01*
X55472292Y-67909890D01*
X55369890Y-68012292D01*
X55297482Y-68137708D01*
X55286212Y-68179766D01*
X54587340Y-67480894D01*
X54527084Y-67563830D01*
X54419897Y-67774197D01*
X54346934Y-67998752D01*
X54310000Y-68231947D01*
X53500500Y-68231947D01*
X53500500Y-64327351D01*
X53520185Y-64260312D01*
X53572989Y-64214557D01*
X53642147Y-64204613D01*
X53693390Y-64224248D01*
X53754505Y-64265084D01*
X53754507Y-64265085D01*
X53754511Y-64265087D01*
X53830497Y-64296561D01*
X53891087Y-64321658D01*
X53891091Y-64321658D01*
X53891092Y-64321659D01*
X54036079Y-64350500D01*
X54036082Y-64350500D01*
X55002210Y-64350500D01*
X55069249Y-64370185D01*
X55102044Y-64403592D01*
X55102807Y-64402989D01*
X55107288Y-64408656D01*
X55231344Y-64532712D01*
X55380666Y-64624814D01*
X55547203Y-64679999D01*
X55649991Y-64690500D01*
X56650008Y-64690499D01*
X56650016Y-64690498D01*
X56650019Y-64690498D01*
X56706302Y-64684748D01*
X56752797Y-64679999D01*
X56917420Y-64625447D01*
X56987248Y-64623046D01*
X57044105Y-64655473D01*
X58471586Y-66082954D01*
X58501058Y-66102645D01*
X58545270Y-66132186D01*
X58594505Y-66165084D01*
X58594506Y-66165084D01*
X58594507Y-66165085D01*
X58594509Y-66165086D01*
X58663822Y-66193796D01*
X58731087Y-66221658D01*
X58731091Y-66221658D01*
X58731092Y-66221659D01*
X58876079Y-66250500D01*
X58876082Y-66250500D01*
X58876083Y-66250500D01*
X59023918Y-66250500D01*
X59372866Y-66250500D01*
X59439905Y-66270185D01*
X59478403Y-66309401D01*
X59527288Y-66388656D01*
X59651344Y-66512712D01*
X59800666Y-66604814D01*
X59949298Y-66654066D01*
X60006742Y-66693838D01*
X60033565Y-66758353D01*
X60021250Y-66827129D01*
X59973707Y-66878329D01*
X59948612Y-66889702D01*
X59734003Y-66959433D01*
X59523566Y-67066657D01*
X59414550Y-67145862D01*
X59332490Y-67205483D01*
X59332488Y-67205485D01*
X59332487Y-67205485D01*
X59165485Y-67372487D01*
X59165485Y-67372488D01*
X59165483Y-67372490D01*
X59105862Y-67454550D01*
X59026657Y-67563566D01*
X58919433Y-67774003D01*
X58846446Y-67998631D01*
X58809500Y-68231902D01*
X58809500Y-68468097D01*
X58846446Y-68701368D01*
X58919433Y-68925996D01*
X59026322Y-69135776D01*
X59026657Y-69136433D01*
X59165483Y-69327510D01*
X59332490Y-69494517D01*
X59437124Y-69570538D01*
X59523568Y-69633344D01*
X59597377Y-69670951D01*
X59641794Y-69693582D01*
X59692590Y-69741556D01*
X59709500Y-69804067D01*
X59709500Y-73395931D01*
X59689815Y-73462970D01*
X59641796Y-73506415D01*
X59523568Y-73566655D01*
X59398140Y-73657785D01*
X59332490Y-73705483D01*
X59332488Y-73705485D01*
X59332487Y-73705485D01*
X59165485Y-73872487D01*
X59165485Y-73872488D01*
X59165483Y-73872490D01*
X59138231Y-73909999D01*
X59026657Y-74063566D01*
X58998772Y-74118294D01*
X58967597Y-74179480D01*
X58966417Y-74181795D01*
X58918442Y-74232591D01*
X58855932Y-74249500D01*
X58540942Y-74249500D01*
X58388214Y-74290423D01*
X58376747Y-74297044D01*
X58365505Y-74303535D01*
X58308394Y-74336507D01*
X58251285Y-74369479D01*
X58251282Y-74369481D01*
X58139478Y-74481286D01*
X57515359Y-75105404D01*
X57454036Y-75138889D01*
X57384344Y-75133905D01*
X57328411Y-75092033D01*
X57303994Y-75026569D01*
X57305205Y-74998324D01*
X57310000Y-74968050D01*
X57310000Y-74731947D01*
X57273065Y-74498752D01*
X57200102Y-74274197D01*
X57092914Y-74063828D01*
X57032658Y-73980894D01*
X57032658Y-73980893D01*
X56333787Y-74679765D01*
X56322518Y-74637708D01*
X56250110Y-74512292D01*
X56147708Y-74409890D01*
X56022292Y-74337482D01*
X55980234Y-74326212D01*
X56679105Y-73627340D01*
X56679104Y-73627338D01*
X56596174Y-73567087D01*
X56385802Y-73459897D01*
X56161247Y-73386934D01*
X56161248Y-73386934D01*
X55928052Y-73350000D01*
X55691948Y-73350000D01*
X55458752Y-73386934D01*
X55234197Y-73459897D01*
X55023830Y-73567084D01*
X54940894Y-73627340D01*
X55639766Y-74326212D01*
X55597708Y-74337482D01*
X55472292Y-74409890D01*
X55369890Y-74512292D01*
X55297482Y-74637708D01*
X55286212Y-74679766D01*
X54587340Y-73980894D01*
X54527084Y-74063830D01*
X54419897Y-74274197D01*
X54346934Y-74498752D01*
X54310000Y-74731947D01*
X54310000Y-74968052D01*
X54346934Y-75201247D01*
X54419897Y-75425802D01*
X54527087Y-75636174D01*
X54587338Y-75719104D01*
X54587340Y-75719105D01*
X55286212Y-75020233D01*
X55297482Y-75062292D01*
X55369890Y-75187708D01*
X55472292Y-75290110D01*
X55597708Y-75362518D01*
X55639765Y-75373787D01*
X54940893Y-76072658D01*
X55023828Y-76132914D01*
X55234197Y-76240102D01*
X55458752Y-76313065D01*
X55458751Y-76313065D01*
X55691948Y-76350000D01*
X55928052Y-76350000D01*
X55958326Y-76345205D01*
X56027619Y-76354159D01*
X56081071Y-76399156D01*
X56101711Y-76465907D01*
X56082986Y-76533221D01*
X56065405Y-76555359D01*
X55817584Y-76803181D01*
X55756261Y-76836666D01*
X55729903Y-76839500D01*
X55621457Y-76839500D01*
X55428170Y-76877947D01*
X55428160Y-76877950D01*
X55246092Y-76953364D01*
X55246079Y-76953371D01*
X55082218Y-77062860D01*
X55082214Y-77062863D01*
X54942863Y-77202214D01*
X54942860Y-77202218D01*
X54833371Y-77366079D01*
X54833364Y-77366092D01*
X54757950Y-77548160D01*
X54757947Y-77548170D01*
X54719500Y-77741456D01*
X54719500Y-77741459D01*
X54719500Y-77938541D01*
X54719500Y-77938543D01*
X54719499Y-77938543D01*
X54757947Y-78131829D01*
X54757950Y-78131839D01*
X54833364Y-78313907D01*
X54833371Y-78313920D01*
X54942860Y-78477781D01*
X54942863Y-78477785D01*
X55082214Y-78617136D01*
X55082218Y-78617139D01*
X55246079Y-78726628D01*
X55246092Y-78726635D01*
X55428160Y-78802049D01*
X55428165Y-78802051D01*
X55428169Y-78802051D01*
X55428170Y-78802052D01*
X55621456Y-78840500D01*
X55621459Y-78840500D01*
X55818543Y-78840500D01*
X55961572Y-78812049D01*
X56011835Y-78802051D01*
X56152655Y-78743721D01*
X56193907Y-78726635D01*
X56193907Y-78726634D01*
X56193914Y-78726632D01*
X56357782Y-78617139D01*
X56497139Y-78477782D01*
X56606632Y-78313914D01*
X56682051Y-78131835D01*
X56694632Y-78068582D01*
X56720500Y-77938543D01*
X56720500Y-77741456D01*
X56709751Y-77687420D01*
X56715978Y-77617828D01*
X56743687Y-77575547D01*
X57770171Y-76549063D01*
X58789911Y-75529323D01*
X58851232Y-75495840D01*
X58920924Y-75500824D01*
X58976857Y-75542696D01*
X58988072Y-75560707D01*
X59026657Y-75636433D01*
X59165483Y-75827510D01*
X59332490Y-75994517D01*
X59523567Y-76133343D01*
X59622991Y-76184002D01*
X59734003Y-76240566D01*
X59734005Y-76240566D01*
X59734008Y-76240568D01*
X59790942Y-76259067D01*
X59958631Y-76313553D01*
X60191903Y-76350500D01*
X60191908Y-76350500D01*
X60428097Y-76350500D01*
X60661368Y-76313553D01*
X60663692Y-76312798D01*
X60885992Y-76240568D01*
X61096433Y-76133343D01*
X61287510Y-75994517D01*
X61454517Y-75827510D01*
X61593343Y-75636433D01*
X61699791Y-75427517D01*
X61700566Y-75425996D01*
X61700566Y-75425995D01*
X61700568Y-75425992D01*
X61773553Y-75201368D01*
X61790931Y-75091647D01*
X61810500Y-74968097D01*
X61810500Y-74731902D01*
X61773553Y-74498631D01*
X61731664Y-74369711D01*
X61700568Y-74274008D01*
X61700566Y-74274005D01*
X61700566Y-74274003D01*
X61629859Y-74135234D01*
X61593343Y-74063567D01*
X61454517Y-73872490D01*
X61287510Y-73705483D01*
X61178812Y-73626509D01*
X61096431Y-73566655D01*
X60978204Y-73506415D01*
X60927409Y-73458441D01*
X60910500Y-73395931D01*
X60910500Y-69804067D01*
X60930185Y-69737028D01*
X60978205Y-69693582D01*
X61096433Y-69633343D01*
X61287510Y-69494517D01*
X61454517Y-69327510D01*
X61593343Y-69136433D01*
X61653583Y-69018206D01*
X61701558Y-68967410D01*
X61764068Y-68950501D01*
X61899054Y-68950501D01*
X61899057Y-68950501D01*
X62051785Y-68909577D01*
X62101904Y-68880639D01*
X62188716Y-68830520D01*
X62300520Y-68718716D01*
X62300520Y-68718714D01*
X62310728Y-68708507D01*
X62310729Y-68708504D01*
X62488499Y-68530735D01*
X62549821Y-68497251D01*
X62619513Y-68502235D01*
X62675446Y-68544107D01*
X62698652Y-68599019D01*
X62716446Y-68711368D01*
X62789433Y-68935996D01*
X62862467Y-69079331D01*
X62896657Y-69146433D01*
X63035483Y-69337510D01*
X63202490Y-69504517D01*
X63302652Y-69577289D01*
X63393568Y-69643344D01*
X63447751Y-69670951D01*
X63511794Y-69703582D01*
X63562590Y-69751556D01*
X63579500Y-69814067D01*
X63579500Y-73405931D01*
X63559815Y-73472970D01*
X63511796Y-73516415D01*
X63393568Y-73576655D01*
X63281904Y-73657785D01*
X63202490Y-73715483D01*
X63202488Y-73715485D01*
X63202487Y-73715485D01*
X63035485Y-73882487D01*
X63035485Y-73882488D01*
X63035483Y-73882490D01*
X62998596Y-73933261D01*
X62896657Y-74073566D01*
X62789433Y-74284003D01*
X62716446Y-74508631D01*
X62679500Y-74741902D01*
X62679500Y-74978097D01*
X62716447Y-75211369D01*
X62716447Y-75211372D01*
X62757450Y-75337564D01*
X62759445Y-75407405D01*
X62727200Y-75463563D01*
X61047584Y-77143181D01*
X60986261Y-77176666D01*
X60959903Y-77179500D01*
X60045783Y-77179500D01*
X59978744Y-77159815D01*
X59958106Y-77143185D01*
X59887782Y-77072861D01*
X59887781Y-77072860D01*
X59887780Y-77072859D01*
X59723920Y-76963371D01*
X59723907Y-76963364D01*
X59541839Y-76887950D01*
X59541829Y-76887947D01*
X59348543Y-76849500D01*
X59348541Y-76849500D01*
X59151459Y-76849500D01*
X59151457Y-76849500D01*
X58958170Y-76887947D01*
X58958160Y-76887950D01*
X58776092Y-76963364D01*
X58776079Y-76963371D01*
X58612218Y-77072860D01*
X58612214Y-77072863D01*
X58472863Y-77212214D01*
X58472860Y-77212218D01*
X58363371Y-77376079D01*
X58363364Y-77376092D01*
X58287950Y-77558160D01*
X58287947Y-77558170D01*
X58249500Y-77751456D01*
X58249500Y-77751459D01*
X58249500Y-77948541D01*
X58249500Y-77948543D01*
X58249499Y-77948543D01*
X58287947Y-78141829D01*
X58287950Y-78141839D01*
X58363364Y-78323907D01*
X58363371Y-78323920D01*
X58472860Y-78487781D01*
X58472863Y-78487785D01*
X58612214Y-78627136D01*
X58612218Y-78627139D01*
X58776079Y-78736628D01*
X58776092Y-78736635D01*
X58954592Y-78810571D01*
X58958165Y-78812051D01*
X58958169Y-78812051D01*
X58958170Y-78812052D01*
X59151456Y-78850500D01*
X59151459Y-78850500D01*
X59348543Y-78850500D01*
X59478582Y-78824632D01*
X59541835Y-78812051D01*
X59723914Y-78736632D01*
X59887782Y-78627139D01*
X60027139Y-78487782D01*
X60061998Y-78435610D01*
X60115609Y-78390805D01*
X60165101Y-78380500D01*
X61173331Y-78380500D01*
X61173347Y-78380501D01*
X61180943Y-78380501D01*
X61339054Y-78380501D01*
X61339057Y-78380501D01*
X61491785Y-78339577D01*
X61578387Y-78289577D01*
X61628716Y-78260520D01*
X61740520Y-78148716D01*
X61740520Y-78148714D01*
X61750724Y-78138511D01*
X61750728Y-78138506D01*
X62824220Y-77065013D01*
X66167500Y-77065013D01*
X66167500Y-77340000D01*
X67005000Y-77340000D01*
X67005000Y-76365000D01*
X66867527Y-76365000D01*
X66867512Y-76365001D01*
X66764802Y-76375494D01*
X66598380Y-76430641D01*
X66598375Y-76430643D01*
X66449154Y-76522684D01*
X66325184Y-76646654D01*
X66233143Y-76795875D01*
X66233141Y-76795880D01*
X66177994Y-76962302D01*
X66177993Y-76962309D01*
X66167500Y-77065013D01*
X62824220Y-77065013D01*
X63576437Y-76312796D01*
X63637758Y-76279313D01*
X63702433Y-76282547D01*
X63828632Y-76323553D01*
X63916110Y-76337408D01*
X64061903Y-76360500D01*
X64061908Y-76360500D01*
X64298097Y-76360500D01*
X64531368Y-76323553D01*
X64532870Y-76323065D01*
X64755992Y-76250568D01*
X64966433Y-76143343D01*
X65157510Y-76004517D01*
X65324517Y-75837510D01*
X65463343Y-75646433D01*
X65570568Y-75435992D01*
X65643553Y-75211368D01*
X65649562Y-75173427D01*
X65680500Y-74978097D01*
X65680500Y-74741902D01*
X65643553Y-74508631D01*
X65603776Y-74386211D01*
X65570568Y-74284008D01*
X65570566Y-74284005D01*
X65570566Y-74284003D01*
X65491842Y-74129500D01*
X65463343Y-74073567D01*
X65324517Y-73882490D01*
X65157510Y-73715483D01*
X64971047Y-73580009D01*
X64966431Y-73576655D01*
X64848204Y-73516415D01*
X64797409Y-73468441D01*
X64780500Y-73405931D01*
X64780500Y-70420013D01*
X74730000Y-70420013D01*
X74730000Y-70570000D01*
X75680000Y-70570000D01*
X75680000Y-69720000D01*
X75430029Y-69720000D01*
X75430012Y-69720001D01*
X75327302Y-69730494D01*
X75160880Y-69785641D01*
X75160875Y-69785643D01*
X75011654Y-69877684D01*
X74887684Y-70001654D01*
X74795643Y-70150875D01*
X74795641Y-70150880D01*
X74740494Y-70317302D01*
X74740493Y-70317309D01*
X74730000Y-70420013D01*
X64780500Y-70420013D01*
X64780500Y-69814067D01*
X64800185Y-69747028D01*
X64848205Y-69703582D01*
X64966433Y-69643343D01*
X65157510Y-69504517D01*
X65324517Y-69337510D01*
X65463343Y-69146433D01*
X65523583Y-69028204D01*
X65571558Y-68977409D01*
X65634068Y-68960500D01*
X66083331Y-68960500D01*
X66083347Y-68960501D01*
X66090943Y-68960501D01*
X66249054Y-68960501D01*
X66249057Y-68960501D01*
X66401785Y-68919577D01*
X66488387Y-68869577D01*
X66538716Y-68840520D01*
X66650520Y-68728716D01*
X66650520Y-68728714D01*
X66660724Y-68718511D01*
X66660728Y-68718506D01*
X66969797Y-68409436D01*
X67031116Y-68375954D01*
X67100807Y-68380938D01*
X67156741Y-68422809D01*
X67179947Y-68477722D01*
X67216934Y-68711247D01*
X67289897Y-68935802D01*
X67397087Y-69146174D01*
X67457338Y-69229104D01*
X67457340Y-69229105D01*
X68156212Y-68530233D01*
X68167482Y-68572292D01*
X68239890Y-68697708D01*
X68342292Y-68800110D01*
X68467708Y-68872518D01*
X68509765Y-68883787D01*
X67810893Y-69582658D01*
X67893828Y-69642914D01*
X68104197Y-69750102D01*
X68328752Y-69823065D01*
X68328751Y-69823065D01*
X68561948Y-69860000D01*
X68798052Y-69860000D01*
X69031247Y-69823065D01*
X69255802Y-69750102D01*
X69466163Y-69642918D01*
X69466169Y-69642914D01*
X69549104Y-69582658D01*
X69549105Y-69582658D01*
X68850233Y-68883787D01*
X68892292Y-68872518D01*
X69017708Y-68800110D01*
X69120110Y-68697708D01*
X69192518Y-68572292D01*
X69203787Y-68530234D01*
X69902658Y-69229105D01*
X69902658Y-69229104D01*
X69962914Y-69146169D01*
X69962918Y-69146163D01*
X70070102Y-68935802D01*
X70143065Y-68711247D01*
X70180000Y-68478052D01*
X70180000Y-68241947D01*
X70143065Y-68008752D01*
X70070102Y-67784197D01*
X69962914Y-67573828D01*
X69902658Y-67490894D01*
X69902658Y-67490893D01*
X69203787Y-68189765D01*
X69192518Y-68147708D01*
X69120110Y-68022292D01*
X69017708Y-67919890D01*
X68892292Y-67847482D01*
X68850233Y-67836212D01*
X69549105Y-67137340D01*
X69549104Y-67137338D01*
X69466174Y-67077087D01*
X69255802Y-66969897D01*
X69031247Y-66896934D01*
X69031248Y-66896934D01*
X68798052Y-66860000D01*
X68794295Y-66860000D01*
X68727256Y-66840315D01*
X68681501Y-66787511D01*
X68671557Y-66718353D01*
X68700582Y-66654797D01*
X68729198Y-66630461D01*
X68733656Y-66627712D01*
X68857712Y-66503656D01*
X68949814Y-66354334D01*
X69004999Y-66187797D01*
X69015500Y-66085009D01*
X69015499Y-65034992D01*
X69004999Y-64932203D01*
X68949814Y-64765666D01*
X68857712Y-64616344D01*
X68733656Y-64492288D01*
X68598066Y-64408656D01*
X68586904Y-64401771D01*
X68540180Y-64349823D01*
X68528001Y-64296232D01*
X68528001Y-64138444D01*
X68508308Y-64064951D01*
X68487077Y-63985716D01*
X68462136Y-63942517D01*
X68408024Y-63848790D01*
X68408018Y-63848782D01*
X67147590Y-62588355D01*
X67147588Y-62588352D01*
X67028717Y-62469481D01*
X67028709Y-62469475D01*
X66923366Y-62408656D01*
X66923365Y-62408655D01*
X66923365Y-62408656D01*
X66891785Y-62390423D01*
X66739057Y-62349499D01*
X66580943Y-62349499D01*
X66573347Y-62349499D01*
X66573331Y-62349500D01*
X64949766Y-62349500D01*
X64882727Y-62329815D01*
X64880875Y-62328602D01*
X64749185Y-62240609D01*
X64749172Y-62240602D01*
X64603499Y-62180263D01*
X64603491Y-62180261D01*
X64560497Y-62171709D01*
X64498586Y-62139324D01*
X64497008Y-62137773D01*
X60476819Y-58117584D01*
X60443334Y-58056261D01*
X60440500Y-58029903D01*
X60440500Y-53270945D01*
X60440499Y-53270941D01*
X60411323Y-53162049D01*
X60411323Y-53162048D01*
X60399577Y-53118216D01*
X60399577Y-53118215D01*
X60377393Y-53079792D01*
X60359904Y-53049500D01*
X60320520Y-52981284D01*
X60208716Y-52869480D01*
X60204385Y-52865149D01*
X60204374Y-52865139D01*
X60076818Y-52737583D01*
X60043333Y-52676260D01*
X60040499Y-52649902D01*
X60040499Y-52102129D01*
X60040498Y-52102123D01*
X60040497Y-52102116D01*
X60034091Y-52042517D01*
X59983796Y-51907669D01*
X59983794Y-51907666D01*
X59980696Y-51899360D01*
X59982426Y-51898714D01*
X59969902Y-51841163D01*
X59981691Y-51801011D01*
X59980696Y-51800640D01*
X59983794Y-51792333D01*
X59983796Y-51792331D01*
X60034091Y-51657483D01*
X60040500Y-51597873D01*
X60040499Y-50754499D01*
X60060183Y-50687461D01*
X60112987Y-50641706D01*
X60164499Y-50630500D01*
X74915500Y-50630500D01*
X74982539Y-50650185D01*
G37*
G04 #@! TD.AperFunction*
G04 #@! TA.AperFunction,Conductor*
G36*
X82985202Y-72647015D02*
G01*
X82991670Y-72653037D01*
X83079361Y-72740728D01*
X83223181Y-72884548D01*
X83256666Y-72945871D01*
X83259500Y-72972229D01*
X83259500Y-75390923D01*
X83239815Y-75457962D01*
X83187011Y-75503717D01*
X83117853Y-75513661D01*
X83054297Y-75484636D01*
X83047819Y-75478604D01*
X82927466Y-75358251D01*
X82927462Y-75358248D01*
X82763684Y-75248814D01*
X82763671Y-75248807D01*
X82581691Y-75173429D01*
X82581683Y-75173427D01*
X82540000Y-75165135D01*
X82540000Y-75968011D01*
X82530060Y-75950795D01*
X82474205Y-75894940D01*
X82405796Y-75855444D01*
X82329496Y-75835000D01*
X82250504Y-75835000D01*
X82174204Y-75855444D01*
X82105795Y-75894940D01*
X82049940Y-75950795D01*
X82040000Y-75968011D01*
X82040000Y-75165136D01*
X82039999Y-75165135D01*
X81998316Y-75173427D01*
X81998313Y-75173428D01*
X81949612Y-75193600D01*
X81880142Y-75201067D01*
X81827850Y-75178305D01*
X81712089Y-75091647D01*
X81712086Y-75091645D01*
X81577379Y-75041403D01*
X81577372Y-75041401D01*
X81517844Y-75035000D01*
X81420000Y-75035000D01*
X81420000Y-75986000D01*
X81400315Y-76053039D01*
X81347511Y-76098794D01*
X81296000Y-76110000D01*
X81294499Y-76110000D01*
X81227460Y-76090315D01*
X81181705Y-76037511D01*
X81170499Y-75986000D01*
X81170499Y-75487129D01*
X81170498Y-75487123D01*
X81169582Y-75478604D01*
X81164091Y-75427517D01*
X81163522Y-75425992D01*
X81128318Y-75331604D01*
X81120500Y-75288271D01*
X81120500Y-74938746D01*
X81129939Y-74891293D01*
X81149737Y-74843497D01*
X81180500Y-74688842D01*
X81180500Y-74531158D01*
X81180500Y-74531155D01*
X81180499Y-74531153D01*
X81160019Y-74428190D01*
X81166246Y-74358599D01*
X81209109Y-74303421D01*
X81274999Y-74280177D01*
X81281636Y-74279999D01*
X81429999Y-74279999D01*
X81930000Y-74279999D01*
X82079972Y-74279999D01*
X82079986Y-74279998D01*
X82182697Y-74269505D01*
X82349119Y-74214358D01*
X82349124Y-74214356D01*
X82498345Y-74122315D01*
X82622315Y-73998345D01*
X82714356Y-73849124D01*
X82714358Y-73849119D01*
X82769505Y-73682697D01*
X82769506Y-73682690D01*
X82779999Y-73579986D01*
X82780000Y-73579973D01*
X82780000Y-73330000D01*
X81930000Y-73330000D01*
X81930000Y-74279999D01*
X81429999Y-74279999D01*
X81430000Y-74279998D01*
X81430000Y-73204000D01*
X81449685Y-73136961D01*
X81502489Y-73091206D01*
X81554000Y-73080000D01*
X81680000Y-73080000D01*
X81680000Y-72954000D01*
X81699685Y-72886961D01*
X81752489Y-72841206D01*
X81804000Y-72830000D01*
X82779999Y-72830000D01*
X82779999Y-72740728D01*
X82799684Y-72673689D01*
X82852488Y-72627934D01*
X82921646Y-72617990D01*
X82985202Y-72647015D01*
G37*
G04 #@! TD.AperFunction*
G04 #@! TA.AperFunction,Conductor*
G36*
X79915703Y-59265384D02*
G01*
X79922181Y-59271416D01*
X79986241Y-59335476D01*
X80019726Y-59396799D01*
X80016492Y-59461473D01*
X80002753Y-59503757D01*
X79969500Y-59713713D01*
X79969500Y-59926286D01*
X80002208Y-60132799D01*
X80002754Y-60136243D01*
X80055746Y-60299336D01*
X80068444Y-60338414D01*
X80164951Y-60527820D01*
X80289890Y-60699786D01*
X80440213Y-60850109D01*
X80612179Y-60975048D01*
X80612181Y-60975049D01*
X80612184Y-60975051D01*
X80621493Y-60979794D01*
X80672290Y-61027766D01*
X80689087Y-61095587D01*
X80666552Y-61161722D01*
X80621505Y-61200760D01*
X80612446Y-61205376D01*
X80612440Y-61205380D01*
X80558282Y-61244727D01*
X80558282Y-61244728D01*
X81190591Y-61877037D01*
X81127007Y-61894075D01*
X81012993Y-61959901D01*
X80919901Y-62052993D01*
X80854075Y-62167007D01*
X80837037Y-62230591D01*
X80204728Y-61598282D01*
X80204727Y-61598282D01*
X80165380Y-61652439D01*
X80068904Y-61841782D01*
X80003242Y-62043869D01*
X80003242Y-62043872D01*
X79970000Y-62253753D01*
X79970000Y-62466246D01*
X80003242Y-62676127D01*
X80003242Y-62676130D01*
X80068904Y-62878217D01*
X80165375Y-63067550D01*
X80204728Y-63121716D01*
X80837037Y-62489408D01*
X80854075Y-62552993D01*
X80919901Y-62667007D01*
X81012993Y-62760099D01*
X81127007Y-62825925D01*
X81190590Y-62842962D01*
X80520370Y-63513181D01*
X80459047Y-63546666D01*
X80432698Y-63549500D01*
X80422134Y-63549500D01*
X80422123Y-63549501D01*
X80362516Y-63555908D01*
X80227671Y-63606202D01*
X80227664Y-63606206D01*
X80112455Y-63692452D01*
X80112452Y-63692455D01*
X80026206Y-63807664D01*
X80026202Y-63807671D01*
X79975908Y-63942517D01*
X79969501Y-64002116D01*
X79969500Y-64002135D01*
X79969500Y-65607769D01*
X79949815Y-65674808D01*
X79933181Y-65695450D01*
X79487052Y-66141578D01*
X79487049Y-66141581D01*
X79437812Y-66215271D01*
X79404921Y-66264496D01*
X79404914Y-66264508D01*
X79348342Y-66401086D01*
X79348340Y-66401092D01*
X79319500Y-66546079D01*
X79319500Y-67156042D01*
X79299815Y-67223081D01*
X79260598Y-67261580D01*
X79251344Y-67267287D01*
X79127289Y-67391342D01*
X79035187Y-67540663D01*
X79035185Y-67540668D01*
X79007349Y-67624670D01*
X78980001Y-67707203D01*
X78980001Y-67707204D01*
X78980000Y-67707204D01*
X78969500Y-67809983D01*
X78969500Y-68810001D01*
X78969501Y-68810019D01*
X78980000Y-68912796D01*
X78980001Y-68912799D01*
X78998098Y-68967410D01*
X79035186Y-69079334D01*
X79127288Y-69228656D01*
X79251344Y-69352712D01*
X79260591Y-69358416D01*
X79307318Y-69410360D01*
X79319500Y-69463957D01*
X79319500Y-69466042D01*
X79299815Y-69533081D01*
X79260598Y-69571580D01*
X79251344Y-69577287D01*
X79127289Y-69701342D01*
X79035187Y-69850663D01*
X79035186Y-69850666D01*
X78980001Y-70017203D01*
X78980001Y-70017204D01*
X78980000Y-70017204D01*
X78969500Y-70119983D01*
X78969500Y-71120001D01*
X78969501Y-71120009D01*
X78980000Y-71222796D01*
X78980001Y-71222799D01*
X79035185Y-71389331D01*
X79035187Y-71389336D01*
X79127289Y-71538657D01*
X79251343Y-71662711D01*
X79257011Y-71667193D01*
X79255138Y-71669561D01*
X79292755Y-71711380D01*
X79303979Y-71780342D01*
X79276137Y-71844425D01*
X79218070Y-71883283D01*
X79193539Y-71888332D01*
X79177201Y-71890001D01*
X79177200Y-71890001D01*
X79010668Y-71945185D01*
X79010663Y-71945187D01*
X78861342Y-72037289D01*
X78842181Y-72056451D01*
X78780858Y-72089936D01*
X78711166Y-72084952D01*
X78655233Y-72043080D01*
X78630816Y-71977616D01*
X78630500Y-71968770D01*
X78630500Y-66422941D01*
X78650185Y-66355902D01*
X78666819Y-66335260D01*
X79088466Y-65913613D01*
X79590520Y-65411560D01*
X79669577Y-65274628D01*
X79710501Y-65121901D01*
X79710501Y-64963786D01*
X79710501Y-64956191D01*
X79710500Y-64956173D01*
X79710500Y-59359097D01*
X79730185Y-59292058D01*
X79782989Y-59246303D01*
X79852147Y-59236359D01*
X79915703Y-59265384D01*
G37*
G04 #@! TD.AperFunction*
G04 #@! TA.AperFunction,Conductor*
G36*
X66426942Y-63570185D02*
G01*
X66447583Y-63586818D01*
X67153766Y-64293001D01*
X67187250Y-64354323D01*
X67182266Y-64424015D01*
X67140394Y-64479948D01*
X67131186Y-64486217D01*
X67121343Y-64492288D01*
X66997288Y-64616343D01*
X66997283Y-64616349D01*
X66995241Y-64619661D01*
X66993247Y-64621453D01*
X66992807Y-64622011D01*
X66992711Y-64621935D01*
X66943291Y-64666383D01*
X66874328Y-64677602D01*
X66810247Y-64649755D01*
X66784168Y-64619656D01*
X66782319Y-64616659D01*
X66782316Y-64616655D01*
X66658345Y-64492684D01*
X66509124Y-64400643D01*
X66509119Y-64400641D01*
X66342697Y-64345494D01*
X66342690Y-64345493D01*
X66239986Y-64335000D01*
X66102500Y-64335000D01*
X66102500Y-66784999D01*
X66239972Y-66784999D01*
X66239986Y-66784998D01*
X66342697Y-66774505D01*
X66509119Y-66719358D01*
X66509124Y-66719356D01*
X66658345Y-66627315D01*
X66782318Y-66503342D01*
X66784165Y-66500348D01*
X66785969Y-66498724D01*
X66786798Y-66497677D01*
X66786976Y-66497818D01*
X66836110Y-66453621D01*
X66905073Y-66442396D01*
X66969156Y-66470236D01*
X66995243Y-66500341D01*
X66997288Y-66503656D01*
X66997289Y-66503657D01*
X66999517Y-66505885D01*
X67000557Y-66507790D01*
X67001766Y-66509319D01*
X67001504Y-66509525D01*
X67033002Y-66567208D01*
X67028018Y-66636900D01*
X66999517Y-66681247D01*
X65957584Y-67723181D01*
X65896261Y-67756666D01*
X65869903Y-67759500D01*
X65634068Y-67759500D01*
X65567029Y-67739815D01*
X65523583Y-67691795D01*
X65513555Y-67672114D01*
X65463343Y-67573567D01*
X65324517Y-67382490D01*
X65157510Y-67215483D01*
X64966433Y-67076657D01*
X64946807Y-67066657D01*
X64755996Y-66969433D01*
X64531369Y-66896447D01*
X64404043Y-66876280D01*
X64340909Y-66846350D01*
X64303978Y-66787039D01*
X64304976Y-66717176D01*
X64316052Y-66691812D01*
X64366281Y-66604814D01*
X64379577Y-66581785D01*
X64420500Y-66429057D01*
X64420500Y-66270943D01*
X64420500Y-66084986D01*
X64765001Y-66084986D01*
X64775494Y-66187697D01*
X64830641Y-66354119D01*
X64830643Y-66354124D01*
X64922684Y-66503345D01*
X65046654Y-66627315D01*
X65195875Y-66719356D01*
X65195880Y-66719358D01*
X65362302Y-66774505D01*
X65362309Y-66774506D01*
X65465019Y-66784999D01*
X65602499Y-66784999D01*
X65602500Y-66784998D01*
X65602500Y-65810000D01*
X64765001Y-65810000D01*
X64765001Y-66084986D01*
X64420500Y-66084986D01*
X64420500Y-65035013D01*
X64765000Y-65035013D01*
X64765000Y-65310000D01*
X65602500Y-65310000D01*
X65602500Y-64335000D01*
X65465027Y-64335000D01*
X65465012Y-64335001D01*
X65362302Y-64345494D01*
X65195880Y-64400641D01*
X65195875Y-64400643D01*
X65046654Y-64492684D01*
X64922684Y-64616654D01*
X64830643Y-64765875D01*
X64830641Y-64765880D01*
X64775494Y-64932302D01*
X64775493Y-64932309D01*
X64765000Y-65035013D01*
X64420500Y-65035013D01*
X64420500Y-63857901D01*
X64440185Y-63790862D01*
X64492989Y-63745107D01*
X64520301Y-63736285D01*
X64603497Y-63719737D01*
X64749179Y-63659394D01*
X64752205Y-63657372D01*
X64880875Y-63571398D01*
X64947553Y-63550520D01*
X64949766Y-63550500D01*
X66359903Y-63550500D01*
X66426942Y-63570185D01*
G37*
G04 #@! TD.AperFunction*
G04 #@! TA.AperFunction,Conductor*
G36*
X61865098Y-62220185D02*
G01*
X61910853Y-62272989D01*
X61920797Y-62342147D01*
X61891772Y-62405703D01*
X61885740Y-62412181D01*
X61848213Y-62449707D01*
X61848210Y-62449711D01*
X61760609Y-62580814D01*
X61760602Y-62580827D01*
X61700264Y-62726498D01*
X61700261Y-62726510D01*
X61669500Y-62881153D01*
X61669500Y-63038846D01*
X61700261Y-63193489D01*
X61700264Y-63193501D01*
X61760602Y-63339172D01*
X61760609Y-63339185D01*
X61848602Y-63470874D01*
X61869480Y-63537551D01*
X61869500Y-63539765D01*
X61869500Y-64224091D01*
X61849815Y-64291130D01*
X61805731Y-64329641D01*
X61806813Y-64331395D01*
X61800667Y-64335185D01*
X61800666Y-64335186D01*
X61720501Y-64384632D01*
X61651342Y-64427289D01*
X61557681Y-64520951D01*
X61496358Y-64554436D01*
X61426666Y-64549452D01*
X61382319Y-64520951D01*
X61288657Y-64427289D01*
X61288656Y-64427288D01*
X61164162Y-64350500D01*
X61139336Y-64335187D01*
X61139331Y-64335185D01*
X61137862Y-64334698D01*
X60972797Y-64280001D01*
X60972795Y-64280000D01*
X60870010Y-64269500D01*
X60069998Y-64269500D01*
X60069980Y-64269501D01*
X59967203Y-64280000D01*
X59967200Y-64280001D01*
X59800668Y-64335185D01*
X59800663Y-64335187D01*
X59651342Y-64427289D01*
X59527289Y-64551342D01*
X59504117Y-64588910D01*
X59441457Y-64690500D01*
X59441397Y-64690597D01*
X59389449Y-64737321D01*
X59335858Y-64749500D01*
X59312230Y-64749500D01*
X59245191Y-64729815D01*
X59224549Y-64713181D01*
X58576319Y-64064951D01*
X58568155Y-64050000D01*
X59040000Y-64050000D01*
X59587828Y-64050000D01*
X59587844Y-64049999D01*
X59647372Y-64043598D01*
X59647379Y-64043596D01*
X59782086Y-63993354D01*
X59782093Y-63993350D01*
X59897187Y-63907190D01*
X59897190Y-63907187D01*
X59983350Y-63792093D01*
X59983354Y-63792086D01*
X60033596Y-63657379D01*
X60033598Y-63657372D01*
X60039999Y-63597844D01*
X60040000Y-63597827D01*
X60040000Y-63350000D01*
X59040000Y-63350000D01*
X59040000Y-64050000D01*
X58568155Y-64050000D01*
X58542834Y-64003628D01*
X58540000Y-63977270D01*
X58540000Y-63224000D01*
X58559685Y-63156961D01*
X58612489Y-63111206D01*
X58664000Y-63100000D01*
X58790000Y-63100000D01*
X58790000Y-62974000D01*
X58809685Y-62906961D01*
X58862489Y-62861206D01*
X58914000Y-62850000D01*
X60040000Y-62850000D01*
X60040000Y-62602172D01*
X60039999Y-62602155D01*
X60033598Y-62542627D01*
X60033597Y-62542623D01*
X59980253Y-62399602D01*
X59982069Y-62398924D01*
X59969616Y-62341684D01*
X59981571Y-62300966D01*
X59980697Y-62300640D01*
X59987961Y-62281165D01*
X60029832Y-62225232D01*
X60095297Y-62200816D01*
X60104142Y-62200500D01*
X61798059Y-62200500D01*
X61865098Y-62220185D01*
G37*
G04 #@! TD.AperFunction*
G04 #@! TA.AperFunction,Conductor*
G36*
X82812130Y-62474340D02*
G01*
X82870363Y-62512950D01*
X82898477Y-62576913D01*
X82899500Y-62592806D01*
X82899500Y-63886386D01*
X82879815Y-63953425D01*
X82827011Y-63999180D01*
X82757853Y-64009124D01*
X82694297Y-63980099D01*
X82659318Y-63929719D01*
X82613797Y-63807671D01*
X82613793Y-63807664D01*
X82527547Y-63692455D01*
X82527544Y-63692452D01*
X82412335Y-63606206D01*
X82412328Y-63606202D01*
X82277482Y-63555908D01*
X82277483Y-63555908D01*
X82217883Y-63549501D01*
X82217881Y-63549500D01*
X82217873Y-63549500D01*
X82217865Y-63549500D01*
X82207309Y-63549500D01*
X82140270Y-63529815D01*
X82119628Y-63513181D01*
X81449408Y-62842962D01*
X81512993Y-62825925D01*
X81627007Y-62760099D01*
X81720099Y-62667007D01*
X81785925Y-62552993D01*
X81802962Y-62489408D01*
X82435270Y-63121717D01*
X82435270Y-63121716D01*
X82474622Y-63067554D01*
X82571095Y-62878217D01*
X82636757Y-62676130D01*
X82636757Y-62676127D01*
X82653027Y-62573408D01*
X82682956Y-62510273D01*
X82742268Y-62473342D01*
X82812130Y-62474340D01*
G37*
G04 #@! TD.AperFunction*
G04 #@! TA.AperFunction,Conductor*
G36*
X54873794Y-58050085D02*
G01*
X54929728Y-58091956D01*
X54948167Y-58127263D01*
X55005185Y-58299331D01*
X55005187Y-58299336D01*
X55097289Y-58448657D01*
X55190951Y-58542319D01*
X55224436Y-58603642D01*
X55219452Y-58673334D01*
X55190951Y-58717681D01*
X55097289Y-58811342D01*
X55005187Y-58960663D01*
X55005185Y-58960668D01*
X54982205Y-59030017D01*
X54950001Y-59127203D01*
X54950001Y-59127204D01*
X54950000Y-59127204D01*
X54939500Y-59229983D01*
X54939500Y-60030001D01*
X54939501Y-60030019D01*
X54950000Y-60132796D01*
X54950001Y-60132799D01*
X55005185Y-60299331D01*
X55005187Y-60299336D01*
X55097289Y-60448657D01*
X55175951Y-60527319D01*
X55209436Y-60588642D01*
X55204452Y-60658334D01*
X55175951Y-60702681D01*
X55107289Y-60771342D01*
X55015187Y-60920663D01*
X55015185Y-60920668D01*
X54995593Y-60979793D01*
X54960001Y-61087203D01*
X54960001Y-61087204D01*
X54960000Y-61087204D01*
X54949500Y-61189983D01*
X54949500Y-61990001D01*
X54949501Y-61990019D01*
X54960000Y-62092796D01*
X54960001Y-62092799D01*
X55015185Y-62259331D01*
X55015187Y-62259336D01*
X55036675Y-62294174D01*
X55107287Y-62408655D01*
X55107289Y-62408657D01*
X55200951Y-62502319D01*
X55234436Y-62563642D01*
X55229452Y-62633334D01*
X55200951Y-62677681D01*
X55107288Y-62771343D01*
X55107285Y-62771347D01*
X55095412Y-62790597D01*
X55043464Y-62837322D01*
X54989874Y-62849500D01*
X54472229Y-62849500D01*
X54405190Y-62829815D01*
X54384548Y-62813181D01*
X53976819Y-62405451D01*
X53943334Y-62344128D01*
X53940500Y-62317770D01*
X53940500Y-58832139D01*
X53960185Y-58765100D01*
X54012989Y-58719345D01*
X54017048Y-58717578D01*
X54095490Y-58685086D01*
X54095489Y-58685086D01*
X54095495Y-58685084D01*
X54144729Y-58652186D01*
X54218416Y-58602952D01*
X54742781Y-58078585D01*
X54804103Y-58045101D01*
X54873794Y-58050085D01*
G37*
G04 #@! TD.AperFunction*
G04 #@! TA.AperFunction,Conductor*
G36*
X53587566Y-50650185D02*
G01*
X53633321Y-50702989D01*
X53643265Y-50772147D01*
X53638233Y-50793503D01*
X53605495Y-50892299D01*
X53605493Y-50892309D01*
X53595000Y-50995013D01*
X53595000Y-51270000D01*
X54558500Y-51270000D01*
X54625539Y-51289685D01*
X54671294Y-51342489D01*
X54682500Y-51394000D01*
X54682500Y-51520000D01*
X54808500Y-51520000D01*
X54875539Y-51539685D01*
X54921294Y-51592489D01*
X54932500Y-51644000D01*
X54932500Y-52346880D01*
X54939666Y-52360004D01*
X54942500Y-52386362D01*
X54942500Y-54904999D01*
X55079972Y-54904999D01*
X55079986Y-54904998D01*
X55182697Y-54894505D01*
X55349119Y-54839358D01*
X55349124Y-54839356D01*
X55498345Y-54747315D01*
X55622318Y-54623342D01*
X55624165Y-54620348D01*
X55625969Y-54618724D01*
X55626798Y-54617677D01*
X55626976Y-54617818D01*
X55676110Y-54573621D01*
X55745073Y-54562396D01*
X55809156Y-54590236D01*
X55835245Y-54620343D01*
X55837289Y-54623658D01*
X55841766Y-54629319D01*
X55839495Y-54631113D01*
X55866666Y-54680872D01*
X55869500Y-54707230D01*
X55869500Y-54777770D01*
X55849815Y-54844809D01*
X55833181Y-54865451D01*
X53465451Y-57233181D01*
X53404128Y-57266666D01*
X53377770Y-57269500D01*
X53116080Y-57269500D01*
X52971092Y-57298340D01*
X52971082Y-57298343D01*
X52834511Y-57354912D01*
X52834498Y-57354919D01*
X52711584Y-57437048D01*
X52711580Y-57437051D01*
X52607051Y-57541580D01*
X52607048Y-57541584D01*
X52527602Y-57660484D01*
X52473990Y-57705289D01*
X52404665Y-57713996D01*
X52341637Y-57683842D01*
X52304918Y-57624398D01*
X52300500Y-57591593D01*
X52300500Y-54204986D01*
X53605001Y-54204986D01*
X53615494Y-54307697D01*
X53670641Y-54474119D01*
X53670643Y-54474124D01*
X53762684Y-54623345D01*
X53886654Y-54747315D01*
X54035875Y-54839356D01*
X54035880Y-54839358D01*
X54202302Y-54894505D01*
X54202309Y-54894506D01*
X54305019Y-54904999D01*
X54442499Y-54904999D01*
X54442500Y-54904998D01*
X54442500Y-53930000D01*
X53605001Y-53930000D01*
X53605001Y-54204986D01*
X52300500Y-54204986D01*
X52300500Y-52044986D01*
X53595001Y-52044986D01*
X53605494Y-52147697D01*
X53660641Y-52314119D01*
X53660643Y-52314124D01*
X53752684Y-52463345D01*
X53806657Y-52517318D01*
X53840142Y-52578641D01*
X53835158Y-52648333D01*
X53806659Y-52692678D01*
X53762684Y-52736654D01*
X53670643Y-52885875D01*
X53670641Y-52885880D01*
X53615494Y-53052302D01*
X53615493Y-53052309D01*
X53605000Y-53155013D01*
X53605000Y-53430000D01*
X54442500Y-53430000D01*
X54442500Y-52853119D01*
X54435334Y-52839996D01*
X54432500Y-52813638D01*
X54432500Y-51770000D01*
X53595001Y-51770000D01*
X53595001Y-52044986D01*
X52300500Y-52044986D01*
X52300500Y-50754500D01*
X52320185Y-50687461D01*
X52372989Y-50641706D01*
X52424500Y-50630500D01*
X53520527Y-50630500D01*
X53587566Y-50650185D01*
G37*
G04 #@! TD.AperFunction*
G04 #@! TA.AperFunction,Conductor*
G36*
X77745702Y-53535383D02*
G01*
X77752180Y-53541415D01*
X78073181Y-53862416D01*
X78106666Y-53923739D01*
X78109500Y-53950097D01*
X78109500Y-55149015D01*
X78109499Y-55149033D01*
X78109499Y-55314739D01*
X78109498Y-55314739D01*
X78150423Y-55467469D01*
X78150424Y-55467473D01*
X78179099Y-55517140D01*
X78179100Y-55517140D01*
X78229477Y-55604397D01*
X78229481Y-55604402D01*
X78348349Y-55723270D01*
X78348355Y-55723275D01*
X79113181Y-56488101D01*
X79146666Y-56549424D01*
X79149500Y-56575782D01*
X79149500Y-57188059D01*
X79129815Y-57255098D01*
X79077011Y-57300853D01*
X79007853Y-57310797D01*
X78944297Y-57281772D01*
X78937819Y-57275740D01*
X78931877Y-57269798D01*
X78931875Y-57269795D01*
X78813004Y-57150924D01*
X78813003Y-57150923D01*
X78726191Y-57100803D01*
X78726191Y-57100802D01*
X78726187Y-57100801D01*
X78676072Y-57071866D01*
X78523344Y-57030942D01*
X78365230Y-57030942D01*
X78357634Y-57030942D01*
X78357618Y-57030943D01*
X78201540Y-57030943D01*
X78134501Y-57011258D01*
X78113859Y-56994624D01*
X77857590Y-56738355D01*
X77857588Y-56738352D01*
X77738717Y-56619481D01*
X77738716Y-56619480D01*
X77651904Y-56569360D01*
X77651904Y-56569359D01*
X77651900Y-56569358D01*
X77601785Y-56540423D01*
X77601784Y-56540422D01*
X77601783Y-56540422D01*
X77601781Y-56540421D01*
X77587453Y-56536582D01*
X77527793Y-56500217D01*
X77503367Y-56460142D01*
X77483796Y-56407669D01*
X77480696Y-56399357D01*
X77482426Y-56398711D01*
X77469902Y-56341169D01*
X77481693Y-56301011D01*
X77480696Y-56300640D01*
X77483794Y-56292333D01*
X77483796Y-56292331D01*
X77534091Y-56157483D01*
X77540500Y-56097873D01*
X77540499Y-55102128D01*
X77534091Y-55042517D01*
X77483796Y-54907669D01*
X77483794Y-54907666D01*
X77480696Y-54899360D01*
X77482426Y-54898714D01*
X77469902Y-54841163D01*
X77481691Y-54801011D01*
X77480696Y-54800640D01*
X77483794Y-54792333D01*
X77483796Y-54792331D01*
X77534091Y-54657483D01*
X77540500Y-54597873D01*
X77540499Y-53629095D01*
X77560183Y-53562057D01*
X77612987Y-53516302D01*
X77682146Y-53506358D01*
X77745702Y-53535383D01*
G37*
G04 #@! TD.AperFunction*
M02*
