G04 #@! TF.GenerationSoftware,KiCad,Pcbnew,10.0.6*
G04 #@! TF.CreationDate,2026-09-05T21:53:39-04:00*
G04 #@! TF.ProjectId,KiCAD_ESP32_Sensor,4b694341-445f-4455-9350-33325f53656e,rev?*
G04 #@! TF.SameCoordinates,Original*
G04 #@! TF.FileFunction,Soldermask,Top*
G04 #@! TF.FilePolarity,Negative*
%FSLAX46Y46*%
G04 Gerber Fmt 4.6, Leading zero omitted, Abs format (unit mm)*
G04 Created by KiCad (PCBNEW 10.0.6) date 2026-09-05 21:53:39*
%MOMM*%
%LPD*%
G01*
G04 APERTURE LIST*
G04 Aperture macros list*
%AMRoundRect*
0 Rectangle with rounded corners*
0 $1 Rounding radius*
0 $2 $3 $4 $5 $6 $7 $8 $9 X,Y pos of 4 corners*
0 Add a 4 corners polygon primitive as box body*
4,1,4,$2,$3,$4,$5,$6,$7,$8,$9,$2,$3,0*
0 Add four circle primitives for the rounded corners*
1,1,$1+$1,$2,$3*
1,1,$1+$1,$4,$5*
1,1,$1+$1,$6,$7*
1,1,$1+$1,$8,$9*
0 Add four rect primitives between the rounded corners*
20,1,$1+$1,$2,$3,$4,$5,0*
20,1,$1+$1,$4,$5,$6,$7,0*
20,1,$1+$1,$6,$7,$8,$9,0*
20,1,$1+$1,$8,$9,$2,$3,0*%
G04 Aperture macros list end*
%ADD10C,0.010000*%
%ADD11RoundRect,0.250000X0.350000X0.450000X-0.350000X0.450000X-0.350000X-0.450000X0.350000X-0.450000X0*%
%ADD12C,0.650000*%
%ADD13O,1.204000X2.304000*%
%ADD14O,1.204000X2.004000*%
%ADD15R,1.700000X1.700000*%
%ADD16C,1.700000*%
%ADD17C,1.000000*%
%ADD18RoundRect,0.250000X0.475000X-0.337500X0.475000X0.337500X-0.475000X0.337500X-0.475000X-0.337500X0*%
%ADD19RoundRect,0.250000X0.337500X0.475000X-0.337500X0.475000X-0.337500X-0.475000X0.337500X-0.475000X0*%
%ADD20R,1.500000X0.900000*%
%ADD21C,0.600000*%
%ADD22R,2.900000X2.900000*%
%ADD23RoundRect,0.250000X-0.350000X-0.450000X0.350000X-0.450000X0.350000X0.450000X-0.350000X0.450000X0*%
%ADD24RoundRect,0.250000X-0.450000X0.350000X-0.450000X-0.350000X0.450000X-0.350000X0.450000X0.350000X0*%
%ADD25RoundRect,0.250000X0.450000X-0.350000X0.450000X0.350000X-0.450000X0.350000X-0.450000X-0.350000X0*%
%ADD26C,2.000000*%
%ADD27RoundRect,0.250000X-0.337500X-0.475000X0.337500X-0.475000X0.337500X0.475000X-0.337500X0.475000X0*%
%ADD28RoundRect,0.162500X0.617500X0.162500X-0.617500X0.162500X-0.617500X-0.162500X0.617500X-0.162500X0*%
G04 APERTURE END LIST*
D10*
X74420000Y-75485000D02*
X75120000Y-75485000D01*
X75120000Y-76735000D01*
X74420000Y-76735000D01*
X74420000Y-75485000D01*
G36*
X75120000Y-76735000D02*
G01*
X74420000Y-76735000D01*
X74420000Y-75485000D01*
X75120000Y-75485000D01*
X75120000Y-76735000D01*
G37*
X75220000Y-75485000D02*
X75920000Y-75485000D01*
X75920000Y-76735000D01*
X75220000Y-76735000D01*
X75220000Y-75485000D01*
G36*
X75920000Y-76735000D02*
G01*
X75220000Y-76735000D01*
X75220000Y-75485000D01*
X75920000Y-75485000D01*
X75920000Y-76735000D01*
G37*
X76020000Y-75485000D02*
X76420000Y-75485000D01*
X76420000Y-76735000D01*
X76020000Y-76735000D01*
X76020000Y-75485000D01*
G36*
X76420000Y-76735000D02*
G01*
X76020000Y-76735000D01*
X76020000Y-75485000D01*
X76420000Y-75485000D01*
X76420000Y-76735000D01*
G37*
X76520000Y-75485000D02*
X76920000Y-75485000D01*
X76920000Y-76735000D01*
X76520000Y-76735000D01*
X76520000Y-75485000D01*
G36*
X76920000Y-76735000D02*
G01*
X76520000Y-76735000D01*
X76520000Y-75485000D01*
X76920000Y-75485000D01*
X76920000Y-76735000D01*
G37*
X77020000Y-75485000D02*
X77420000Y-75485000D01*
X77420000Y-76735000D01*
X77020000Y-76735000D01*
X77020000Y-75485000D01*
G36*
X77420000Y-76735000D02*
G01*
X77020000Y-76735000D01*
X77020000Y-75485000D01*
X77420000Y-75485000D01*
X77420000Y-76735000D01*
G37*
X77520000Y-75485000D02*
X77920000Y-75485000D01*
X77920000Y-76735000D01*
X77520000Y-76735000D01*
X77520000Y-75485000D01*
G36*
X77920000Y-76735000D02*
G01*
X77520000Y-76735000D01*
X77520000Y-75485000D01*
X77920000Y-75485000D01*
X77920000Y-76735000D01*
G37*
X78020000Y-75485000D02*
X78420000Y-75485000D01*
X78420000Y-76735000D01*
X78020000Y-76735000D01*
X78020000Y-75485000D01*
G36*
X78420000Y-76735000D02*
G01*
X78020000Y-76735000D01*
X78020000Y-75485000D01*
X78420000Y-75485000D01*
X78420000Y-76735000D01*
G37*
X78520000Y-75485000D02*
X78920000Y-75485000D01*
X78920000Y-76735000D01*
X78520000Y-76735000D01*
X78520000Y-75485000D01*
G36*
X78920000Y-76735000D02*
G01*
X78520000Y-76735000D01*
X78520000Y-75485000D01*
X78920000Y-75485000D01*
X78920000Y-76735000D01*
G37*
X79020000Y-75485000D02*
X79420000Y-75485000D01*
X79420000Y-76735000D01*
X79020000Y-76735000D01*
X79020000Y-75485000D01*
G36*
X79420000Y-76735000D02*
G01*
X79020000Y-76735000D01*
X79020000Y-75485000D01*
X79420000Y-75485000D01*
X79420000Y-76735000D01*
G37*
X79520000Y-75485000D02*
X79920000Y-75485000D01*
X79920000Y-76735000D01*
X79520000Y-76735000D01*
X79520000Y-75485000D01*
G36*
X79920000Y-76735000D02*
G01*
X79520000Y-76735000D01*
X79520000Y-75485000D01*
X79920000Y-75485000D01*
X79920000Y-76735000D01*
G37*
X80020000Y-75485000D02*
X80720000Y-75485000D01*
X80720000Y-76735000D01*
X80020000Y-76735000D01*
X80020000Y-75485000D01*
G36*
X80720000Y-76735000D02*
G01*
X80020000Y-76735000D01*
X80020000Y-75485000D01*
X80720000Y-75485000D01*
X80720000Y-76735000D01*
G37*
X80820000Y-75485000D02*
X81520000Y-75485000D01*
X81520000Y-76735000D01*
X80820000Y-76735000D01*
X80820000Y-75485000D01*
G36*
X81520000Y-76735000D02*
G01*
X80820000Y-76735000D01*
X80820000Y-75485000D01*
X81520000Y-75485000D01*
X81520000Y-76735000D01*
G37*
D11*
X81680000Y-73080000D03*
X79680000Y-73080000D03*
D12*
X75080000Y-77185000D03*
X80860000Y-77185000D03*
D13*
X73650000Y-76685000D03*
X82290000Y-76685000D03*
D14*
X73650000Y-80865000D03*
X82290000Y-80865000D03*
D15*
X81320000Y-64900000D03*
D16*
X81320000Y-62360000D03*
X81320000Y-59820000D03*
X81320000Y-57280000D03*
X81320000Y-54740000D03*
X81320000Y-52200000D03*
D17*
X59250000Y-77850000D03*
D18*
X64040000Y-81567500D03*
X64040000Y-79492500D03*
D19*
X56767500Y-53680000D03*
X54692500Y-53680000D03*
D17*
X55720000Y-77840000D03*
D20*
X58790000Y-51100000D03*
X58790000Y-52600000D03*
X58790000Y-54100000D03*
X58790000Y-55600000D03*
X58790000Y-57100000D03*
X58790000Y-58600000D03*
X58790000Y-60100000D03*
X58790000Y-61600000D03*
X58790000Y-63100000D03*
X76290000Y-63100000D03*
X76290000Y-61600000D03*
X76290000Y-60100000D03*
X76290000Y-58600000D03*
X76290000Y-57100000D03*
X76290000Y-55600000D03*
X76290000Y-54100000D03*
X76290000Y-52600000D03*
X76290000Y-51100000D03*
D21*
X67400000Y-56750000D03*
X67400000Y-57850000D03*
X67950000Y-56200000D03*
X67950000Y-57300000D03*
X67950000Y-58400000D03*
X68500000Y-56750000D03*
D22*
X68500000Y-57300000D03*
D21*
X68500000Y-57850000D03*
X69050000Y-56200000D03*
X69050000Y-57300000D03*
X69050000Y-58400000D03*
X69600000Y-56750000D03*
X69600000Y-57850000D03*
D23*
X60470000Y-65470000D03*
X62470000Y-65470000D03*
D11*
X82070000Y-68310000D03*
X80070000Y-68310000D03*
D24*
X75930000Y-70820000D03*
X75930000Y-72820000D03*
X56140000Y-57630000D03*
X56140000Y-59630000D03*
D25*
X56150000Y-63590000D03*
X56150000Y-61590000D03*
D17*
X59000000Y-80340000D03*
D19*
X56757500Y-51520000D03*
X54682500Y-51520000D03*
D26*
X60310000Y-68350000D03*
X60310000Y-74850000D03*
X55810000Y-68350000D03*
X55810000Y-74850000D03*
X64180000Y-74860000D03*
X64180000Y-68360000D03*
X68680000Y-74860000D03*
X68680000Y-68360000D03*
D19*
X69330000Y-77590000D03*
X67255000Y-77590000D03*
D11*
X82070000Y-70620000D03*
X80070000Y-70620000D03*
D17*
X72940000Y-73040000D03*
X55990000Y-80420000D03*
D27*
X65852500Y-65560000D03*
X67927500Y-65560000D03*
D28*
X69110000Y-81530000D03*
X69110000Y-80580000D03*
X69110000Y-79630000D03*
X66410000Y-79630000D03*
X66410000Y-81530000D03*
M02*
