M48
; DRILL file KiCad 10.0.6 date 2026-09-05T21:53:48
; FORMAT={-:-/ absolute / metric / decimal}
; #@! TF.CreationDate,2026-09-05T21:53:48-04:00
; #@! TF.GenerationSoftware,Kicad,Pcbnew,10.0.6
; #@! TF.FileFunction,Plated,1,2,PTH
FMAT,2
METRIC
; #@! TA.AperFunction,Plated,PTH,ViaDrill
T1C0.300
; #@! TA.AperFunction,Plated,PTH,ComponentDrill
T2C0.300
; #@! TA.AperFunction,Plated,PTH,ComponentDrill
T3C0.600
; #@! TA.AperFunction,Plated,PTH,ComponentDrill
T4C1.000
; #@! TA.AperFunction,Plated,PTH,ComponentDrill
T5C1.100
%
G90
G05
T1
X53.82Y-55.29
X53.84Y-74.91
X53.87Y-68.25
X54.32Y-60.39
X54.77Y-55.26
X60.34Y-63.1
X61.05Y-51.53
X61.38Y-63.09
X62.1Y-79.11
X62.47Y-62.96
X64.37Y-62.95
X64.47Y-65.53
X65.76Y-77.56
X71.0Y-79.77
X71.07Y-82.07
X71.68Y-76.4
X72.64Y-65.33
X73.78Y-62.99
X73.948Y-74.88
X74.04Y-51.49
X75.91Y-67.99
X75.92Y-69.2
X78.23Y-56.26
X80.38Y-74.61
X82.14Y-74.64
T2
X67.4Y-56.75
X67.4Y-57.85
X67.95Y-56.2
X67.95Y-57.3
X67.95Y-58.4
X68.5Y-56.75
X68.5Y-57.85
X69.05Y-56.2
X69.05Y-57.3
X69.05Y-58.4
X69.6Y-56.75
X69.6Y-57.85
T4
X81.32Y-52.2
X81.32Y-54.74
X81.32Y-57.28
X81.32Y-59.82
X81.32Y-62.36
X81.32Y-64.9
T5
X55.81Y-68.35
X55.81Y-74.85
X60.31Y-68.35
X60.31Y-74.85
X64.18Y-68.36
X64.18Y-74.86
X68.68Y-68.36
X68.68Y-74.86
T3
G00X73.65Y-76.135
M15
G01X73.65Y-77.235
M16
G05
G00X73.65Y-80.465
M15
G01X73.65Y-81.265
M16
G05
G00X82.29Y-76.135
M15
G01X82.29Y-77.235
M16
G05
G00X82.29Y-80.465
M15
G01X82.29Y-81.265
M16
G05
M30
