G04 #@! TF.GenerationSoftware,KiCad,Pcbnew,10.0.6*
G04 #@! TF.CreationDate,2026-09-05T21:53:39-04:00*
G04 #@! TF.ProjectId,KiCAD_ESP32_Sensor,4b694341-445f-4455-9350-33325f53656e,rev?*
G04 #@! TF.SameCoordinates,Original*
G04 #@! TF.FileFunction,Legend,Top*
G04 #@! TF.FilePolarity,Positive*
%FSLAX46Y46*%
G04 Gerber Fmt 4.6, Leading zero omitted, Abs format (unit mm)*
G04 Created by KiCad (PCBNEW 10.0.6) date 2026-09-05 21:53:39*
%MOMM*%
%LPD*%
G01*
G04 APERTURE LIST*
G04 Aperture macros list*
%AMRoundRect*
0 Rectangle with rounded corners*
0 $1 Rounding radius*
0 $2 $3 $4 $5 $6 $7 $8 $9 X,Y pos of 4 corners*
0 Add a 4 corners polygon primitive as box body*
4,1,4,$2,$3,$4,$5,$6,$7,$8,$9,$2,$3,0*
0 Add four circle primitives for the rounded corners*
1,1,$1+$1,$2,$3*
1,1,$1+$1,$4,$5*
1,1,$1+$1,$6,$7*
1,1,$1+$1,$8,$9*
0 Add four rect primitives between the rounded corners*
20,1,$1+$1,$2,$3,$4,$5,0*
20,1,$1+$1,$4,$5,$6,$7,0*
20,1,$1+$1,$6,$7,$8,$9,0*
20,1,$1+$1,$8,$9,$2,$3,0*%
G04 Aperture macros list end*
%ADD10C,0.150000*%
%ADD11C,0.120000*%
%ADD12C,0.200000*%
%ADD13C,0.010000*%
%ADD14RoundRect,0.250000X0.350000X0.450000X-0.350000X0.450000X-0.350000X-0.450000X0.350000X-0.450000X0*%
%ADD15C,0.650000*%
%ADD16O,1.204000X2.304000*%
%ADD17O,1.204000X2.004000*%
%ADD18R,1.700000X1.700000*%
%ADD19C,1.700000*%
%ADD20C,1.000000*%
%ADD21RoundRect,0.250000X0.475000X-0.337500X0.475000X0.337500X-0.475000X0.337500X-0.475000X-0.337500X0*%
%ADD22RoundRect,0.250000X0.337500X0.475000X-0.337500X0.475000X-0.337500X-0.475000X0.337500X-0.475000X0*%
%ADD23R,1.500000X0.900000*%
%ADD24C,0.600000*%
%ADD25R,2.900000X2.900000*%
%ADD26RoundRect,0.250000X-0.350000X-0.450000X0.350000X-0.450000X0.350000X0.450000X-0.350000X0.450000X0*%
%ADD27RoundRect,0.250000X-0.450000X0.350000X-0.450000X-0.350000X0.450000X-0.350000X0.450000X0.350000X0*%
%ADD28RoundRect,0.250000X0.450000X-0.350000X0.450000X0.350000X-0.450000X0.350000X-0.450000X-0.350000X0*%
%ADD29C,2.000000*%
%ADD30RoundRect,0.250000X-0.337500X-0.475000X0.337500X-0.475000X0.337500X0.475000X-0.337500X0.475000X0*%
%ADD31RoundRect,0.162500X0.617500X0.162500X-0.617500X0.162500X-0.617500X-0.162500X0.617500X-0.162500X0*%
G04 APERTURE END LIST*
D10*
X83383333Y-73574819D02*
X83050000Y-73098628D01*
X82811905Y-73574819D02*
X82811905Y-72574819D01*
X82811905Y-72574819D02*
X83192857Y-72574819D01*
X83192857Y-72574819D02*
X83288095Y-72622438D01*
X83288095Y-72622438D02*
X83335714Y-72670057D01*
X83335714Y-72670057D02*
X83383333Y-72765295D01*
X83383333Y-72765295D02*
X83383333Y-72908152D01*
X83383333Y-72908152D02*
X83335714Y-73003390D01*
X83335714Y-73003390D02*
X83288095Y-73051009D01*
X83288095Y-73051009D02*
X83192857Y-73098628D01*
X83192857Y-73098628D02*
X82811905Y-73098628D01*
X83764286Y-72670057D02*
X83811905Y-72622438D01*
X83811905Y-72622438D02*
X83907143Y-72574819D01*
X83907143Y-72574819D02*
X84145238Y-72574819D01*
X84145238Y-72574819D02*
X84240476Y-72622438D01*
X84240476Y-72622438D02*
X84288095Y-72670057D01*
X84288095Y-72670057D02*
X84335714Y-72765295D01*
X84335714Y-72765295D02*
X84335714Y-72860533D01*
X84335714Y-72860533D02*
X84288095Y-73003390D01*
X84288095Y-73003390D02*
X83716667Y-73574819D01*
X83716667Y-73574819D02*
X84335714Y-73574819D01*
X75836666Y-73954819D02*
X75836666Y-74669104D01*
X75836666Y-74669104D02*
X75789047Y-74811961D01*
X75789047Y-74811961D02*
X75693809Y-74907200D01*
X75693809Y-74907200D02*
X75550952Y-74954819D01*
X75550952Y-74954819D02*
X75455714Y-74954819D01*
X76836666Y-74954819D02*
X76265238Y-74954819D01*
X76550952Y-74954819D02*
X76550952Y-73954819D01*
X76550952Y-73954819D02*
X76455714Y-74097676D01*
X76455714Y-74097676D02*
X76360476Y-74192914D01*
X76360476Y-74192914D02*
X76265238Y-74240533D01*
X83286666Y-56234819D02*
X83286666Y-56949104D01*
X83286666Y-56949104D02*
X83239047Y-57091961D01*
X83239047Y-57091961D02*
X83143809Y-57187200D01*
X83143809Y-57187200D02*
X83000952Y-57234819D01*
X83000952Y-57234819D02*
X82905714Y-57234819D01*
X83715238Y-56330057D02*
X83762857Y-56282438D01*
X83762857Y-56282438D02*
X83858095Y-56234819D01*
X83858095Y-56234819D02*
X84096190Y-56234819D01*
X84096190Y-56234819D02*
X84191428Y-56282438D01*
X84191428Y-56282438D02*
X84239047Y-56330057D01*
X84239047Y-56330057D02*
X84286666Y-56425295D01*
X84286666Y-56425295D02*
X84286666Y-56520533D01*
X84286666Y-56520533D02*
X84239047Y-56663390D01*
X84239047Y-56663390D02*
X83667619Y-57234819D01*
X83667619Y-57234819D02*
X84286666Y-57234819D01*
X60601905Y-77781009D02*
X60935238Y-77781009D01*
X61078095Y-78304819D02*
X60601905Y-78304819D01*
X60601905Y-78304819D02*
X60601905Y-77304819D01*
X60601905Y-77304819D02*
X61078095Y-77304819D01*
X61506667Y-78304819D02*
X61506667Y-77304819D01*
X61506667Y-77304819D02*
X62078095Y-78304819D01*
X62078095Y-78304819D02*
X62078095Y-77304819D01*
X63833333Y-78059580D02*
X63785714Y-78107200D01*
X63785714Y-78107200D02*
X63642857Y-78154819D01*
X63642857Y-78154819D02*
X63547619Y-78154819D01*
X63547619Y-78154819D02*
X63404762Y-78107200D01*
X63404762Y-78107200D02*
X63309524Y-78011961D01*
X63309524Y-78011961D02*
X63261905Y-77916723D01*
X63261905Y-77916723D02*
X63214286Y-77726247D01*
X63214286Y-77726247D02*
X63214286Y-77583390D01*
X63214286Y-77583390D02*
X63261905Y-77392914D01*
X63261905Y-77392914D02*
X63309524Y-77297676D01*
X63309524Y-77297676D02*
X63404762Y-77202438D01*
X63404762Y-77202438D02*
X63547619Y-77154819D01*
X63547619Y-77154819D02*
X63642857Y-77154819D01*
X63642857Y-77154819D02*
X63785714Y-77202438D01*
X63785714Y-77202438D02*
X63833333Y-77250057D01*
X64214286Y-77250057D02*
X64261905Y-77202438D01*
X64261905Y-77202438D02*
X64357143Y-77154819D01*
X64357143Y-77154819D02*
X64595238Y-77154819D01*
X64595238Y-77154819D02*
X64690476Y-77202438D01*
X64690476Y-77202438D02*
X64738095Y-77250057D01*
X64738095Y-77250057D02*
X64785714Y-77345295D01*
X64785714Y-77345295D02*
X64785714Y-77440533D01*
X64785714Y-77440533D02*
X64738095Y-77583390D01*
X64738095Y-77583390D02*
X64166667Y-78154819D01*
X64166667Y-78154819D02*
X64785714Y-78154819D01*
X52653333Y-54049580D02*
X52605714Y-54097200D01*
X52605714Y-54097200D02*
X52462857Y-54144819D01*
X52462857Y-54144819D02*
X52367619Y-54144819D01*
X52367619Y-54144819D02*
X52224762Y-54097200D01*
X52224762Y-54097200D02*
X52129524Y-54001961D01*
X52129524Y-54001961D02*
X52081905Y-53906723D01*
X52081905Y-53906723D02*
X52034286Y-53716247D01*
X52034286Y-53716247D02*
X52034286Y-53573390D01*
X52034286Y-53573390D02*
X52081905Y-53382914D01*
X52081905Y-53382914D02*
X52129524Y-53287676D01*
X52129524Y-53287676D02*
X52224762Y-53192438D01*
X52224762Y-53192438D02*
X52367619Y-53144819D01*
X52367619Y-53144819D02*
X52462857Y-53144819D01*
X52462857Y-53144819D02*
X52605714Y-53192438D01*
X52605714Y-53192438D02*
X52653333Y-53240057D01*
X53558095Y-53144819D02*
X53081905Y-53144819D01*
X53081905Y-53144819D02*
X53034286Y-53621009D01*
X53034286Y-53621009D02*
X53081905Y-53573390D01*
X53081905Y-53573390D02*
X53177143Y-53525771D01*
X53177143Y-53525771D02*
X53415238Y-53525771D01*
X53415238Y-53525771D02*
X53510476Y-53573390D01*
X53510476Y-53573390D02*
X53558095Y-53621009D01*
X53558095Y-53621009D02*
X53605714Y-53716247D01*
X53605714Y-53716247D02*
X53605714Y-53954342D01*
X53605714Y-53954342D02*
X53558095Y-54049580D01*
X53558095Y-54049580D02*
X53510476Y-54097200D01*
X53510476Y-54097200D02*
X53415238Y-54144819D01*
X53415238Y-54144819D02*
X53177143Y-54144819D01*
X53177143Y-54144819D02*
X53081905Y-54097200D01*
X53081905Y-54097200D02*
X53034286Y-54049580D01*
X52260000Y-78364819D02*
X52260000Y-77364819D01*
X52926666Y-77364819D02*
X53117142Y-77364819D01*
X53117142Y-77364819D02*
X53212380Y-77412438D01*
X53212380Y-77412438D02*
X53307618Y-77507676D01*
X53307618Y-77507676D02*
X53355237Y-77698152D01*
X53355237Y-77698152D02*
X53355237Y-78031485D01*
X53355237Y-78031485D02*
X53307618Y-78221961D01*
X53307618Y-78221961D02*
X53212380Y-78317200D01*
X53212380Y-78317200D02*
X53117142Y-78364819D01*
X53117142Y-78364819D02*
X52926666Y-78364819D01*
X52926666Y-78364819D02*
X52831428Y-78317200D01*
X52831428Y-78317200D02*
X52736190Y-78221961D01*
X52736190Y-78221961D02*
X52688571Y-78031485D01*
X52688571Y-78031485D02*
X52688571Y-77698152D01*
X52688571Y-77698152D02*
X52736190Y-77507676D01*
X52736190Y-77507676D02*
X52831428Y-77412438D01*
X52831428Y-77412438D02*
X52926666Y-77364819D01*
X53831428Y-78364819D02*
X54021904Y-78364819D01*
X54021904Y-78364819D02*
X54117142Y-78317200D01*
X54117142Y-78317200D02*
X54164761Y-78269580D01*
X54164761Y-78269580D02*
X54259999Y-78126723D01*
X54259999Y-78126723D02*
X54307618Y-77936247D01*
X54307618Y-77936247D02*
X54307618Y-77555295D01*
X54307618Y-77555295D02*
X54259999Y-77460057D01*
X54259999Y-77460057D02*
X54212380Y-77412438D01*
X54212380Y-77412438D02*
X54117142Y-77364819D01*
X54117142Y-77364819D02*
X53926666Y-77364819D01*
X53926666Y-77364819D02*
X53831428Y-77412438D01*
X53831428Y-77412438D02*
X53783809Y-77460057D01*
X53783809Y-77460057D02*
X53736190Y-77555295D01*
X53736190Y-77555295D02*
X53736190Y-77793390D01*
X53736190Y-77793390D02*
X53783809Y-77888628D01*
X53783809Y-77888628D02*
X53831428Y-77936247D01*
X53831428Y-77936247D02*
X53926666Y-77983866D01*
X53926666Y-77983866D02*
X54117142Y-77983866D01*
X54117142Y-77983866D02*
X54212380Y-77936247D01*
X54212380Y-77936247D02*
X54259999Y-77888628D01*
X54259999Y-77888628D02*
X54307618Y-77793390D01*
X74808095Y-64524819D02*
X74808095Y-65334342D01*
X74808095Y-65334342D02*
X74855714Y-65429580D01*
X74855714Y-65429580D02*
X74903333Y-65477200D01*
X74903333Y-65477200D02*
X74998571Y-65524819D01*
X74998571Y-65524819D02*
X75189047Y-65524819D01*
X75189047Y-65524819D02*
X75284285Y-65477200D01*
X75284285Y-65477200D02*
X75331904Y-65429580D01*
X75331904Y-65429580D02*
X75379523Y-65334342D01*
X75379523Y-65334342D02*
X75379523Y-64524819D01*
X75808095Y-64620057D02*
X75855714Y-64572438D01*
X75855714Y-64572438D02*
X75950952Y-64524819D01*
X75950952Y-64524819D02*
X76189047Y-64524819D01*
X76189047Y-64524819D02*
X76284285Y-64572438D01*
X76284285Y-64572438D02*
X76331904Y-64620057D01*
X76331904Y-64620057D02*
X76379523Y-64715295D01*
X76379523Y-64715295D02*
X76379523Y-64810533D01*
X76379523Y-64810533D02*
X76331904Y-64953390D01*
X76331904Y-64953390D02*
X75760476Y-65524819D01*
X75760476Y-65524819D02*
X76379523Y-65524819D01*
X58343333Y-66044819D02*
X58010000Y-65568628D01*
X57771905Y-66044819D02*
X57771905Y-65044819D01*
X57771905Y-65044819D02*
X58152857Y-65044819D01*
X58152857Y-65044819D02*
X58248095Y-65092438D01*
X58248095Y-65092438D02*
X58295714Y-65140057D01*
X58295714Y-65140057D02*
X58343333Y-65235295D01*
X58343333Y-65235295D02*
X58343333Y-65378152D01*
X58343333Y-65378152D02*
X58295714Y-65473390D01*
X58295714Y-65473390D02*
X58248095Y-65521009D01*
X58248095Y-65521009D02*
X58152857Y-65568628D01*
X58152857Y-65568628D02*
X57771905Y-65568628D01*
X59200476Y-65044819D02*
X59010000Y-65044819D01*
X59010000Y-65044819D02*
X58914762Y-65092438D01*
X58914762Y-65092438D02*
X58867143Y-65140057D01*
X58867143Y-65140057D02*
X58771905Y-65282914D01*
X58771905Y-65282914D02*
X58724286Y-65473390D01*
X58724286Y-65473390D02*
X58724286Y-65854342D01*
X58724286Y-65854342D02*
X58771905Y-65949580D01*
X58771905Y-65949580D02*
X58819524Y-65997200D01*
X58819524Y-65997200D02*
X58914762Y-66044819D01*
X58914762Y-66044819D02*
X59105238Y-66044819D01*
X59105238Y-66044819D02*
X59200476Y-65997200D01*
X59200476Y-65997200D02*
X59248095Y-65949580D01*
X59248095Y-65949580D02*
X59295714Y-65854342D01*
X59295714Y-65854342D02*
X59295714Y-65616247D01*
X59295714Y-65616247D02*
X59248095Y-65521009D01*
X59248095Y-65521009D02*
X59200476Y-65473390D01*
X59200476Y-65473390D02*
X59105238Y-65425771D01*
X59105238Y-65425771D02*
X58914762Y-65425771D01*
X58914762Y-65425771D02*
X58819524Y-65473390D01*
X58819524Y-65473390D02*
X58771905Y-65521009D01*
X58771905Y-65521009D02*
X58724286Y-65616247D01*
X77933333Y-68844819D02*
X77600000Y-68368628D01*
X77361905Y-68844819D02*
X77361905Y-67844819D01*
X77361905Y-67844819D02*
X77742857Y-67844819D01*
X77742857Y-67844819D02*
X77838095Y-67892438D01*
X77838095Y-67892438D02*
X77885714Y-67940057D01*
X77885714Y-67940057D02*
X77933333Y-68035295D01*
X77933333Y-68035295D02*
X77933333Y-68178152D01*
X77933333Y-68178152D02*
X77885714Y-68273390D01*
X77885714Y-68273390D02*
X77838095Y-68321009D01*
X77838095Y-68321009D02*
X77742857Y-68368628D01*
X77742857Y-68368628D02*
X77361905Y-68368628D01*
X78790476Y-68178152D02*
X78790476Y-68844819D01*
X78552381Y-67797200D02*
X78314286Y-68511485D01*
X78314286Y-68511485D02*
X78933333Y-68511485D01*
X77663333Y-72754819D02*
X77330000Y-72278628D01*
X77091905Y-72754819D02*
X77091905Y-71754819D01*
X77091905Y-71754819D02*
X77472857Y-71754819D01*
X77472857Y-71754819D02*
X77568095Y-71802438D01*
X77568095Y-71802438D02*
X77615714Y-71850057D01*
X77615714Y-71850057D02*
X77663333Y-71945295D01*
X77663333Y-71945295D02*
X77663333Y-72088152D01*
X77663333Y-72088152D02*
X77615714Y-72183390D01*
X77615714Y-72183390D02*
X77568095Y-72231009D01*
X77568095Y-72231009D02*
X77472857Y-72278628D01*
X77472857Y-72278628D02*
X77091905Y-72278628D01*
X78615714Y-72754819D02*
X78044286Y-72754819D01*
X78330000Y-72754819D02*
X78330000Y-71754819D01*
X78330000Y-71754819D02*
X78234762Y-71897676D01*
X78234762Y-71897676D02*
X78139524Y-71992914D01*
X78139524Y-71992914D02*
X78044286Y-72040533D01*
X53903333Y-59354819D02*
X53570000Y-58878628D01*
X53331905Y-59354819D02*
X53331905Y-58354819D01*
X53331905Y-58354819D02*
X53712857Y-58354819D01*
X53712857Y-58354819D02*
X53808095Y-58402438D01*
X53808095Y-58402438D02*
X53855714Y-58450057D01*
X53855714Y-58450057D02*
X53903333Y-58545295D01*
X53903333Y-58545295D02*
X53903333Y-58688152D01*
X53903333Y-58688152D02*
X53855714Y-58783390D01*
X53855714Y-58783390D02*
X53808095Y-58831009D01*
X53808095Y-58831009D02*
X53712857Y-58878628D01*
X53712857Y-58878628D02*
X53331905Y-58878628D01*
X54236667Y-58354819D02*
X54903333Y-58354819D01*
X54903333Y-58354819D02*
X54474762Y-59354819D01*
X53943333Y-62904819D02*
X53610000Y-62428628D01*
X53371905Y-62904819D02*
X53371905Y-61904819D01*
X53371905Y-61904819D02*
X53752857Y-61904819D01*
X53752857Y-61904819D02*
X53848095Y-61952438D01*
X53848095Y-61952438D02*
X53895714Y-62000057D01*
X53895714Y-62000057D02*
X53943333Y-62095295D01*
X53943333Y-62095295D02*
X53943333Y-62238152D01*
X53943333Y-62238152D02*
X53895714Y-62333390D01*
X53895714Y-62333390D02*
X53848095Y-62381009D01*
X53848095Y-62381009D02*
X53752857Y-62428628D01*
X53752857Y-62428628D02*
X53371905Y-62428628D01*
X54848095Y-61904819D02*
X54371905Y-61904819D01*
X54371905Y-61904819D02*
X54324286Y-62381009D01*
X54324286Y-62381009D02*
X54371905Y-62333390D01*
X54371905Y-62333390D02*
X54467143Y-62285771D01*
X54467143Y-62285771D02*
X54705238Y-62285771D01*
X54705238Y-62285771D02*
X54800476Y-62333390D01*
X54800476Y-62333390D02*
X54848095Y-62381009D01*
X54848095Y-62381009D02*
X54895714Y-62476247D01*
X54895714Y-62476247D02*
X54895714Y-62714342D01*
X54895714Y-62714342D02*
X54848095Y-62809580D01*
X54848095Y-62809580D02*
X54800476Y-62857200D01*
X54800476Y-62857200D02*
X54705238Y-62904819D01*
X54705238Y-62904819D02*
X54467143Y-62904819D01*
X54467143Y-62904819D02*
X54371905Y-62857200D01*
X54371905Y-62857200D02*
X54324286Y-62809580D01*
X60271905Y-79914819D02*
X60890952Y-79914819D01*
X60890952Y-79914819D02*
X60557619Y-80295771D01*
X60557619Y-80295771D02*
X60700476Y-80295771D01*
X60700476Y-80295771D02*
X60795714Y-80343390D01*
X60795714Y-80343390D02*
X60843333Y-80391009D01*
X60843333Y-80391009D02*
X60890952Y-80486247D01*
X60890952Y-80486247D02*
X60890952Y-80724342D01*
X60890952Y-80724342D02*
X60843333Y-80819580D01*
X60843333Y-80819580D02*
X60795714Y-80867200D01*
X60795714Y-80867200D02*
X60700476Y-80914819D01*
X60700476Y-80914819D02*
X60414762Y-80914819D01*
X60414762Y-80914819D02*
X60319524Y-80867200D01*
X60319524Y-80867200D02*
X60271905Y-80819580D01*
X61176667Y-79914819D02*
X61510000Y-80914819D01*
X61510000Y-80914819D02*
X61843333Y-79914819D01*
X62081429Y-79914819D02*
X62700476Y-79914819D01*
X62700476Y-79914819D02*
X62367143Y-80295771D01*
X62367143Y-80295771D02*
X62510000Y-80295771D01*
X62510000Y-80295771D02*
X62605238Y-80343390D01*
X62605238Y-80343390D02*
X62652857Y-80391009D01*
X62652857Y-80391009D02*
X62700476Y-80486247D01*
X62700476Y-80486247D02*
X62700476Y-80724342D01*
X62700476Y-80724342D02*
X62652857Y-80819580D01*
X62652857Y-80819580D02*
X62605238Y-80867200D01*
X62605238Y-80867200D02*
X62510000Y-80914819D01*
X62510000Y-80914819D02*
X62224286Y-80914819D01*
X62224286Y-80914819D02*
X62129048Y-80867200D01*
X62129048Y-80867200D02*
X62081429Y-80819580D01*
X52683333Y-52009580D02*
X52635714Y-52057200D01*
X52635714Y-52057200D02*
X52492857Y-52104819D01*
X52492857Y-52104819D02*
X52397619Y-52104819D01*
X52397619Y-52104819D02*
X52254762Y-52057200D01*
X52254762Y-52057200D02*
X52159524Y-51961961D01*
X52159524Y-51961961D02*
X52111905Y-51866723D01*
X52111905Y-51866723D02*
X52064286Y-51676247D01*
X52064286Y-51676247D02*
X52064286Y-51533390D01*
X52064286Y-51533390D02*
X52111905Y-51342914D01*
X52111905Y-51342914D02*
X52159524Y-51247676D01*
X52159524Y-51247676D02*
X52254762Y-51152438D01*
X52254762Y-51152438D02*
X52397619Y-51104819D01*
X52397619Y-51104819D02*
X52492857Y-51104819D01*
X52492857Y-51104819D02*
X52635714Y-51152438D01*
X52635714Y-51152438D02*
X52683333Y-51200057D01*
X53540476Y-51438152D02*
X53540476Y-52104819D01*
X53302381Y-51057200D02*
X53064286Y-51771485D01*
X53064286Y-51771485D02*
X53683333Y-51771485D01*
X53832857Y-66031009D02*
X53975714Y-66078628D01*
X53975714Y-66078628D02*
X54023333Y-66126247D01*
X54023333Y-66126247D02*
X54070952Y-66221485D01*
X54070952Y-66221485D02*
X54070952Y-66364342D01*
X54070952Y-66364342D02*
X54023333Y-66459580D01*
X54023333Y-66459580D02*
X53975714Y-66507200D01*
X53975714Y-66507200D02*
X53880476Y-66554819D01*
X53880476Y-66554819D02*
X53499524Y-66554819D01*
X53499524Y-66554819D02*
X53499524Y-65554819D01*
X53499524Y-65554819D02*
X53832857Y-65554819D01*
X53832857Y-65554819D02*
X53928095Y-65602438D01*
X53928095Y-65602438D02*
X53975714Y-65650057D01*
X53975714Y-65650057D02*
X54023333Y-65745295D01*
X54023333Y-65745295D02*
X54023333Y-65840533D01*
X54023333Y-65840533D02*
X53975714Y-65935771D01*
X53975714Y-65935771D02*
X53928095Y-65983390D01*
X53928095Y-65983390D02*
X53832857Y-66031009D01*
X53832857Y-66031009D02*
X53499524Y-66031009D01*
X54690000Y-65554819D02*
X54880476Y-65554819D01*
X54880476Y-65554819D02*
X54975714Y-65602438D01*
X54975714Y-65602438D02*
X55070952Y-65697676D01*
X55070952Y-65697676D02*
X55118571Y-65888152D01*
X55118571Y-65888152D02*
X55118571Y-66221485D01*
X55118571Y-66221485D02*
X55070952Y-66411961D01*
X55070952Y-66411961D02*
X54975714Y-66507200D01*
X54975714Y-66507200D02*
X54880476Y-66554819D01*
X54880476Y-66554819D02*
X54690000Y-66554819D01*
X54690000Y-66554819D02*
X54594762Y-66507200D01*
X54594762Y-66507200D02*
X54499524Y-66411961D01*
X54499524Y-66411961D02*
X54451905Y-66221485D01*
X54451905Y-66221485D02*
X54451905Y-65888152D01*
X54451905Y-65888152D02*
X54499524Y-65697676D01*
X54499524Y-65697676D02*
X54594762Y-65602438D01*
X54594762Y-65602438D02*
X54690000Y-65554819D01*
X55737619Y-65554819D02*
X55928095Y-65554819D01*
X55928095Y-65554819D02*
X56023333Y-65602438D01*
X56023333Y-65602438D02*
X56118571Y-65697676D01*
X56118571Y-65697676D02*
X56166190Y-65888152D01*
X56166190Y-65888152D02*
X56166190Y-66221485D01*
X56166190Y-66221485D02*
X56118571Y-66411961D01*
X56118571Y-66411961D02*
X56023333Y-66507200D01*
X56023333Y-66507200D02*
X55928095Y-66554819D01*
X55928095Y-66554819D02*
X55737619Y-66554819D01*
X55737619Y-66554819D02*
X55642381Y-66507200D01*
X55642381Y-66507200D02*
X55547143Y-66411961D01*
X55547143Y-66411961D02*
X55499524Y-66221485D01*
X55499524Y-66221485D02*
X55499524Y-65888152D01*
X55499524Y-65888152D02*
X55547143Y-65697676D01*
X55547143Y-65697676D02*
X55642381Y-65602438D01*
X55642381Y-65602438D02*
X55737619Y-65554819D01*
X56451905Y-65554819D02*
X57023333Y-65554819D01*
X56737619Y-66554819D02*
X56737619Y-65554819D01*
X71082380Y-68934819D02*
X70749047Y-68458628D01*
X70510952Y-68934819D02*
X70510952Y-67934819D01*
X70510952Y-67934819D02*
X70891904Y-67934819D01*
X70891904Y-67934819D02*
X70987142Y-67982438D01*
X70987142Y-67982438D02*
X71034761Y-68030057D01*
X71034761Y-68030057D02*
X71082380Y-68125295D01*
X71082380Y-68125295D02*
X71082380Y-68268152D01*
X71082380Y-68268152D02*
X71034761Y-68363390D01*
X71034761Y-68363390D02*
X70987142Y-68411009D01*
X70987142Y-68411009D02*
X70891904Y-68458628D01*
X70891904Y-68458628D02*
X70510952Y-68458628D01*
X71463333Y-68887200D02*
X71606190Y-68934819D01*
X71606190Y-68934819D02*
X71844285Y-68934819D01*
X71844285Y-68934819D02*
X71939523Y-68887200D01*
X71939523Y-68887200D02*
X71987142Y-68839580D01*
X71987142Y-68839580D02*
X72034761Y-68744342D01*
X72034761Y-68744342D02*
X72034761Y-68649104D01*
X72034761Y-68649104D02*
X71987142Y-68553866D01*
X71987142Y-68553866D02*
X71939523Y-68506247D01*
X71939523Y-68506247D02*
X71844285Y-68458628D01*
X71844285Y-68458628D02*
X71653809Y-68411009D01*
X71653809Y-68411009D02*
X71558571Y-68363390D01*
X71558571Y-68363390D02*
X71510952Y-68315771D01*
X71510952Y-68315771D02*
X71463333Y-68220533D01*
X71463333Y-68220533D02*
X71463333Y-68125295D01*
X71463333Y-68125295D02*
X71510952Y-68030057D01*
X71510952Y-68030057D02*
X71558571Y-67982438D01*
X71558571Y-67982438D02*
X71653809Y-67934819D01*
X71653809Y-67934819D02*
X71891904Y-67934819D01*
X71891904Y-67934819D02*
X72034761Y-67982438D01*
X72320476Y-67934819D02*
X72891904Y-67934819D01*
X72606190Y-68934819D02*
X72606190Y-67934819D01*
X70953333Y-78039580D02*
X70905714Y-78087200D01*
X70905714Y-78087200D02*
X70762857Y-78134819D01*
X70762857Y-78134819D02*
X70667619Y-78134819D01*
X70667619Y-78134819D02*
X70524762Y-78087200D01*
X70524762Y-78087200D02*
X70429524Y-77991961D01*
X70429524Y-77991961D02*
X70381905Y-77896723D01*
X70381905Y-77896723D02*
X70334286Y-77706247D01*
X70334286Y-77706247D02*
X70334286Y-77563390D01*
X70334286Y-77563390D02*
X70381905Y-77372914D01*
X70381905Y-77372914D02*
X70429524Y-77277676D01*
X70429524Y-77277676D02*
X70524762Y-77182438D01*
X70524762Y-77182438D02*
X70667619Y-77134819D01*
X70667619Y-77134819D02*
X70762857Y-77134819D01*
X70762857Y-77134819D02*
X70905714Y-77182438D01*
X70905714Y-77182438D02*
X70953333Y-77230057D01*
X71905714Y-78134819D02*
X71334286Y-78134819D01*
X71620000Y-78134819D02*
X71620000Y-77134819D01*
X71620000Y-77134819D02*
X71524762Y-77277676D01*
X71524762Y-77277676D02*
X71429524Y-77372914D01*
X71429524Y-77372914D02*
X71334286Y-77420533D01*
X77893333Y-71054819D02*
X77560000Y-70578628D01*
X77321905Y-71054819D02*
X77321905Y-70054819D01*
X77321905Y-70054819D02*
X77702857Y-70054819D01*
X77702857Y-70054819D02*
X77798095Y-70102438D01*
X77798095Y-70102438D02*
X77845714Y-70150057D01*
X77845714Y-70150057D02*
X77893333Y-70245295D01*
X77893333Y-70245295D02*
X77893333Y-70388152D01*
X77893333Y-70388152D02*
X77845714Y-70483390D01*
X77845714Y-70483390D02*
X77798095Y-70531009D01*
X77798095Y-70531009D02*
X77702857Y-70578628D01*
X77702857Y-70578628D02*
X77321905Y-70578628D01*
X78226667Y-70054819D02*
X78845714Y-70054819D01*
X78845714Y-70054819D02*
X78512381Y-70435771D01*
X78512381Y-70435771D02*
X78655238Y-70435771D01*
X78655238Y-70435771D02*
X78750476Y-70483390D01*
X78750476Y-70483390D02*
X78798095Y-70531009D01*
X78798095Y-70531009D02*
X78845714Y-70626247D01*
X78845714Y-70626247D02*
X78845714Y-70864342D01*
X78845714Y-70864342D02*
X78798095Y-70959580D01*
X78798095Y-70959580D02*
X78750476Y-71007200D01*
X78750476Y-71007200D02*
X78655238Y-71054819D01*
X78655238Y-71054819D02*
X78369524Y-71054819D01*
X78369524Y-71054819D02*
X78274286Y-71007200D01*
X78274286Y-71007200D02*
X78226667Y-70959580D01*
X72749523Y-70844819D02*
X72273333Y-70844819D01*
X72273333Y-70844819D02*
X72225714Y-71321009D01*
X72225714Y-71321009D02*
X72273333Y-71273390D01*
X72273333Y-71273390D02*
X72368571Y-71225771D01*
X72368571Y-71225771D02*
X72606666Y-71225771D01*
X72606666Y-71225771D02*
X72701904Y-71273390D01*
X72701904Y-71273390D02*
X72749523Y-71321009D01*
X72749523Y-71321009D02*
X72797142Y-71416247D01*
X72797142Y-71416247D02*
X72797142Y-71654342D01*
X72797142Y-71654342D02*
X72749523Y-71749580D01*
X72749523Y-71749580D02*
X72701904Y-71797200D01*
X72701904Y-71797200D02*
X72606666Y-71844819D01*
X72606666Y-71844819D02*
X72368571Y-71844819D01*
X72368571Y-71844819D02*
X72273333Y-71797200D01*
X72273333Y-71797200D02*
X72225714Y-71749580D01*
X73082857Y-70844819D02*
X73416190Y-71844819D01*
X73416190Y-71844819D02*
X73749523Y-70844819D01*
X52678095Y-80062438D02*
X52582857Y-80014819D01*
X52582857Y-80014819D02*
X52440000Y-80014819D01*
X52440000Y-80014819D02*
X52297143Y-80062438D01*
X52297143Y-80062438D02*
X52201905Y-80157676D01*
X52201905Y-80157676D02*
X52154286Y-80252914D01*
X52154286Y-80252914D02*
X52106667Y-80443390D01*
X52106667Y-80443390D02*
X52106667Y-80586247D01*
X52106667Y-80586247D02*
X52154286Y-80776723D01*
X52154286Y-80776723D02*
X52201905Y-80871961D01*
X52201905Y-80871961D02*
X52297143Y-80967200D01*
X52297143Y-80967200D02*
X52440000Y-81014819D01*
X52440000Y-81014819D02*
X52535238Y-81014819D01*
X52535238Y-81014819D02*
X52678095Y-80967200D01*
X52678095Y-80967200D02*
X52725714Y-80919580D01*
X52725714Y-80919580D02*
X52725714Y-80586247D01*
X52725714Y-80586247D02*
X52535238Y-80586247D01*
X53154286Y-81014819D02*
X53154286Y-80014819D01*
X53154286Y-80014819D02*
X53725714Y-81014819D01*
X53725714Y-81014819D02*
X53725714Y-80014819D01*
X54201905Y-81014819D02*
X54201905Y-80014819D01*
X54201905Y-80014819D02*
X54440000Y-80014819D01*
X54440000Y-80014819D02*
X54582857Y-80062438D01*
X54582857Y-80062438D02*
X54678095Y-80157676D01*
X54678095Y-80157676D02*
X54725714Y-80252914D01*
X54725714Y-80252914D02*
X54773333Y-80443390D01*
X54773333Y-80443390D02*
X54773333Y-80586247D01*
X54773333Y-80586247D02*
X54725714Y-80776723D01*
X54725714Y-80776723D02*
X54678095Y-80871961D01*
X54678095Y-80871961D02*
X54582857Y-80967200D01*
X54582857Y-80967200D02*
X54440000Y-81014819D01*
X54440000Y-81014819D02*
X54201905Y-81014819D01*
X69713333Y-65939580D02*
X69665714Y-65987200D01*
X69665714Y-65987200D02*
X69522857Y-66034819D01*
X69522857Y-66034819D02*
X69427619Y-66034819D01*
X69427619Y-66034819D02*
X69284762Y-65987200D01*
X69284762Y-65987200D02*
X69189524Y-65891961D01*
X69189524Y-65891961D02*
X69141905Y-65796723D01*
X69141905Y-65796723D02*
X69094286Y-65606247D01*
X69094286Y-65606247D02*
X69094286Y-65463390D01*
X69094286Y-65463390D02*
X69141905Y-65272914D01*
X69141905Y-65272914D02*
X69189524Y-65177676D01*
X69189524Y-65177676D02*
X69284762Y-65082438D01*
X69284762Y-65082438D02*
X69427619Y-65034819D01*
X69427619Y-65034819D02*
X69522857Y-65034819D01*
X69522857Y-65034819D02*
X69665714Y-65082438D01*
X69665714Y-65082438D02*
X69713333Y-65130057D01*
X70046667Y-65034819D02*
X70665714Y-65034819D01*
X70665714Y-65034819D02*
X70332381Y-65415771D01*
X70332381Y-65415771D02*
X70475238Y-65415771D01*
X70475238Y-65415771D02*
X70570476Y-65463390D01*
X70570476Y-65463390D02*
X70618095Y-65511009D01*
X70618095Y-65511009D02*
X70665714Y-65606247D01*
X70665714Y-65606247D02*
X70665714Y-65844342D01*
X70665714Y-65844342D02*
X70618095Y-65939580D01*
X70618095Y-65939580D02*
X70570476Y-65987200D01*
X70570476Y-65987200D02*
X70475238Y-66034819D01*
X70475238Y-66034819D02*
X70189524Y-66034819D01*
X70189524Y-66034819D02*
X70094286Y-65987200D01*
X70094286Y-65987200D02*
X70046667Y-65939580D01*
X70318095Y-80464819D02*
X70318095Y-81274342D01*
X70318095Y-81274342D02*
X70365714Y-81369580D01*
X70365714Y-81369580D02*
X70413333Y-81417200D01*
X70413333Y-81417200D02*
X70508571Y-81464819D01*
X70508571Y-81464819D02*
X70699047Y-81464819D01*
X70699047Y-81464819D02*
X70794285Y-81417200D01*
X70794285Y-81417200D02*
X70841904Y-81369580D01*
X70841904Y-81369580D02*
X70889523Y-81274342D01*
X70889523Y-81274342D02*
X70889523Y-80464819D01*
X71889523Y-81464819D02*
X71318095Y-81464819D01*
X71603809Y-81464819D02*
X71603809Y-80464819D01*
X71603809Y-80464819D02*
X71508571Y-80607676D01*
X71508571Y-80607676D02*
X71413333Y-80702914D01*
X71413333Y-80702914D02*
X71318095Y-80750533D01*
D11*
X80907064Y-72345000D02*
X80452936Y-72345000D01*
X80907064Y-73815000D02*
X80452936Y-73815000D01*
D12*
X73500000Y-78215000D02*
X73500000Y-79465000D01*
X73500000Y-82185000D02*
X73500000Y-83465000D01*
X82440000Y-78215000D02*
X82440000Y-79465000D01*
X82440000Y-83465000D02*
X82440000Y-82185000D01*
X74820000Y-74865000D02*
G75*
G02*
X74620000Y-74865000I-100000J0D01*
G01*
X74620000Y-74865000D02*
G75*
G02*
X74820000Y-74865000I100000J0D01*
G01*
D11*
X79990000Y-63630000D02*
X79990000Y-50870000D01*
X79990000Y-66230000D02*
X79990000Y-64900000D01*
X81320000Y-66230000D02*
X79990000Y-66230000D01*
X82650000Y-50870000D02*
X79990000Y-50870000D01*
X82650000Y-63630000D02*
X79990000Y-63630000D01*
X82650000Y-63630000D02*
X82650000Y-50870000D01*
X59950000Y-77850000D02*
G75*
G02*
X58550000Y-77850000I-700000J0D01*
G01*
X58550000Y-77850000D02*
G75*
G02*
X59950000Y-77850000I700000J0D01*
G01*
X63305000Y-80791252D02*
X63305000Y-80268748D01*
X64775000Y-80791252D02*
X64775000Y-80268748D01*
X55991252Y-52945000D02*
X55468748Y-52945000D01*
X55991252Y-54415000D02*
X55468748Y-54415000D01*
X56420000Y-77840000D02*
G75*
G02*
X55020000Y-77840000I-700000J0D01*
G01*
X55020000Y-77840000D02*
G75*
G02*
X56420000Y-77840000I700000J0D01*
G01*
X58430000Y-43890000D02*
X58430000Y-49700000D01*
X58430000Y-43890000D02*
X76650000Y-43890000D01*
X58430000Y-63810000D02*
X58430000Y-64110000D01*
X58430000Y-64110000D02*
X76650000Y-64110000D01*
X76650000Y-43890000D02*
X76650000Y-50390000D01*
X76650000Y-63810000D02*
X76650000Y-64110000D01*
X58440000Y-50400000D02*
X57940000Y-50400000D01*
X58440000Y-49900000D01*
X58440000Y-50400000D01*
G36*
X58440000Y-50400000D02*
G01*
X57940000Y-50400000D01*
X58440000Y-49900000D01*
X58440000Y-50400000D01*
G37*
X61242936Y-64735000D02*
X61697064Y-64735000D01*
X61242936Y-66205000D02*
X61697064Y-66205000D01*
X81297064Y-67575000D02*
X80842936Y-67575000D01*
X81297064Y-69045000D02*
X80842936Y-69045000D01*
X75195000Y-71592936D02*
X75195000Y-72047064D01*
X76665000Y-71592936D02*
X76665000Y-72047064D01*
X55405000Y-58402936D02*
X55405000Y-58857064D01*
X56875000Y-58402936D02*
X56875000Y-58857064D01*
X55415000Y-62817064D02*
X55415000Y-62362936D01*
X56885000Y-62817064D02*
X56885000Y-62362936D01*
X59700000Y-80340000D02*
G75*
G02*
X58300000Y-80340000I-700000J0D01*
G01*
X58300000Y-80340000D02*
G75*
G02*
X59700000Y-80340000I700000J0D01*
G01*
X55981252Y-50785000D02*
X55458748Y-50785000D01*
X55981252Y-52255000D02*
X55458748Y-52255000D01*
X54810000Y-69350000D02*
X54810000Y-73850000D01*
X57310000Y-75100000D02*
X58810000Y-75100000D01*
X58810000Y-68100000D02*
X57310000Y-68100000D01*
X61310000Y-73850000D02*
X61310000Y-69350000D01*
X63180000Y-69360000D02*
X63180000Y-73860000D01*
X65680000Y-75110000D02*
X67180000Y-75110000D01*
X67180000Y-68110000D02*
X65680000Y-68110000D01*
X69680000Y-73860000D02*
X69680000Y-69360000D01*
X68553752Y-76855000D02*
X68031248Y-76855000D01*
X68553752Y-78325000D02*
X68031248Y-78325000D01*
X81297064Y-69885000D02*
X80842936Y-69885000D01*
X81297064Y-71355000D02*
X80842936Y-71355000D01*
X73640000Y-73040000D02*
G75*
G02*
X72240000Y-73040000I-700000J0D01*
G01*
X72240000Y-73040000D02*
G75*
G02*
X73640000Y-73040000I700000J0D01*
G01*
X56690000Y-80420000D02*
G75*
G02*
X55290000Y-80420000I-700000J0D01*
G01*
X55290000Y-80420000D02*
G75*
G02*
X56690000Y-80420000I700000J0D01*
G01*
X66628748Y-64825000D02*
X67151252Y-64825000D01*
X66628748Y-66295000D02*
X67151252Y-66295000D01*
X67660000Y-82190000D02*
X66860000Y-82190000D01*
X67660000Y-82190000D02*
X68460000Y-82190000D01*
X68660000Y-78970000D02*
X66860000Y-78970000D01*
X68960000Y-82140000D02*
X69200000Y-82470000D01*
X68720000Y-82470000D01*
X68960000Y-82140000D01*
G36*
X69200000Y-82470000D02*
G01*
X68720000Y-82470000D01*
X68960000Y-82140000D01*
X69200000Y-82470000D01*
G37*
%LPC*%
D13*
X74420000Y-75485000D02*
X75120000Y-75485000D01*
X75120000Y-76735000D01*
X74420000Y-76735000D01*
X74420000Y-75485000D01*
G36*
X75120000Y-76735000D02*
G01*
X74420000Y-76735000D01*
X74420000Y-75485000D01*
X75120000Y-75485000D01*
X75120000Y-76735000D01*
G37*
X75220000Y-75485000D02*
X75920000Y-75485000D01*
X75920000Y-76735000D01*
X75220000Y-76735000D01*
X75220000Y-75485000D01*
G36*
X75920000Y-76735000D02*
G01*
X75220000Y-76735000D01*
X75220000Y-75485000D01*
X75920000Y-75485000D01*
X75920000Y-76735000D01*
G37*
X76020000Y-75485000D02*
X76420000Y-75485000D01*
X76420000Y-76735000D01*
X76020000Y-76735000D01*
X76020000Y-75485000D01*
G36*
X76420000Y-76735000D02*
G01*
X76020000Y-76735000D01*
X76020000Y-75485000D01*
X76420000Y-75485000D01*
X76420000Y-76735000D01*
G37*
X76520000Y-75485000D02*
X76920000Y-75485000D01*
X76920000Y-76735000D01*
X76520000Y-76735000D01*
X76520000Y-75485000D01*
G36*
X76920000Y-76735000D02*
G01*
X76520000Y-76735000D01*
X76520000Y-75485000D01*
X76920000Y-75485000D01*
X76920000Y-76735000D01*
G37*
X77020000Y-75485000D02*
X77420000Y-75485000D01*
X77420000Y-76735000D01*
X77020000Y-76735000D01*
X77020000Y-75485000D01*
G36*
X77420000Y-76735000D02*
G01*
X77020000Y-76735000D01*
X77020000Y-75485000D01*
X77420000Y-75485000D01*
X77420000Y-76735000D01*
G37*
X77520000Y-75485000D02*
X77920000Y-75485000D01*
X77920000Y-76735000D01*
X77520000Y-76735000D01*
X77520000Y-75485000D01*
G36*
X77920000Y-76735000D02*
G01*
X77520000Y-76735000D01*
X77520000Y-75485000D01*
X77920000Y-75485000D01*
X77920000Y-76735000D01*
G37*
X78020000Y-75485000D02*
X78420000Y-75485000D01*
X78420000Y-76735000D01*
X78020000Y-76735000D01*
X78020000Y-75485000D01*
G36*
X78420000Y-76735000D02*
G01*
X78020000Y-76735000D01*
X78020000Y-75485000D01*
X78420000Y-75485000D01*
X78420000Y-76735000D01*
G37*
X78520000Y-75485000D02*
X78920000Y-75485000D01*
X78920000Y-76735000D01*
X78520000Y-76735000D01*
X78520000Y-75485000D01*
G36*
X78920000Y-76735000D02*
G01*
X78520000Y-76735000D01*
X78520000Y-75485000D01*
X78920000Y-75485000D01*
X78920000Y-76735000D01*
G37*
X79020000Y-75485000D02*
X79420000Y-75485000D01*
X79420000Y-76735000D01*
X79020000Y-76735000D01*
X79020000Y-75485000D01*
G36*
X79420000Y-76735000D02*
G01*
X79020000Y-76735000D01*
X79020000Y-75485000D01*
X79420000Y-75485000D01*
X79420000Y-76735000D01*
G37*
X79520000Y-75485000D02*
X79920000Y-75485000D01*
X79920000Y-76735000D01*
X79520000Y-76735000D01*
X79520000Y-75485000D01*
G36*
X79920000Y-76735000D02*
G01*
X79520000Y-76735000D01*
X79520000Y-75485000D01*
X79920000Y-75485000D01*
X79920000Y-76735000D01*
G37*
X80020000Y-75485000D02*
X80720000Y-75485000D01*
X80720000Y-76735000D01*
X80020000Y-76735000D01*
X80020000Y-75485000D01*
G36*
X80720000Y-76735000D02*
G01*
X80020000Y-76735000D01*
X80020000Y-75485000D01*
X80720000Y-75485000D01*
X80720000Y-76735000D01*
G37*
X80820000Y-75485000D02*
X81520000Y-75485000D01*
X81520000Y-76735000D01*
X80820000Y-76735000D01*
X80820000Y-75485000D01*
G36*
X81520000Y-76735000D02*
G01*
X80820000Y-76735000D01*
X80820000Y-75485000D01*
X81520000Y-75485000D01*
X81520000Y-76735000D01*
G37*
D14*
X81680000Y-73080000D03*
X79680000Y-73080000D03*
D15*
X75080000Y-77185000D03*
X80860000Y-77185000D03*
D16*
X73650000Y-76685000D03*
X82290000Y-76685000D03*
D17*
X73650000Y-80865000D03*
X82290000Y-80865000D03*
D18*
X81320000Y-64900000D03*
D19*
X81320000Y-62360000D03*
X81320000Y-59820000D03*
X81320000Y-57280000D03*
X81320000Y-54740000D03*
X81320000Y-52200000D03*
D20*
X59250000Y-77850000D03*
D21*
X64040000Y-81567500D03*
X64040000Y-79492500D03*
D22*
X56767500Y-53680000D03*
X54692500Y-53680000D03*
D20*
X55720000Y-77840000D03*
D23*
X58790000Y-51100000D03*
X58790000Y-52600000D03*
X58790000Y-54100000D03*
X58790000Y-55600000D03*
X58790000Y-57100000D03*
X58790000Y-58600000D03*
X58790000Y-60100000D03*
X58790000Y-61600000D03*
X58790000Y-63100000D03*
X76290000Y-63100000D03*
X76290000Y-61600000D03*
X76290000Y-60100000D03*
X76290000Y-58600000D03*
X76290000Y-57100000D03*
X76290000Y-55600000D03*
X76290000Y-54100000D03*
X76290000Y-52600000D03*
X76290000Y-51100000D03*
D24*
X67400000Y-56750000D03*
X67400000Y-57850000D03*
X67950000Y-56200000D03*
X67950000Y-57300000D03*
X67950000Y-58400000D03*
X68500000Y-56750000D03*
D25*
X68500000Y-57300000D03*
D24*
X68500000Y-57850000D03*
X69050000Y-56200000D03*
X69050000Y-57300000D03*
X69050000Y-58400000D03*
X69600000Y-56750000D03*
X69600000Y-57850000D03*
D26*
X60470000Y-65470000D03*
X62470000Y-65470000D03*
D14*
X82070000Y-68310000D03*
X80070000Y-68310000D03*
D27*
X75930000Y-70820000D03*
X75930000Y-72820000D03*
X56140000Y-57630000D03*
X56140000Y-59630000D03*
D28*
X56150000Y-63590000D03*
X56150000Y-61590000D03*
D20*
X59000000Y-80340000D03*
D22*
X56757500Y-51520000D03*
X54682500Y-51520000D03*
D29*
X60310000Y-68350000D03*
X60310000Y-74850000D03*
X55810000Y-68350000D03*
X55810000Y-74850000D03*
X64180000Y-74860000D03*
X64180000Y-68360000D03*
X68680000Y-74860000D03*
X68680000Y-68360000D03*
D22*
X69330000Y-77590000D03*
X67255000Y-77590000D03*
D14*
X82070000Y-70620000D03*
X80070000Y-70620000D03*
D20*
X72940000Y-73040000D03*
X55990000Y-80420000D03*
D30*
X65852500Y-65560000D03*
X67927500Y-65560000D03*
D31*
X69110000Y-81530000D03*
X69110000Y-80580000D03*
X69110000Y-79630000D03*
X66410000Y-79630000D03*
X66410000Y-81530000D03*
%LPD*%
M02*
