G04 #@! TF.GenerationSoftware,KiCad,Pcbnew,10.0.6*
G04 #@! TF.CreationDate,2026-09-05T21:38:56-04:00*
G04 #@! TF.ProjectId,KiCAD_ESP32_Sensor,4b694341-445f-4455-9350-33325f53656e,rev?*
G04 #@! TF.SameCoordinates,Original*
G04 #@! TF.FileFunction,Copper,L2,Bot*
G04 #@! TF.FilePolarity,Positive*
%FSLAX46Y46*%
G04 Gerber Fmt 4.6, Leading zero omitted, Abs format (unit mm)*
G04 Created by KiCad (PCBNEW 10.0.6) date 2026-09-05 21:38:56*
%MOMM*%
%LPD*%
G01*
G04 APERTURE LIST*
G04 #@! TA.AperFunction,ComponentPad*
%ADD10O,1.000000X2.100000*%
G04 #@! TD*
G04 #@! TA.AperFunction,ComponentPad*
%ADD11O,1.000000X1.800000*%
G04 #@! TD*
G04 #@! TA.AperFunction,HeatsinkPad*
%ADD12C,0.600000*%
G04 #@! TD*
G04 #@! TA.AperFunction,ComponentPad*
%ADD13R,1.700000X1.700000*%
G04 #@! TD*
G04 #@! TA.AperFunction,ComponentPad*
%ADD14C,1.700000*%
G04 #@! TD*
G04 #@! TA.AperFunction,ComponentPad*
%ADD15C,2.000000*%
G04 #@! TD*
G04 #@! TA.AperFunction,ViaPad*
%ADD16C,0.600000*%
G04 #@! TD*
G04 #@! TA.AperFunction,Conductor*
%ADD17C,0.500000*%
G04 #@! TD*
G04 #@! TA.AperFunction,Conductor*
%ADD18C,0.200000*%
G04 #@! TD*
G04 APERTURE END LIST*
D10*
X82290000Y-76685000D03*
X73650000Y-76685000D03*
D11*
X82290000Y-80865000D03*
X73650000Y-80865000D03*
D12*
X69600000Y-57850000D03*
X69600000Y-56750000D03*
X69050000Y-58400000D03*
X69050000Y-57300000D03*
X69050000Y-56200000D03*
X68500000Y-57850000D03*
X68500000Y-56750000D03*
X67950000Y-58400000D03*
X67950000Y-57300000D03*
X67950000Y-56200000D03*
X67400000Y-57850000D03*
X67400000Y-56750000D03*
D13*
X81320000Y-64900000D03*
D14*
X81320000Y-62360000D03*
X81320000Y-59820000D03*
X81320000Y-57280000D03*
X81320000Y-54740000D03*
X81320000Y-52200000D03*
D15*
X55810000Y-74850000D03*
X55810000Y-68350000D03*
X60310000Y-74850000D03*
X60310000Y-68350000D03*
X64180000Y-74860000D03*
X64180000Y-68360000D03*
X68680000Y-74860000D03*
X68680000Y-68360000D03*
D16*
X71680000Y-76400000D03*
X82140000Y-74640000D03*
X80380000Y-74610000D03*
X73947684Y-74880000D03*
X75920000Y-69200000D03*
X53870000Y-68250000D03*
X53840000Y-74910000D03*
X61380000Y-63090000D03*
X61050000Y-51530000D03*
X74040000Y-51490000D03*
X73780000Y-62990000D03*
X71070000Y-82070000D03*
X60340000Y-63100000D03*
X54320000Y-60390000D03*
X78230000Y-56260000D03*
X75910000Y-67990000D03*
X72640000Y-65330000D03*
X62470000Y-62960000D03*
X64470000Y-65530000D03*
X62100000Y-79110000D03*
X53820000Y-55290000D03*
X54770000Y-55260000D03*
X65760000Y-77560000D03*
X64370000Y-62950000D03*
X71000000Y-79770000D03*
D17*
X74217684Y-74610000D02*
X73947684Y-74880000D01*
X80380000Y-74610000D02*
X74217684Y-74610000D01*
D18*
X62480000Y-62950000D02*
X64370000Y-62950000D01*
X62470000Y-62960000D02*
X62480000Y-62950000D01*
G04 #@! TA.AperFunction,Conductor*
G36*
X81087897Y-50650185D02*
G01*
X81133652Y-50702989D01*
X81143596Y-50772147D01*
X81114571Y-50835703D01*
X81055793Y-50873477D01*
X81040256Y-50876973D01*
X81003760Y-50882753D01*
X80801585Y-50948444D01*
X80612179Y-51044951D01*
X80440213Y-51169890D01*
X80289890Y-51320213D01*
X80164951Y-51492179D01*
X80068444Y-51681585D01*
X80002753Y-51883760D01*
X79969500Y-52093713D01*
X79969500Y-52306286D01*
X80002753Y-52516239D01*
X80068444Y-52718414D01*
X80164951Y-52907820D01*
X80289890Y-53079786D01*
X80440213Y-53230109D01*
X80612182Y-53355050D01*
X80620946Y-53359516D01*
X80671742Y-53407491D01*
X80688536Y-53475312D01*
X80665998Y-53541447D01*
X80620946Y-53580484D01*
X80612182Y-53584949D01*
X80440213Y-53709890D01*
X80289890Y-53860213D01*
X80164951Y-54032179D01*
X80068444Y-54221585D01*
X80002753Y-54423760D01*
X79969500Y-54633713D01*
X79969500Y-54846286D01*
X80002753Y-55056239D01*
X80068444Y-55258414D01*
X80164951Y-55447820D01*
X80289890Y-55619786D01*
X80440213Y-55770109D01*
X80612182Y-55895050D01*
X80620946Y-55899516D01*
X80671742Y-55947491D01*
X80688536Y-56015312D01*
X80665998Y-56081447D01*
X80620946Y-56120484D01*
X80612182Y-56124949D01*
X80440213Y-56249890D01*
X80289890Y-56400213D01*
X80164951Y-56572179D01*
X80068444Y-56761585D01*
X80002753Y-56963760D01*
X79969500Y-57173713D01*
X79969500Y-57386286D01*
X80002753Y-57596239D01*
X80068444Y-57798414D01*
X80164951Y-57987820D01*
X80289890Y-58159786D01*
X80440213Y-58310109D01*
X80612182Y-58435050D01*
X80620946Y-58439516D01*
X80671742Y-58487491D01*
X80688536Y-58555312D01*
X80665998Y-58621447D01*
X80620946Y-58660484D01*
X80612182Y-58664949D01*
X80440213Y-58789890D01*
X80289890Y-58940213D01*
X80164951Y-59112179D01*
X80068444Y-59301585D01*
X80002753Y-59503760D01*
X79969500Y-59713713D01*
X79969500Y-59926286D01*
X80002753Y-60136239D01*
X80068444Y-60338414D01*
X80164951Y-60527820D01*
X80289890Y-60699786D01*
X80440213Y-60850109D01*
X80612179Y-60975048D01*
X80612181Y-60975049D01*
X80612184Y-60975051D01*
X80621493Y-60979794D01*
X80672290Y-61027766D01*
X80689087Y-61095587D01*
X80666552Y-61161722D01*
X80621505Y-61200760D01*
X80612446Y-61205376D01*
X80612440Y-61205380D01*
X80558282Y-61244727D01*
X80558282Y-61244728D01*
X81190591Y-61877037D01*
X81127007Y-61894075D01*
X81012993Y-61959901D01*
X80919901Y-62052993D01*
X80854075Y-62167007D01*
X80837037Y-62230591D01*
X80204728Y-61598282D01*
X80204727Y-61598282D01*
X80165380Y-61652439D01*
X80068904Y-61841782D01*
X80003242Y-62043869D01*
X80003242Y-62043872D01*
X79970000Y-62253753D01*
X79970000Y-62466246D01*
X80003242Y-62676127D01*
X80003242Y-62676130D01*
X80068904Y-62878217D01*
X80165375Y-63067550D01*
X80204728Y-63121716D01*
X80837037Y-62489408D01*
X80854075Y-62552993D01*
X80919901Y-62667007D01*
X81012993Y-62760099D01*
X81127007Y-62825925D01*
X81190590Y-62842962D01*
X80520370Y-63513181D01*
X80459047Y-63546666D01*
X80432698Y-63549500D01*
X80422134Y-63549500D01*
X80422123Y-63549501D01*
X80362516Y-63555908D01*
X80227671Y-63606202D01*
X80227664Y-63606206D01*
X80112455Y-63692452D01*
X80112452Y-63692455D01*
X80026206Y-63807664D01*
X80026202Y-63807671D01*
X79975908Y-63942517D01*
X79969501Y-64002116D01*
X79969501Y-64002123D01*
X79969500Y-64002135D01*
X79969500Y-65797870D01*
X79969501Y-65797876D01*
X79975908Y-65857483D01*
X80026202Y-65992328D01*
X80026206Y-65992335D01*
X80112452Y-66107544D01*
X80112455Y-66107547D01*
X80227664Y-66193793D01*
X80227671Y-66193797D01*
X80362517Y-66244091D01*
X80362516Y-66244091D01*
X80369444Y-66244835D01*
X80422127Y-66250500D01*
X82217872Y-66250499D01*
X82277483Y-66244091D01*
X82412331Y-66193796D01*
X82527546Y-66107546D01*
X82613796Y-65992331D01*
X82664091Y-65857483D01*
X82670500Y-65797873D01*
X82670499Y-64002128D01*
X82664091Y-63942517D01*
X82613796Y-63807669D01*
X82613795Y-63807668D01*
X82613793Y-63807664D01*
X82527547Y-63692455D01*
X82527544Y-63692452D01*
X82412335Y-63606206D01*
X82412328Y-63606202D01*
X82277482Y-63555908D01*
X82277483Y-63555908D01*
X82217883Y-63549501D01*
X82217881Y-63549500D01*
X82217873Y-63549500D01*
X82217865Y-63549500D01*
X82207309Y-63549500D01*
X82140270Y-63529815D01*
X82119628Y-63513181D01*
X81449408Y-62842962D01*
X81512993Y-62825925D01*
X81627007Y-62760099D01*
X81720099Y-62667007D01*
X81785925Y-62552993D01*
X81802962Y-62489408D01*
X82435270Y-63121717D01*
X82435270Y-63121716D01*
X82474622Y-63067554D01*
X82571095Y-62878217D01*
X82636757Y-62676130D01*
X82636757Y-62676127D01*
X82670000Y-62466246D01*
X82670000Y-62253753D01*
X82636757Y-62043872D01*
X82636757Y-62043869D01*
X82571095Y-61841782D01*
X82474624Y-61652449D01*
X82435270Y-61598282D01*
X82435269Y-61598282D01*
X81802962Y-62230590D01*
X81785925Y-62167007D01*
X81720099Y-62052993D01*
X81627007Y-61959901D01*
X81512993Y-61894075D01*
X81449409Y-61877037D01*
X82081716Y-61244728D01*
X82027547Y-61205373D01*
X82027547Y-61205372D01*
X82018500Y-61200763D01*
X81967706Y-61152788D01*
X81950912Y-61084966D01*
X81973451Y-61018832D01*
X82018508Y-60979793D01*
X82027816Y-60975051D01*
X82107007Y-60917515D01*
X82199786Y-60850109D01*
X82199788Y-60850106D01*
X82199792Y-60850104D01*
X82350104Y-60699792D01*
X82350106Y-60699788D01*
X82350109Y-60699786D01*
X82475048Y-60527820D01*
X82475047Y-60527820D01*
X82475051Y-60527816D01*
X82571557Y-60338412D01*
X82637246Y-60136243D01*
X82670500Y-59926287D01*
X82670500Y-59713713D01*
X82637246Y-59503757D01*
X82571557Y-59301588D01*
X82475051Y-59112184D01*
X82475049Y-59112181D01*
X82475048Y-59112179D01*
X82350109Y-58940213D01*
X82199786Y-58789890D01*
X82027820Y-58664951D01*
X82027115Y-58664591D01*
X82019054Y-58660485D01*
X81968259Y-58612512D01*
X81951463Y-58544692D01*
X81973999Y-58478556D01*
X82019054Y-58439515D01*
X82027816Y-58435051D01*
X82049789Y-58419086D01*
X82199786Y-58310109D01*
X82199788Y-58310106D01*
X82199792Y-58310104D01*
X82350104Y-58159792D01*
X82350106Y-58159788D01*
X82350109Y-58159786D01*
X82475048Y-57987820D01*
X82475047Y-57987820D01*
X82475051Y-57987816D01*
X82571557Y-57798412D01*
X82637246Y-57596243D01*
X82670500Y-57386287D01*
X82670500Y-57173713D01*
X82637246Y-56963757D01*
X82571557Y-56761588D01*
X82475051Y-56572184D01*
X82475049Y-56572181D01*
X82475048Y-56572179D01*
X82350109Y-56400213D01*
X82199786Y-56249890D01*
X82027820Y-56124951D01*
X82027115Y-56124591D01*
X82019054Y-56120485D01*
X81968259Y-56072512D01*
X81951463Y-56004692D01*
X81973999Y-55938556D01*
X82019054Y-55899515D01*
X82027816Y-55895051D01*
X82049789Y-55879086D01*
X82199786Y-55770109D01*
X82199788Y-55770106D01*
X82199792Y-55770104D01*
X82350104Y-55619792D01*
X82350106Y-55619788D01*
X82350109Y-55619786D01*
X82475048Y-55447820D01*
X82475047Y-55447820D01*
X82475051Y-55447816D01*
X82571557Y-55258412D01*
X82637246Y-55056243D01*
X82670500Y-54846287D01*
X82670500Y-54633713D01*
X82637246Y-54423757D01*
X82571557Y-54221588D01*
X82475051Y-54032184D01*
X82475049Y-54032181D01*
X82475048Y-54032179D01*
X82350109Y-53860213D01*
X82199786Y-53709890D01*
X82027820Y-53584951D01*
X82027115Y-53584591D01*
X82019054Y-53580485D01*
X81968259Y-53532512D01*
X81951463Y-53464692D01*
X81973999Y-53398556D01*
X82019054Y-53359515D01*
X82027816Y-53355051D01*
X82049789Y-53339086D01*
X82199786Y-53230109D01*
X82199788Y-53230106D01*
X82199792Y-53230104D01*
X82350104Y-53079792D01*
X82350106Y-53079788D01*
X82350109Y-53079786D01*
X82475048Y-52907820D01*
X82475047Y-52907820D01*
X82475051Y-52907816D01*
X82571557Y-52718412D01*
X82637246Y-52516243D01*
X82670500Y-52306287D01*
X82670500Y-52093713D01*
X82637246Y-51883757D01*
X82571557Y-51681588D01*
X82475051Y-51492184D01*
X82475049Y-51492181D01*
X82475048Y-51492179D01*
X82350109Y-51320213D01*
X82199786Y-51169890D01*
X82027820Y-51044951D01*
X81838414Y-50948444D01*
X81838413Y-50948443D01*
X81838412Y-50948443D01*
X81636243Y-50882754D01*
X81636241Y-50882753D01*
X81636240Y-50882753D01*
X81599744Y-50876973D01*
X81536609Y-50847044D01*
X81499678Y-50787732D01*
X81500676Y-50717870D01*
X81539286Y-50659637D01*
X81603249Y-50631523D01*
X81619142Y-50630500D01*
X84135500Y-50630500D01*
X84202539Y-50650185D01*
X84248294Y-50702989D01*
X84259500Y-50754500D01*
X84259500Y-83245500D01*
X84239815Y-83312539D01*
X84187011Y-83358294D01*
X84135500Y-83369500D01*
X52424500Y-83369500D01*
X52357461Y-83349815D01*
X52311706Y-83297011D01*
X52300500Y-83245500D01*
X52300500Y-80366504D01*
X72650000Y-80366504D01*
X72650000Y-80615000D01*
X73350000Y-80615000D01*
X73350000Y-81115000D01*
X72650000Y-81115000D01*
X72650000Y-81363495D01*
X72688427Y-81556681D01*
X72688430Y-81556693D01*
X72763807Y-81738671D01*
X72763814Y-81738684D01*
X72873248Y-81902462D01*
X72873251Y-81902466D01*
X73012533Y-82041748D01*
X73012537Y-82041751D01*
X73176315Y-82151185D01*
X73176328Y-82151192D01*
X73358308Y-82226569D01*
X73400000Y-82234862D01*
X73400000Y-81431988D01*
X73409940Y-81449205D01*
X73465795Y-81505060D01*
X73534204Y-81544556D01*
X73610504Y-81565000D01*
X73689496Y-81565000D01*
X73765796Y-81544556D01*
X73834205Y-81505060D01*
X73890060Y-81449205D01*
X73900000Y-81431988D01*
X73900000Y-82234862D01*
X73941690Y-82226569D01*
X73941692Y-82226569D01*
X74123671Y-82151192D01*
X74123684Y-82151185D01*
X74287462Y-82041751D01*
X74287466Y-82041748D01*
X74426748Y-81902466D01*
X74426751Y-81902462D01*
X74536185Y-81738684D01*
X74536192Y-81738671D01*
X74611569Y-81556693D01*
X74611572Y-81556681D01*
X74649999Y-81363495D01*
X74650000Y-81363492D01*
X74650000Y-81115000D01*
X73950000Y-81115000D01*
X73950000Y-80615000D01*
X74650000Y-80615000D01*
X74650000Y-80366508D01*
X74649999Y-80366504D01*
X81290000Y-80366504D01*
X81290000Y-80615000D01*
X81990000Y-80615000D01*
X81990000Y-81115000D01*
X81290000Y-81115000D01*
X81290000Y-81363495D01*
X81328427Y-81556681D01*
X81328430Y-81556693D01*
X81403807Y-81738671D01*
X81403814Y-81738684D01*
X81513248Y-81902462D01*
X81513251Y-81902466D01*
X81652533Y-82041748D01*
X81652537Y-82041751D01*
X81816315Y-82151185D01*
X81816328Y-82151192D01*
X81998308Y-82226569D01*
X82040000Y-82234862D01*
X82040000Y-81431988D01*
X82049940Y-81449205D01*
X82105795Y-81505060D01*
X82174204Y-81544556D01*
X82250504Y-81565000D01*
X82329496Y-81565000D01*
X82405796Y-81544556D01*
X82474205Y-81505060D01*
X82530060Y-81449205D01*
X82540000Y-81431988D01*
X82540000Y-82234862D01*
X82581690Y-82226569D01*
X82581692Y-82226569D01*
X82763671Y-82151192D01*
X82763684Y-82151185D01*
X82927462Y-82041751D01*
X82927466Y-82041748D01*
X83066748Y-81902466D01*
X83066751Y-81902462D01*
X83176185Y-81738684D01*
X83176192Y-81738671D01*
X83251569Y-81556693D01*
X83251572Y-81556681D01*
X83289999Y-81363495D01*
X83290000Y-81363492D01*
X83290000Y-81115000D01*
X82590000Y-81115000D01*
X82590000Y-80615000D01*
X83290000Y-80615000D01*
X83290000Y-80366508D01*
X83289999Y-80366504D01*
X83251572Y-80173318D01*
X83251569Y-80173306D01*
X83176192Y-79991328D01*
X83176185Y-79991315D01*
X83066751Y-79827537D01*
X83066748Y-79827533D01*
X82927466Y-79688251D01*
X82927462Y-79688248D01*
X82763684Y-79578814D01*
X82763671Y-79578807D01*
X82581691Y-79503429D01*
X82581683Y-79503427D01*
X82540000Y-79495135D01*
X82540000Y-80298011D01*
X82530060Y-80280795D01*
X82474205Y-80224940D01*
X82405796Y-80185444D01*
X82329496Y-80165000D01*
X82250504Y-80165000D01*
X82174204Y-80185444D01*
X82105795Y-80224940D01*
X82049940Y-80280795D01*
X82040000Y-80298011D01*
X82040000Y-79495136D01*
X82039999Y-79495135D01*
X81998316Y-79503427D01*
X81998308Y-79503429D01*
X81816328Y-79578807D01*
X81816315Y-79578814D01*
X81652537Y-79688248D01*
X81652533Y-79688251D01*
X81513251Y-79827533D01*
X81513248Y-79827537D01*
X81403814Y-79991315D01*
X81403807Y-79991328D01*
X81328430Y-80173306D01*
X81328427Y-80173318D01*
X81290000Y-80366504D01*
X74649999Y-80366504D01*
X74611572Y-80173318D01*
X74611569Y-80173306D01*
X74536192Y-79991328D01*
X74536185Y-79991315D01*
X74426751Y-79827537D01*
X74426748Y-79827533D01*
X74287466Y-79688251D01*
X74287462Y-79688248D01*
X74123684Y-79578814D01*
X74123671Y-79578807D01*
X73941691Y-79503429D01*
X73941683Y-79503427D01*
X73900000Y-79495135D01*
X73900000Y-80298011D01*
X73890060Y-80280795D01*
X73834205Y-80224940D01*
X73765796Y-80185444D01*
X73689496Y-80165000D01*
X73610504Y-80165000D01*
X73534204Y-80185444D01*
X73465795Y-80224940D01*
X73409940Y-80280795D01*
X73400000Y-80298011D01*
X73400000Y-79495136D01*
X73399999Y-79495135D01*
X73358316Y-79503427D01*
X73358308Y-79503429D01*
X73176328Y-79578807D01*
X73176315Y-79578814D01*
X73012537Y-79688248D01*
X73012533Y-79688251D01*
X72873251Y-79827533D01*
X72873248Y-79827537D01*
X72763814Y-79991315D01*
X72763807Y-79991328D01*
X72688430Y-80173306D01*
X72688427Y-80173318D01*
X72650000Y-80366504D01*
X52300500Y-80366504D01*
X52300500Y-74731947D01*
X54310000Y-74731947D01*
X54310000Y-74968052D01*
X54346934Y-75201247D01*
X54419897Y-75425802D01*
X54527087Y-75636174D01*
X54587338Y-75719104D01*
X54587340Y-75719105D01*
X55286212Y-75020233D01*
X55297482Y-75062292D01*
X55369890Y-75187708D01*
X55472292Y-75290110D01*
X55597708Y-75362518D01*
X55639765Y-75373787D01*
X54940893Y-76072658D01*
X55023828Y-76132914D01*
X55234197Y-76240102D01*
X55458752Y-76313065D01*
X55458751Y-76313065D01*
X55691948Y-76350000D01*
X55928052Y-76350000D01*
X56161247Y-76313065D01*
X56385802Y-76240102D01*
X56596163Y-76132918D01*
X56596169Y-76132914D01*
X56679104Y-76072658D01*
X56679105Y-76072658D01*
X55980233Y-75373787D01*
X56022292Y-75362518D01*
X56147708Y-75290110D01*
X56250110Y-75187708D01*
X56322518Y-75062292D01*
X56333787Y-75020234D01*
X57032658Y-75719105D01*
X57032658Y-75719104D01*
X57092914Y-75636169D01*
X57092918Y-75636163D01*
X57200102Y-75425802D01*
X57273065Y-75201247D01*
X57310000Y-74968052D01*
X57310000Y-74731947D01*
X57309993Y-74731902D01*
X58809500Y-74731902D01*
X58809500Y-74968097D01*
X58846446Y-75201368D01*
X58919433Y-75425996D01*
X59002689Y-75589394D01*
X59026657Y-75636433D01*
X59165483Y-75827510D01*
X59332490Y-75994517D01*
X59523567Y-76133343D01*
X59622991Y-76184002D01*
X59734003Y-76240566D01*
X59734005Y-76240566D01*
X59734008Y-76240568D01*
X59854412Y-76279689D01*
X59958631Y-76313553D01*
X60191903Y-76350500D01*
X60191908Y-76350500D01*
X60428097Y-76350500D01*
X60661368Y-76313553D01*
X60662870Y-76313065D01*
X60885992Y-76240568D01*
X61096433Y-76133343D01*
X61287510Y-75994517D01*
X61454517Y-75827510D01*
X61593343Y-75636433D01*
X61700568Y-75425992D01*
X61773553Y-75201368D01*
X61779292Y-75165135D01*
X61810500Y-74968097D01*
X61810500Y-74741902D01*
X62679500Y-74741902D01*
X62679500Y-74978097D01*
X62716446Y-75211368D01*
X62789433Y-75435996D01*
X62867594Y-75589394D01*
X62896657Y-75646433D01*
X63035483Y-75837510D01*
X63202490Y-76004517D01*
X63393567Y-76143343D01*
X63492991Y-76194002D01*
X63604003Y-76250566D01*
X63604005Y-76250566D01*
X63604008Y-76250568D01*
X63724412Y-76289689D01*
X63828631Y-76323553D01*
X64061903Y-76360500D01*
X64061908Y-76360500D01*
X64298097Y-76360500D01*
X64531368Y-76323553D01*
X64532870Y-76323065D01*
X64755992Y-76250568D01*
X64966433Y-76143343D01*
X65157510Y-76004517D01*
X65324517Y-75837510D01*
X65463343Y-75646433D01*
X65570568Y-75435992D01*
X65643553Y-75211368D01*
X65645717Y-75197708D01*
X65680500Y-74978097D01*
X65680500Y-74741947D01*
X67180000Y-74741947D01*
X67180000Y-74978052D01*
X67216934Y-75211247D01*
X67289897Y-75435802D01*
X67397087Y-75646174D01*
X67457338Y-75729104D01*
X67457340Y-75729105D01*
X68156212Y-75030233D01*
X68167482Y-75072292D01*
X68239890Y-75197708D01*
X68342292Y-75300110D01*
X68467708Y-75372518D01*
X68509765Y-75383787D01*
X67810893Y-76082658D01*
X67893828Y-76142914D01*
X68104197Y-76250102D01*
X68328752Y-76323065D01*
X68328751Y-76323065D01*
X68561948Y-76360000D01*
X68798052Y-76360000D01*
X69031247Y-76323065D01*
X69255802Y-76250102D01*
X69466163Y-76142918D01*
X69466169Y-76142914D01*
X69549104Y-76082658D01*
X69549105Y-76082658D01*
X69502951Y-76036504D01*
X72650000Y-76036504D01*
X72650000Y-76435000D01*
X73350000Y-76435000D01*
X73350000Y-76935000D01*
X72650000Y-76935000D01*
X72650000Y-77333495D01*
X72688427Y-77526681D01*
X72688430Y-77526693D01*
X72763807Y-77708671D01*
X72763814Y-77708684D01*
X72873248Y-77872462D01*
X72873251Y-77872466D01*
X73012533Y-78011748D01*
X73012537Y-78011751D01*
X73176315Y-78121185D01*
X73176328Y-78121192D01*
X73358308Y-78196569D01*
X73400000Y-78204862D01*
X73400000Y-77401988D01*
X73409940Y-77419205D01*
X73465795Y-77475060D01*
X73534204Y-77514556D01*
X73610504Y-77535000D01*
X73689496Y-77535000D01*
X73765796Y-77514556D01*
X73834205Y-77475060D01*
X73890060Y-77419205D01*
X73900000Y-77401988D01*
X73900000Y-78204862D01*
X73941690Y-78196569D01*
X73941692Y-78196569D01*
X74123671Y-78121192D01*
X74123684Y-78121185D01*
X74287462Y-78011751D01*
X74287466Y-78011748D01*
X74426748Y-77872466D01*
X74426751Y-77872462D01*
X74536185Y-77708684D01*
X74536187Y-77708680D01*
X74580871Y-77600802D01*
X74624712Y-77546399D01*
X74691006Y-77524333D01*
X74758705Y-77541612D01*
X74783114Y-77560573D01*
X74788036Y-77565495D01*
X74896464Y-77628095D01*
X75017399Y-77660500D01*
X75017401Y-77660500D01*
X75142599Y-77660500D01*
X75142601Y-77660500D01*
X75263536Y-77628095D01*
X75371964Y-77565495D01*
X75460495Y-77476964D01*
X75523095Y-77368536D01*
X75555500Y-77247601D01*
X75555500Y-77122399D01*
X80384500Y-77122399D01*
X80384500Y-77247601D01*
X80416905Y-77368536D01*
X80479505Y-77476964D01*
X80568036Y-77565495D01*
X80676464Y-77628095D01*
X80797399Y-77660500D01*
X80797401Y-77660500D01*
X80922599Y-77660500D01*
X80922601Y-77660500D01*
X81043536Y-77628095D01*
X81151964Y-77565495D01*
X81156883Y-77560575D01*
X81218202Y-77527089D01*
X81287894Y-77532070D01*
X81343830Y-77573939D01*
X81359127Y-77600802D01*
X81403807Y-77708671D01*
X81403814Y-77708684D01*
X81513248Y-77872462D01*
X81513251Y-77872466D01*
X81652533Y-78011748D01*
X81652537Y-78011751D01*
X81816315Y-78121185D01*
X81816328Y-78121192D01*
X81998308Y-78196569D01*
X82040000Y-78204862D01*
X82040000Y-77401988D01*
X82049940Y-77419205D01*
X82105795Y-77475060D01*
X82174204Y-77514556D01*
X82250504Y-77535000D01*
X82329496Y-77535000D01*
X82405796Y-77514556D01*
X82474205Y-77475060D01*
X82530060Y-77419205D01*
X82540000Y-77401988D01*
X82540000Y-78204862D01*
X82581690Y-78196569D01*
X82581692Y-78196569D01*
X82763671Y-78121192D01*
X82763684Y-78121185D01*
X82927462Y-78011751D01*
X82927466Y-78011748D01*
X83066748Y-77872466D01*
X83066751Y-77872462D01*
X83176185Y-77708684D01*
X83176192Y-77708671D01*
X83251569Y-77526693D01*
X83251572Y-77526681D01*
X83289999Y-77333495D01*
X83290000Y-77333492D01*
X83290000Y-76935000D01*
X82590000Y-76935000D01*
X82590000Y-76435000D01*
X83290000Y-76435000D01*
X83290000Y-76036508D01*
X83289999Y-76036504D01*
X83251572Y-75843318D01*
X83251569Y-75843306D01*
X83176192Y-75661328D01*
X83176185Y-75661315D01*
X83066751Y-75497537D01*
X83066748Y-75497533D01*
X82927466Y-75358251D01*
X82927462Y-75358248D01*
X82763684Y-75248814D01*
X82763671Y-75248807D01*
X82581691Y-75173429D01*
X82581683Y-75173427D01*
X82540000Y-75165135D01*
X82540000Y-75968011D01*
X82530060Y-75950795D01*
X82474205Y-75894940D01*
X82405796Y-75855444D01*
X82329496Y-75835000D01*
X82250504Y-75835000D01*
X82174204Y-75855444D01*
X82105795Y-75894940D01*
X82049940Y-75950795D01*
X82040000Y-75968011D01*
X82040000Y-75165136D01*
X82039999Y-75165135D01*
X81998316Y-75173427D01*
X81998308Y-75173429D01*
X81816328Y-75248807D01*
X81816315Y-75248814D01*
X81652537Y-75358248D01*
X81652533Y-75358251D01*
X81513251Y-75497533D01*
X81513248Y-75497537D01*
X81403814Y-75661315D01*
X81403807Y-75661328D01*
X81328430Y-75843306D01*
X81328427Y-75843318D01*
X81290000Y-76036504D01*
X81290000Y-76435000D01*
X81990000Y-76435000D01*
X81990000Y-76935000D01*
X81333821Y-76935000D01*
X81266782Y-76915315D01*
X81246140Y-76898681D01*
X81151965Y-76804506D01*
X81151964Y-76804505D01*
X81043536Y-76741905D01*
X81043537Y-76741905D01*
X81003224Y-76731103D01*
X80922601Y-76709500D01*
X80797399Y-76709500D01*
X80716775Y-76731103D01*
X80676463Y-76741905D01*
X80568037Y-76804504D01*
X80568034Y-76804506D01*
X80479506Y-76893034D01*
X80479504Y-76893037D01*
X80416905Y-77001463D01*
X80416905Y-77001464D01*
X80384500Y-77122399D01*
X75555500Y-77122399D01*
X75523095Y-77001464D01*
X75460495Y-76893036D01*
X75371964Y-76804505D01*
X75263536Y-76741905D01*
X75263537Y-76741905D01*
X75223224Y-76731103D01*
X75142601Y-76709500D01*
X75017399Y-76709500D01*
X74936775Y-76731103D01*
X74896463Y-76741905D01*
X74788037Y-76804504D01*
X74788034Y-76804506D01*
X74693860Y-76898681D01*
X74632537Y-76932166D01*
X74606179Y-76935000D01*
X73950000Y-76935000D01*
X73950000Y-76435000D01*
X74650000Y-76435000D01*
X74650000Y-76036508D01*
X74649999Y-76036504D01*
X74611572Y-75843318D01*
X74611569Y-75843306D01*
X74536192Y-75661328D01*
X74536185Y-75661315D01*
X74497497Y-75603415D01*
X74476619Y-75536738D01*
X74495103Y-75469358D01*
X74512916Y-75446845D01*
X74549762Y-75410000D01*
X74562946Y-75396817D01*
X74624269Y-75363333D01*
X74650625Y-75360500D01*
X80075396Y-75360500D01*
X80122844Y-75369937D01*
X80146503Y-75379737D01*
X80146508Y-75379738D01*
X80146511Y-75379739D01*
X80301153Y-75410499D01*
X80301156Y-75410500D01*
X80301158Y-75410500D01*
X80458844Y-75410500D01*
X80458845Y-75410499D01*
X80613497Y-75379737D01*
X80759179Y-75319394D01*
X80890289Y-75231789D01*
X81001789Y-75120289D01*
X81089394Y-74989179D01*
X81149737Y-74843497D01*
X81180500Y-74688842D01*
X81180500Y-74531158D01*
X81180500Y-74531155D01*
X81180499Y-74531153D01*
X81174467Y-74500827D01*
X81149737Y-74376503D01*
X81107283Y-74274008D01*
X81089397Y-74230827D01*
X81089390Y-74230814D01*
X81001789Y-74099711D01*
X81001786Y-74099707D01*
X80890292Y-73988213D01*
X80890288Y-73988210D01*
X80759185Y-73900609D01*
X80759172Y-73900602D01*
X80613501Y-73840264D01*
X80613489Y-73840261D01*
X80458845Y-73809500D01*
X80458842Y-73809500D01*
X80301158Y-73809500D01*
X80301155Y-73809500D01*
X80146511Y-73840260D01*
X80146506Y-73840262D01*
X80146504Y-73840262D01*
X80146503Y-73840263D01*
X80122844Y-73850062D01*
X80075396Y-73859500D01*
X74143760Y-73859500D01*
X74114926Y-73865234D01*
X74114927Y-73865235D01*
X73998777Y-73888339D01*
X73998773Y-73888340D01*
X73924613Y-73919059D01*
X73862190Y-73944915D01*
X73862189Y-73944916D01*
X73793379Y-73990893D01*
X73780056Y-73999795D01*
X73739272Y-74027045D01*
X73739267Y-74027049D01*
X73632385Y-74133929D01*
X73592161Y-74160807D01*
X73568501Y-74170607D01*
X73437399Y-74258207D01*
X73437391Y-74258213D01*
X73325897Y-74369707D01*
X73325894Y-74369711D01*
X73238293Y-74500814D01*
X73238286Y-74500827D01*
X73177948Y-74646498D01*
X73177945Y-74646510D01*
X73147184Y-74801153D01*
X73147184Y-74958846D01*
X73177944Y-75113488D01*
X73177947Y-75113497D01*
X73182552Y-75124615D01*
X73190018Y-75194084D01*
X73158741Y-75256562D01*
X73136880Y-75275165D01*
X73012537Y-75358248D01*
X73012533Y-75358251D01*
X72873251Y-75497533D01*
X72873248Y-75497537D01*
X72763814Y-75661315D01*
X72763807Y-75661328D01*
X72688430Y-75843306D01*
X72688427Y-75843318D01*
X72650000Y-76036504D01*
X69502951Y-76036504D01*
X68850233Y-75383787D01*
X68892292Y-75372518D01*
X69017708Y-75300110D01*
X69120110Y-75197708D01*
X69192518Y-75072292D01*
X69203787Y-75030234D01*
X69902658Y-75729105D01*
X69902658Y-75729104D01*
X69962914Y-75646169D01*
X69962918Y-75646163D01*
X70070102Y-75435802D01*
X70143065Y-75211247D01*
X70180000Y-74978052D01*
X70180000Y-74741947D01*
X70143065Y-74508752D01*
X70070102Y-74284197D01*
X69962914Y-74073828D01*
X69902658Y-73990894D01*
X69902658Y-73990893D01*
X69203787Y-74689765D01*
X69192518Y-74647708D01*
X69120110Y-74522292D01*
X69017708Y-74419890D01*
X68892292Y-74347482D01*
X68850234Y-74336212D01*
X69549105Y-73637340D01*
X69549104Y-73637338D01*
X69466174Y-73577087D01*
X69255802Y-73469897D01*
X69031247Y-73396934D01*
X69031248Y-73396934D01*
X68798052Y-73360000D01*
X68561948Y-73360000D01*
X68328752Y-73396934D01*
X68104197Y-73469897D01*
X67893830Y-73577084D01*
X67810894Y-73637340D01*
X68509766Y-74336212D01*
X68467708Y-74347482D01*
X68342292Y-74419890D01*
X68239890Y-74522292D01*
X68167482Y-74647708D01*
X68156212Y-74689766D01*
X67457340Y-73990894D01*
X67397084Y-74073830D01*
X67289897Y-74284197D01*
X67216934Y-74508752D01*
X67180000Y-74741947D01*
X65680500Y-74741947D01*
X65680500Y-74741902D01*
X65643553Y-74508631D01*
X65600624Y-74376510D01*
X65570568Y-74284008D01*
X65570566Y-74284005D01*
X65570566Y-74284003D01*
X65507794Y-74160807D01*
X65463343Y-74073567D01*
X65324517Y-73882490D01*
X65157510Y-73715483D01*
X64966433Y-73576657D01*
X64946807Y-73566657D01*
X64755996Y-73469433D01*
X64531368Y-73396446D01*
X64298097Y-73359500D01*
X64298092Y-73359500D01*
X64061908Y-73359500D01*
X64061903Y-73359500D01*
X63828631Y-73396446D01*
X63604003Y-73469433D01*
X63393566Y-73576657D01*
X63323808Y-73627340D01*
X63202490Y-73715483D01*
X63202488Y-73715485D01*
X63202487Y-73715485D01*
X63035485Y-73882487D01*
X63035485Y-73882488D01*
X63035483Y-73882490D01*
X62990128Y-73944916D01*
X62896657Y-74073566D01*
X62789433Y-74284003D01*
X62716446Y-74508631D01*
X62679500Y-74741902D01*
X61810500Y-74741902D01*
X61810500Y-74731902D01*
X61773553Y-74498631D01*
X61721192Y-74337482D01*
X61700568Y-74274008D01*
X61700566Y-74274005D01*
X61700566Y-74274003D01*
X61598438Y-74073567D01*
X61593343Y-74063567D01*
X61454517Y-73872490D01*
X61287510Y-73705483D01*
X61096433Y-73566657D01*
X60885996Y-73459433D01*
X60661368Y-73386446D01*
X60428097Y-73349500D01*
X60428092Y-73349500D01*
X60191908Y-73349500D01*
X60191903Y-73349500D01*
X59958631Y-73386446D01*
X59734003Y-73459433D01*
X59523566Y-73566657D01*
X59414550Y-73645862D01*
X59332490Y-73705483D01*
X59332488Y-73705485D01*
X59332487Y-73705485D01*
X59165485Y-73872487D01*
X59165485Y-73872488D01*
X59165483Y-73872490D01*
X59131649Y-73919059D01*
X59026657Y-74063566D01*
X58919433Y-74274003D01*
X58846446Y-74498631D01*
X58809500Y-74731902D01*
X57309993Y-74731902D01*
X57273065Y-74498752D01*
X57200102Y-74274197D01*
X57092914Y-74063828D01*
X57032658Y-73980894D01*
X57032658Y-73980893D01*
X56333787Y-74679765D01*
X56322518Y-74637708D01*
X56250110Y-74512292D01*
X56147708Y-74409890D01*
X56022292Y-74337482D01*
X55980234Y-74326212D01*
X56679105Y-73627340D01*
X56679104Y-73627338D01*
X56596174Y-73567087D01*
X56385802Y-73459897D01*
X56161247Y-73386934D01*
X56161248Y-73386934D01*
X55928052Y-73350000D01*
X55691948Y-73350000D01*
X55458752Y-73386934D01*
X55234197Y-73459897D01*
X55023830Y-73567084D01*
X54940894Y-73627340D01*
X55639766Y-74326212D01*
X55597708Y-74337482D01*
X55472292Y-74409890D01*
X55369890Y-74512292D01*
X55297482Y-74637708D01*
X55286212Y-74679766D01*
X54587340Y-73980894D01*
X54527084Y-74063830D01*
X54419897Y-74274197D01*
X54346934Y-74498752D01*
X54310000Y-74731947D01*
X52300500Y-74731947D01*
X52300500Y-68231947D01*
X54310000Y-68231947D01*
X54310000Y-68468052D01*
X54346934Y-68701247D01*
X54419897Y-68925802D01*
X54527087Y-69136174D01*
X54587338Y-69219104D01*
X54587340Y-69219105D01*
X55286212Y-68520233D01*
X55297482Y-68562292D01*
X55369890Y-68687708D01*
X55472292Y-68790110D01*
X55597708Y-68862518D01*
X55639765Y-68873787D01*
X54940893Y-69572658D01*
X55023828Y-69632914D01*
X55234197Y-69740102D01*
X55458752Y-69813065D01*
X55458751Y-69813065D01*
X55691948Y-69850000D01*
X55928052Y-69850000D01*
X56161247Y-69813065D01*
X56385802Y-69740102D01*
X56596163Y-69632918D01*
X56596169Y-69632914D01*
X56679104Y-69572658D01*
X56679105Y-69572658D01*
X55980233Y-68873787D01*
X56022292Y-68862518D01*
X56147708Y-68790110D01*
X56250110Y-68687708D01*
X56322518Y-68562292D01*
X56333787Y-68520234D01*
X57032658Y-69219105D01*
X57032658Y-69219104D01*
X57092914Y-69136169D01*
X57092918Y-69136163D01*
X57200102Y-68925802D01*
X57273065Y-68701247D01*
X57310000Y-68468052D01*
X57310000Y-68231947D01*
X57309993Y-68231902D01*
X58809500Y-68231902D01*
X58809500Y-68468097D01*
X58846446Y-68701368D01*
X58919433Y-68925996D01*
X59026519Y-69136163D01*
X59026657Y-69136433D01*
X59165483Y-69327510D01*
X59332490Y-69494517D01*
X59523567Y-69633343D01*
X59622991Y-69684002D01*
X59734003Y-69740566D01*
X59734005Y-69740566D01*
X59734008Y-69740568D01*
X59854412Y-69779689D01*
X59958631Y-69813553D01*
X60191903Y-69850500D01*
X60191908Y-69850500D01*
X60428097Y-69850500D01*
X60661368Y-69813553D01*
X60662870Y-69813065D01*
X60885992Y-69740568D01*
X61096433Y-69633343D01*
X61287510Y-69494517D01*
X61454517Y-69327510D01*
X61593343Y-69136433D01*
X61700568Y-68925992D01*
X61773553Y-68701368D01*
X61775717Y-68687708D01*
X61810500Y-68468097D01*
X61810500Y-68241902D01*
X62679500Y-68241902D01*
X62679500Y-68478097D01*
X62716446Y-68711368D01*
X62789433Y-68935996D01*
X62891424Y-69136163D01*
X62896657Y-69146433D01*
X63035483Y-69337510D01*
X63202490Y-69504517D01*
X63393567Y-69643343D01*
X63492991Y-69694002D01*
X63604003Y-69750566D01*
X63604005Y-69750566D01*
X63604008Y-69750568D01*
X63724412Y-69789689D01*
X63828631Y-69823553D01*
X64061903Y-69860500D01*
X64061908Y-69860500D01*
X64298097Y-69860500D01*
X64531368Y-69823553D01*
X64532870Y-69823065D01*
X64755992Y-69750568D01*
X64966433Y-69643343D01*
X65157510Y-69504517D01*
X65324517Y-69337510D01*
X65463343Y-69146433D01*
X65570568Y-68935992D01*
X65643553Y-68711368D01*
X65647300Y-68687708D01*
X65680500Y-68478097D01*
X65680500Y-68241947D01*
X67180000Y-68241947D01*
X67180000Y-68478052D01*
X67216934Y-68711247D01*
X67289897Y-68935802D01*
X67397087Y-69146174D01*
X67457338Y-69229104D01*
X67457340Y-69229105D01*
X68156212Y-68530233D01*
X68167482Y-68572292D01*
X68239890Y-68697708D01*
X68342292Y-68800110D01*
X68467708Y-68872518D01*
X68509765Y-68883787D01*
X67810893Y-69582658D01*
X67893828Y-69642914D01*
X68104197Y-69750102D01*
X68328752Y-69823065D01*
X68328751Y-69823065D01*
X68561948Y-69860000D01*
X68798052Y-69860000D01*
X69031247Y-69823065D01*
X69255802Y-69750102D01*
X69466163Y-69642918D01*
X69466169Y-69642914D01*
X69549104Y-69582658D01*
X69549105Y-69582658D01*
X68850233Y-68883787D01*
X68892292Y-68872518D01*
X69017708Y-68800110D01*
X69120110Y-68697708D01*
X69192518Y-68572292D01*
X69203787Y-68530234D01*
X69902658Y-69229105D01*
X69902658Y-69229104D01*
X69962914Y-69146169D01*
X69962918Y-69146163D01*
X70070102Y-68935802D01*
X70143065Y-68711247D01*
X70180000Y-68478052D01*
X70180000Y-68241947D01*
X70143065Y-68008752D01*
X70070102Y-67784197D01*
X69962914Y-67573828D01*
X69902658Y-67490894D01*
X69902658Y-67490893D01*
X69203787Y-68189765D01*
X69192518Y-68147708D01*
X69120110Y-68022292D01*
X69017708Y-67919890D01*
X68892292Y-67847482D01*
X68850234Y-67836212D01*
X69549105Y-67137340D01*
X69549104Y-67137338D01*
X69466174Y-67077087D01*
X69255802Y-66969897D01*
X69031247Y-66896934D01*
X69031248Y-66896934D01*
X68798052Y-66860000D01*
X68561948Y-66860000D01*
X68328752Y-66896934D01*
X68104197Y-66969897D01*
X67893830Y-67077084D01*
X67810894Y-67137340D01*
X68509766Y-67836212D01*
X68467708Y-67847482D01*
X68342292Y-67919890D01*
X68239890Y-68022292D01*
X68167482Y-68147708D01*
X68156212Y-68189766D01*
X67457340Y-67490894D01*
X67397084Y-67573830D01*
X67289897Y-67784197D01*
X67216934Y-68008752D01*
X67180000Y-68241947D01*
X65680500Y-68241947D01*
X65680500Y-68241902D01*
X65643553Y-68008631D01*
X65570566Y-67784003D01*
X65463477Y-67573830D01*
X65463343Y-67573567D01*
X65324517Y-67382490D01*
X65157510Y-67215483D01*
X64966433Y-67076657D01*
X64946807Y-67066657D01*
X64755996Y-66969433D01*
X64531368Y-66896446D01*
X64298097Y-66859500D01*
X64298092Y-66859500D01*
X64061908Y-66859500D01*
X64061903Y-66859500D01*
X63828631Y-66896446D01*
X63604003Y-66969433D01*
X63393566Y-67076657D01*
X63323808Y-67127340D01*
X63202490Y-67215483D01*
X63202488Y-67215485D01*
X63202487Y-67215485D01*
X63035485Y-67382487D01*
X63035485Y-67382488D01*
X63035483Y-67382490D01*
X62975862Y-67464550D01*
X62896657Y-67573566D01*
X62789433Y-67784003D01*
X62716446Y-68008631D01*
X62679500Y-68241902D01*
X61810500Y-68241902D01*
X61810500Y-68231902D01*
X61773553Y-67998631D01*
X61721192Y-67837482D01*
X61700568Y-67774008D01*
X61700566Y-67774005D01*
X61700566Y-67774003D01*
X61598438Y-67573567D01*
X61593343Y-67563567D01*
X61454517Y-67372490D01*
X61287510Y-67205483D01*
X61096433Y-67066657D01*
X60885996Y-66959433D01*
X60661368Y-66886446D01*
X60428097Y-66849500D01*
X60428092Y-66849500D01*
X60191908Y-66849500D01*
X60191903Y-66849500D01*
X59958631Y-66886446D01*
X59734003Y-66959433D01*
X59523566Y-67066657D01*
X59414550Y-67145862D01*
X59332490Y-67205483D01*
X59332488Y-67205485D01*
X59332487Y-67205485D01*
X59165485Y-67372487D01*
X59165485Y-67372488D01*
X59165483Y-67372490D01*
X59158220Y-67382487D01*
X59026657Y-67563566D01*
X58919433Y-67774003D01*
X58846446Y-67998631D01*
X58809500Y-68231902D01*
X57309993Y-68231902D01*
X57273065Y-67998752D01*
X57200102Y-67774197D01*
X57092914Y-67563828D01*
X57032658Y-67480894D01*
X57032658Y-67480893D01*
X56333787Y-68179765D01*
X56322518Y-68137708D01*
X56250110Y-68012292D01*
X56147708Y-67909890D01*
X56022292Y-67837482D01*
X55980234Y-67826212D01*
X56679105Y-67127340D01*
X56679104Y-67127338D01*
X56596174Y-67067087D01*
X56385802Y-66959897D01*
X56161247Y-66886934D01*
X56161248Y-66886934D01*
X55928052Y-66850000D01*
X55691948Y-66850000D01*
X55458752Y-66886934D01*
X55234197Y-66959897D01*
X55023830Y-67067084D01*
X54940894Y-67127340D01*
X55639766Y-67826212D01*
X55597708Y-67837482D01*
X55472292Y-67909890D01*
X55369890Y-68012292D01*
X55297482Y-68137708D01*
X55286212Y-68179766D01*
X54587340Y-67480894D01*
X54527084Y-67563830D01*
X54419897Y-67774197D01*
X54346934Y-67998752D01*
X54310000Y-68231947D01*
X52300500Y-68231947D01*
X52300500Y-62881153D01*
X61669500Y-62881153D01*
X61669500Y-63038846D01*
X61700261Y-63193489D01*
X61700264Y-63193501D01*
X61760602Y-63339172D01*
X61760609Y-63339185D01*
X61848210Y-63470288D01*
X61848213Y-63470292D01*
X61959707Y-63581786D01*
X61959711Y-63581789D01*
X62090814Y-63669390D01*
X62090827Y-63669397D01*
X62212363Y-63719738D01*
X62236503Y-63729737D01*
X62391153Y-63760499D01*
X62391156Y-63760500D01*
X62391158Y-63760500D01*
X62548844Y-63760500D01*
X62548845Y-63760499D01*
X62703497Y-63729737D01*
X62849179Y-63669394D01*
X62980289Y-63581789D01*
X62984118Y-63578647D01*
X63048428Y-63551334D01*
X63062783Y-63550500D01*
X63790234Y-63550500D01*
X63857273Y-63570185D01*
X63859125Y-63571398D01*
X63990814Y-63659390D01*
X63990827Y-63659397D01*
X64136498Y-63719735D01*
X64136503Y-63719737D01*
X64291153Y-63750499D01*
X64291156Y-63750500D01*
X64291158Y-63750500D01*
X64448844Y-63750500D01*
X64448845Y-63750499D01*
X64603497Y-63719737D01*
X64716166Y-63673067D01*
X64749172Y-63659397D01*
X64749172Y-63659396D01*
X64749179Y-63659394D01*
X64880289Y-63571789D01*
X64991789Y-63460289D01*
X65079394Y-63329179D01*
X65139737Y-63183497D01*
X65170500Y-63028842D01*
X65170500Y-62871158D01*
X65170500Y-62871155D01*
X65170499Y-62871153D01*
X65139737Y-62716503D01*
X65139735Y-62716498D01*
X65079397Y-62570827D01*
X65079390Y-62570814D01*
X64991789Y-62439711D01*
X64991786Y-62439707D01*
X64880292Y-62328213D01*
X64880288Y-62328210D01*
X64749185Y-62240609D01*
X64749172Y-62240602D01*
X64603501Y-62180264D01*
X64603489Y-62180261D01*
X64448845Y-62149500D01*
X64448842Y-62149500D01*
X64291158Y-62149500D01*
X64291155Y-62149500D01*
X64136510Y-62180261D01*
X64136498Y-62180264D01*
X63990827Y-62240602D01*
X63990814Y-62240609D01*
X63859125Y-62328602D01*
X63792447Y-62349480D01*
X63790234Y-62349500D01*
X63034800Y-62349500D01*
X62967761Y-62329815D01*
X62965909Y-62328602D01*
X62849185Y-62250609D01*
X62849172Y-62250602D01*
X62703501Y-62190264D01*
X62703489Y-62190261D01*
X62548845Y-62159500D01*
X62548842Y-62159500D01*
X62391158Y-62159500D01*
X62391155Y-62159500D01*
X62236510Y-62190261D01*
X62236498Y-62190264D01*
X62090827Y-62250602D01*
X62090814Y-62250609D01*
X61959711Y-62338210D01*
X61959707Y-62338213D01*
X61848213Y-62449707D01*
X61848210Y-62449711D01*
X61760609Y-62580814D01*
X61760602Y-62580827D01*
X61700264Y-62726498D01*
X61700261Y-62726510D01*
X61669500Y-62881153D01*
X52300500Y-62881153D01*
X52300500Y-50754500D01*
X52320185Y-50687461D01*
X52372989Y-50641706D01*
X52424500Y-50630500D01*
X81020858Y-50630500D01*
X81087897Y-50650185D01*
G37*
G04 #@! TD.AperFunction*
M02*
